<svg xmlns="http://www.w3.org/2000/svg" viewBox="0 0 430 200"><title>nira-newimg_1</title><path d="M429.6,97.92v-.4c0-.4,0-.4.4-.8v.4C430,97.52,429.6,97.52,429.6,97.92Zm-38.19,6c.4,1.59-.8,2-1.59,2.79-.4,0-.8,0-.4.8,0,.8-.8,1.2-1.19,1.59a1.46,1.46,0,0,1-1.19-.4v-.8C388.63,106.69,389.42,104.7,391.41,103.9Zm1.19-.8v.8c-.4.8-.8,0-1.19,0C391.81,103.5,391.81,103.1,392.61,103.1Zm-24.27,39.07a4,4,0,0,1,2-1.59A4,4,0,0,1,368.34,142.17Zm1.19-8.37c0,.4,0,.4-.4.4,0-.4,0-.4.4-.8Zm16.71-24.32a1.46,1.46,0,0,1,1.19.4c-.4,0-.4.8-.8.8-.8,1.2-1.19,3.19-2.39,4.39-.8.8-1.19,2-2.78,1.59-.4-.4-.8,0-1.19.8-2.39,3.19-4.38,6.78-7.16,10-.8.4-1.19.8-2,.8,0-.8.8-2,2.39-4l7.16-8.77c1.19-1.59,2.78-2.79,4-4.78.4-.4.4,0,.8,0s.8,0,.4-.4C385.84,109.88,385.84,109.48,386.24,109.48Zm-13.13,17.94c0,.4,0,.4-.4.8l-2.39,3.59a.39.39,0,0,0-.4.4,2.4,2.4,0,0,1-.4-1.59c.8-.8.8-2,1.59-2.39C370.73,129.41,371.92,129,373.11,127.42Zm22.67-2h.4a1.39,1.39,0,0,0-.8.4C395.39,125.43,395.39,125.43,395.79,125.43ZM397,99.91l.4-.4h.4a.39.39,0,0,0-.4.4Zm.8,23.92c-.4,0-.4.4-.8.8v-.4c0-.4.4-.8.8-1.2Zm4.77-25.51-.4-.4h.8v.4Zm-4.38,0,2-1.59a34.41,34.41,0,0,1,4-2.79l-5.57,4.78Zm9.55-4.78a.39.39,0,0,1,.4-.4c.4,0,.4.4,0,.4Zm12.73,7.18s0-.8.4-.8a.39.39,0,0,1,.4.4l-.8,1.2C420.05,101.51,420.45,101.11,420.45,100.71Zm-1.19,5.18.8-.8h.4c-.4.8-.8.8-.8,1.2A.39.39,0,0,1,419.26,105.89Zm4.77,4.39,1.59-2.39h.4v.4a10.56,10.56,0,0,1-2,2.39Zm-28.64,26.31-.4-.4a1.39,1.39,0,0,0,.4-.8,1.24,1.24,0,0,1,.4.8A.39.39,0,0,0,395.39,136.59ZM214.35,111a.39.39,0,0,1,.4-.4v.8a.39.39,0,0,0-.4.4ZM429.6,92.34c-1.19-1.2-.8.4-.8.4-.4.8,0,1.2,0,1.59,0,2,0,3.59-2,5.18-1.19.8-1.19,2-1.59,2.79,0,.4,0,1.2-.4,1.2s-.4-.8-.4-1.2c0,0,.4-.8,0-.8s-.8,0-.8.4c-.4,0,0,.4,0,.8.4,1.2-.4,2-.4,3.19l-.8,2a.39.39,0,0,0,.4-.4c.4-.4.8-.8.4-1.59.4,0,.8.4.4,1.2s-.4,2-1.59,2.39c-.4,0-.4-.4,0-.4,0-.8,0-1.2-.4-1.2s0,.4,0,.8c-.4.4-.4.4-.8.4s-.4-.4,0-.8l1.59-4c.4-1.59,1.19-3.19,1.19-5.18-.4-.8,1.19-1.59.8-2.79,0-.8.4-1.59.4-2.39a4,4,0,0,0-.4-1.2c-.8,0-.4.8-.4.8-.4,0-.4.4-.8.4,0-.4-.4-.4-.4-.8-.4-4.78-3.18-5.58-7.56-3.19l-3.58,2c-1.19-1.2.4-1.59.8-2,1.19-1.2,2.39-1.59,3.18-2.39a1.39,1.39,0,0,0,.8-.4h-.8a18.26,18.26,0,0,0-6.36,2.79c-.4,0-.8.4-1.19.4l-.4.4c-.4-.8-.8-1.2.8-1.59a.39.39,0,0,0,.4-.4c-.4-.4,0-1.2-.8-1.2a1.27,1.27,0,0,0-1.19,1.2,16.42,16.42,0,0,0-4.38,2.79c-2.78,2.79-5.17,6-8.75,8-.4,0-.4.8-.8,1.2a37.54,37.54,0,0,0-4,4c-1.19.8-2,2.39-3.18,3.19-4.77,4-7.56,9.17-11.14,14A68.82,68.82,0,0,0,367.15,133c-.8,2-2,4.78-.4,6.78.4.8-.4.8-.4,1.2-.4,2,.8,1.2,1.59,1.2a.39.39,0,0,1-.4.4c0,.4-.8.8-.4,1.2s.8,0,1.19,0a115.2,115.2,0,0,0,11.54-7.57c.4-.4,1.59-1.2,1.59-.8.4.8-.8.8-1.19,1.2a74.88,74.88,0,0,1-9.15,6.38c-.4.4-.8.8-1.19.8a1.46,1.46,0,0,0,1.19-.4,2.07,2.07,0,0,0,1.59-.8,3.61,3.61,0,0,1,2.78-1.2,4.06,4.06,0,0,0,3.18-2c1.19-1.59.8-1.59,2.78-2.79.4-.4.8-.8,1.59-.4h.4c1.59-1.59,4-2,5.17-4l3.18-2.39c.4-.4.4-.4.8-.4,0,.4,0,.4-.4.8s-1.19.8-1.19,1.2c-.4.4-.8.4-.8.8.4,0,.8-.4,1.19-.4L393.8,129c1.59-1.2,4-2,5.17-3.59l3.58-3.19h.8a.39.39,0,0,0-.4.4,119.3,119.3,0,0,1-12.73,12l-6.76,5.58c0,.4-.4.4,0,.8v.4c.8,0,.4-.4.4-.8a3,3,0,0,0,2.78-1.59c.4,1.2,1.19,0,1.59-.4A79.6,79.6,0,0,0,397,131c.8-.8,1.19-2.39,2.39-3.19l.4-.4c3.18-2,5.57-5.58,8.75-8,.8-.8,1.19-2.39,2.78-2.79.4-.4,1.19-.8,1.19,0,0,.4,0,.8.4.4,2-.4,3.58-1.2,4.77,0,.8.4,2,0,2.39.4.8,1.59,5.17,1.59,5.17,2.79a11.5,11.5,0,0,1-2.78,10c-.8,1.2-2.39,1.59-2.39,3.19a4.8,4.8,0,0,0-2,2c-2.73,5.09-5.85,10.17-7.84,15.26.15-.15.41-.24.68-.51l-1.19,2v-.4a7.4,7.4,0,0,0-.8,2.79,57,57,0,0,0-3.18,8.77c0,.4-.8,1.2-.4,2,.4,1.2-1.19,2.79-1.19,3.59.8,2.79-.4,6,1.59,8,1.19,1.59,2.39.8,4,.4.4,0,.4-.4.8-.4l-.8.8c-.4,0-.8.4-1.19.8h1.59c-2.39.8-4.77,1.59-6.76.4-.4-.4-3.18-.4-3.18-.4-.4.4,0,.8.4.8a1.39,1.39,0,0,0,.8.4h-1.19a5.35,5.35,0,0,1-2.78-2.39c-.4.8-.4,1.59-.8,1.59-.4.4-.8-.4-1.19-.8a8,8,0,0,1-1.19-4.39v-.4c-.4,0-.4,0-.4.4a1.24,1.24,0,0,1-.4.8v-6.38c0-.4,0-.4-.4-.4v.4a1.06,1.06,0,0,1-1.19,1.2c0-.4,0,0-.4,0l.8-1.2c1.19-2,.8-3.59.8-5.18a33.83,33.83,0,0,1,1.59-6.78c1.59-8.37,5.57-16.35,9.15-24.32l3.58-6.78v-1.2c-.4.4-.4.4-.8.4-1.59,1.59-2,3.59-3.58,4.78-8.35,6-15.91,13.16-25.06,18.34-1.19,1.2-2.78,2.39-4.77,2-.4,0-1.19.8-2,1.2-.8,1.2-2.39.8-3.58,1.2-.4,0-.8-.4-1.59.4,0,.4-.4-.4-.4-.4-.4-.4,0-.8.4-.8,0,0,.8.4.8-.4,0,0-1.19-.4-1.19,0-1.19.8-2.39.4-3.18.4-2.78,0-4.77-1.59-6.36-3.59-3.18-4.78-3.18-10-1.59-15.15A41.32,41.32,0,0,1,361.18,119c2.39-2.79,4-6,6-8.77,1.24-1.6,2.56-3.2,3.93-4.8a48.05,48.05,0,0,1-21.75-.86,38.53,38.53,0,0,1-10.75-5.18c-.8-.8-2-.4-2.79.4a48.5,48.5,0,0,0-12.74,12.76c-.4.4-.8,1.2-1.59.8a3,3,0,0,0-1.59.8c-3.19,4.78-6.37,8-10,12.76-3.58,5.18-8,10.37-11.94,15.15-2,2.39-3.58,4.78-5.57,6.78l-3.19,2.79c-2.39,1.59-1.59,3.59-2.79,5.18,0-.4-.4-.4-.8-.4v.4h.8c-2.79,3.19-5.18,6.78-8.36,9.57a16.63,16.63,0,0,1-4,1.59,29.69,29.69,0,0,0-4.78,2.79s-.8.8-.8.4c-.4-.8.4-.4.8-.8s.4-.4.4-1.2c-.4,0-.4-.8-.8-.4-2.39,2-2.79-.4-4-.4-.8-.4-1.19-2-2.39-1.59a.55.55,0,0,1,0-.8c2-2,0-3.59.4-5.18.4-5.18,2.79-10.37,4.78-15.55A206.45,206.45,0,0,0,274.88,125a15.57,15.57,0,0,1,.68-2.35c-.84.91-1.34,2.29-2.68,2-1.59-.4-3.19.8-4.38,1.2a31.73,31.73,0,0,0-6.37,3.19l-3.19.8c-2,.8-3.58,1.2-4.78,2.79-.8.8-13.94,4.78-14.73,4-.8,0-2,2.79-3.19,3.19a29.09,29.09,0,0,0-7.56,2.79,64.22,64.22,0,0,1-10.35,3.59c-.8,0-2.79-.4-2.79,0a2.11,2.11,0,0,1-3.19,1.2,17.08,17.08,0,0,0-6.37,0c-4,1.2-6.77-.8-10-1.59a10.09,10.09,0,0,1-8.36-6c-.4-2-2-3.59-2.79-5.18-2.39-6,4-21.93,7.56-28.71,2.39-4,5.57-7.58,8.76-11.56.8-.8,2.39-.8,3.19-1.59,2.39-1.59,4.78-1.2,7.17-2.39l4-1.2h.4c.8,1.59,2,1.59,3.58.8.4,0,1.19,0,.4.8-.8,1.2,1.19,1.2.4,2.79-.4.8-.4,2.39-.8,3.59a.55.55,0,0,0,0,.8.39.39,0,0,1,.4-.4c1.19-2,.8-4.39,1.59-6.38.4-.4,0-.8.4-.8a1.39,1.39,0,0,1,.4.8c-.4,5.18-2.79,10.37-6,15.55h-.4a7.17,7.17,0,0,1,1.59-3.59v-.8c-.4-.4-.4,0-.8.4l-.8,1.59c-.8-.4,0-.8,0-1.2v-.4c0,.4-.4.4-.4.8-2,3.59-8.76,14.75-10.35,18.74-.8,3.19-2.39,8.77-2.39,12,0,1.59,0,1.2,1.19,1.59.4,0,.4.4.4.8.8,4,4.78,5.18,8.76,4,3.19-1.2,6.37-1.2,9.56-2,10-2.79,31.45-12.76,41-16.75a105.13,105.13,0,0,0,15.08-7.15c1.91-5.34,3.18-10.85,5.63-16.37,1.59-4,1.59-8.37,4-12.36a4.08,4.08,0,0,1,2-2.39c.8-.4.8.4.8.8s0,.8.4.8a.39.39,0,0,0,.4-.4c1.59-1.59,3.19-1.59,4.38-.8a29.68,29.68,0,0,0,4.78,2.79c.4,0,.4.4.4,1.2,0,0-.8,1.59.8.8-.4,2,.8,1.2,2,.8,0,0,0,.8.4.8,0,.4,0,.8.4.8.8-.8.8,0,.8.8-.4,1.2,0,2.39-2,2.79-.8,0-.8.4-1.19,1.2a.39.39,0,0,0,.4.4,1.39,1.39,0,0,1,.4-.8l.4-.4c-.4,1.2,1.19.8.8,2a3,3,0,0,1-2,2.79c-.8.4-.4-.8-.4-1.59,0,0,.4-.8,0-.8a.86.86,0,0,0-.8.8,8.34,8.34,0,0,0-1.59,2.39c-2.39,6.38-4.38,12.36-7.17,18.74-.4.4-.8.4-.8.8-.4-.4,0-.8,0-1.2,0-.8,0-1.59-.4-1.59-.8-.4-.8.8-.8,1.2a.39.39,0,0,0-.4.4c-2.79,1.59-2.39,3.19-2,5.18.4.4,0,.4-.4.4-1.19-.8-1.19.4-1.59,1.2-.4.4,1.19,1.59-.8,1.59.4.4.4.4.8.4.4.8.8,0,1.19-.4a6.61,6.61,0,0,0,2-5.18c0-1.2.8.8,1.19,0,.4-.4.4-1.2,1.19-.8a4,4,0,0,0-.4,1.2c-1.59,4-3.58,8-5.18,12.36v.8c.4,0,.4-.4.8-.8,3.58-4.39,8-8.37,11.55-13.16,2.39-3.19,4.38-6.38,7.17-9.57a168.77,168.77,0,0,1,13.54-15.95c3.19-2.79,5.57-6.38,9.56-8.37q9-4.19,15.53,0c3.19,2,6.37,7.58,9.16,10,7.09,3.55,18.07,3.2,24.86-.29,3.81-3.14,7.95-6,11.25-9.61,1.59-1.59,4.38-2.79,6.76-4.39h.4c1.19-.8,2.39-2.79,2.39,0,2-2.39,4.38-2.79,7.16-3.19h.8c1.59-1.59,3.58-.8,5.17-.4l4.77,1.2h.4c-.4,1.2-.4,1.59.8,1.2,1.59-.4,2,1.2,3.18,1.59,2.78,1.59,5.57,3.19,7.56,6,.4.4.4,1.59.8,2.39C430,92.74,429.6,92.74,429.6,92.34Zm-22.67,86.51.4-.4h-1.19C406.53,178.85,406.53,178.85,406.93,178.85Zm-25.86-36.28c1.19,0,1.59-.8,1.59-1.2V141l-2,1.2A.39.39,0,0,0,381.07,142.57Zm-6.76,5.18.8-.4c0-.8-.8,0-.8-.4-.4,0-.4-.4-.8,0A.86.86,0,0,0,374.31,147.75Zm-5.17,2.79,1.19-.8a.39.39,0,0,0-.4-.4c-.4,0-.8.4-1.19.8C368.74,150.54,368.74,150.54,369.14,150.54Zm-156.38-4.06c-.4,0-.4.4-.8.4h1.19A.39.39,0,0,1,212.76,146.49Zm79.64-30.3a8.34,8.34,0,0,0,1.59-2.39c1.59-2.39,0-4.78,2.39-7.18,1.19-1.2-.4-2.79,1.59-4,0-.4,0-.8-.4-.4-.8.4-2.39,1.2-2,2,.4,1.59-1.19,2.79-1.59,4-.4,1.59-1.59,3.19-1.19,4.78.4.8.8,1.2-.8,2,0,0,0,.8-.4.8C291.6,116.18,292,116.18,292.4,116.18ZM410.91,92.74a.39.39,0,0,0-.4-.4c.4-.8.8-.4,1.19-.4C411.3,92.34,411.3,92.74,410.91,92.74Zm-5.17-.8a.39.39,0,0,1,.4-.4c.4-.8.8-1.2,1.59-.8,0,.8,0,1.2-.4,1.59C406.53,92.34,406.13,92.34,405.73,91.94Zm1.19-2.39h-.4a1.39,1.39,0,0,1,.4-.8C406.93,89.15,407.33,89.15,406.93,89.55ZM419.66,135l-.4.4a1.47,1.47,0,0,0,.4-1.2c.4-.4.4-.4.4-.8C420.85,134.2,419.66,134.6,419.66,135ZM215.94,106.61c0,1.2,0,2-.8,2.79A3.8,3.8,0,0,1,215.94,106.61Zm26.68-45.85c.4.4,0,.4-.4.8-2.79,1.59-4,4.39-5.57,6.78l-3.58,4.78c-.4-.4-2,.8-1.19-.8.4-.4-1.19,0-1.59-.8.4-.4,1.19-.4,1.59-1.2h-.4a1.06,1.06,0,0,0-1.19,1.2c-2.39,1.2-3.58-.8-5.18-1.2-3.19-1.2-1.19-3.59-1.59-5.58a3,3,0,0,0-.8-2c-.8-2.39-.8-4.39,2-6a11.37,11.37,0,0,0,2.79-3.19c1.19-2.39,2.79-1.2,4-.8.8,0,1.59.4,2.39,0,3.19-2.79,5.18-.4,6.77.8,1.59.8,3.19,2,2,4.39C242.22,58.77,241.82,60,242.62,60.76ZM194.73,16v-1.2c-.4,0,0-.4,0-.4a1.47,1.47,0,0,1,.4,1.2A.39.39,0,0,1,194.73,16Zm-9.95,10c.4-.4.8-.8,1.19-.8s.4,0,.4.4c0,.8-.4.8-.8.8A1.39,1.39,0,0,1,184.78,25.93ZM79.31,108.09v-.4c-.4-.4,0-.8.4-.8a.39.39,0,0,1,.4.4C79.71,107.7,79.71,108.09,79.31,108.09Zm1.59,12a.39.39,0,0,1,.4.4,1.39,1.39,0,0,0-.4.8c-.4-.4-.8-.4-.8-.8A1.39,1.39,0,0,1,80.9,120.06Zm-.4-7.58.4-.4.4.4a.4.4,0,1,1-.8,0Zm1.19,2.39c0,.4,0,1.2-.8,1.2a4,4,0,0,1-.4-1.2l1.19-1.2C82.1,113.68,81.7,114.48,81.7,114.88ZM80.9,140c-.4,0-.4-.4-.8-.8.4,0,.8-.4.8,0a1.39,1.39,0,0,0,.8.4C81.3,140,80.9,140.4,80.9,140Zm.4,2.79a1.06,1.06,0,0,1-1.19-1.2c0-.4.8-.8,1.19-.8l.8,1.6C82.1,142.8,81.3,143.2,81.3,142.8Zm111-127.64c0,.4,0,1.2-.4,1.2s-.4-.8-.4-1.2v-.8c-.4.4-.4.8-.8.8-2,1.6-2,3.19-2.79,5.19,0,.8-1.19,1.6-2,2-1.19.4-1.19,1.2-1.59,2-1.19,2-.8,2.79,1.19,3.19,0,0,.4.8,0,.8a4.08,4.08,0,0,1-2.39,2,1.47,1.47,0,0,0,.4-1.2h-.4v1.2a3.27,3.27,0,0,0-2,2,77.08,77.08,0,0,1-4.38,13.56c-.8,2-1.19,4-2.39,6,0,.4-.4.4-.4.8-.4,0-.4-.4-.4-1.2v-.8c-.4,0,0,.4-.4.8s-.8.8-.8,1.2c-.4.4-.8.8-.4.8,2.79.8.4,3.19,0,4.39-2,6-4.38,11.57-6.77,17.55-.8,1.6-.8,3.19-2.79,4.39-1.59.8,0,2.39-1.19,3.59-.8.8-1.59,2-3.18,1.6l1.19-2h-.8a2,2,0,0,0-.4,2c-.8,1.6.8,2.79,0,4.39,0,1.2,0,2.39-1.59,1.6-.8-.4-1.19.4-2,.8-.4.4,0-2-.8,0-.4.8.8,1.2,2,1.2.4-.4.8-.4.4,0,0,.4-.8,1.2-1.19.8-1.59-1.6-2.39,1.2-3.18,2-2.39,1.2,0,2.79-1.19,4.79h.8c.8-.4.8-1.6,1.19-2s-.8-.8.4-1.2h.8c0,.8.4,1.2-.4,2-.8,1.2-.8,2.39-1.19,3.59-.8,1.6-.8,3.19-2,4.39l-.8,1.6c-.4.4,0,.8-.8,1.2,0-.4.4-.8.4-1.2s-.4-.4-.4-.8v.8l-.8,1.6H147a2.4,2.4,0,0,1,.4-1.6,7.68,7.68,0,0,0,1.59-4.79l.4.4s.4-.4,0-.4c0-.4-.4,0-.4,0-1.19.4-.8,1.2-1.19,2,0,.4-.4.4-.8.8h-.4c-.8-.8-1.19-.8-1.59.8-.4.4,0,1.6,0,2,.4,1.6,1.59,2,2,2.79.8.8-.4,3.19-1.59,4.39-1.59,1.6-.8,3.19-2,4.79-.8,1.2-2.79,1.6-2,3.19a1.23,1.23,0,0,1-.8.4c0-.4-.8,0-.8-.8V124c.4-.8,0-1.2,0-1.6-.4.4-.4.8-.4,1.6-.4.8-1.59,1.6-1.59,2.39,0,2,.4,3.59-1.59,5.19h.4c0,1.2-1.19,2.39-1.59,3.59-.8,1.2-1.19-.4-2.39.4,0,.4-.4-.8-.8,0s0,1.2.4,1.2v-.4c.4,0,.4-.4.4,0,.4,0,.4.4,0,.4a.75.75,0,0,1,0,1.2c-.4.8-.8,0-1.19,0-.8.4-2,1.6-2.79.8l-.4.4v.4c1.59-.4,2.39.8,4,0,.4-.4.8,0,1.19.4a2.07,2.07,0,0,1-.8,1.6c-.4.4-.4,0-.4,0,0-.4.4-.8-.4-.8-.4,0-.4.4-.8.4,0,.4,0,.4.4.8,0,.4.8.8,0,1.6s-.4-.4-.8-.4h-.8c0,.4-.4.4,0,.8,1.19.8,0,2-.4,3.19,0,.8-2,1.2-2,1.2-1.19,1.2-2-.4-3.18.4-.4,0-.4.4-.8,0,0-.4.8-.8,0-1.2a1.47,1.47,0,0,0-.4,1.2c0,.8,0,1.2.8,1.2a5.89,5.89,0,0,1,2.79.4c.4,0,1.19.4.8.8-.8.8-.8,0-1.19,0a4.57,4.57,0,0,0-3.58,2.39c-.8.4-1.59,0-2,.8l.4.4c.8,0,1.19-.8,1.59-1.2v.8c-2,2-.8,3.59-.4,5.19,0,.8,0,2-1.19,2.39a2.4,2.4,0,0,0,.4-1.6,1.23,1.23,0,0,0-.8.4c-.4.4.4.8.4,1.2a1.46,1.46,0,0,0-1.19.4c-.4.4.4.4.4.8.4.4,0,1.2-.4,2a2.19,2.19,0,0,0-1.19,2c-.4.8-.4,1.6-1.59.8a1.39,1.39,0,0,0-.8.4c2,2-1.19,3.59-1.59,5.19l-1.19,1.2c-.4-.4.4-.8.4-1.2,0-1.2-.8-1.6-1.59-2.39v.4a.55.55,0,0,0,0,.8,4.64,4.64,0,0,1,0,4l-.8,1.2c-.8.4-2.39.8-1.19,2,.4.4-.8.8-1.19.8-.8-.4-1.19-.4-1.59.8,0,.8-.4,2.39-2,2-.4,0-.8,0-.8.4a1.47,1.47,0,0,0-.4,1.2c1.19,1.2,1.59,2.39-.4,4-.4.4.4.4.4.4.8-.4,1.19.4,1.59.4,0,.4,0,.8-.4.8,0,.4-.4.8-.4.4-.4,0,0-.4,0-.4a1.32,1.32,0,0,0-2.39,0c-2,2-3.58,4.39-6,6-.4.4-1.19,1.6-.8,2.39.4.4,0,.4,0,.8-.4.4-1.19.8-1.59.4-2-.8-5.57.4-7.56-.4-2.79-1.2-6.77-1.6-8.36-4.79-2-4-7.16-7.18-8-11.57a75.19,75.19,0,0,1-2-13.16c-.4-6-1.19-11.57-.8-17.95a77.27,77.27,0,0,0-.4-13.56c-.4-5.19.4-10.37.4-15.56,0-4.39.8-9.17.4-13.56V104.9c-1.19-5.58,0-11.57,0-17.55A74.33,74.33,0,0,0,67.77,71a87,87,0,0,1-.4-10.37,22.78,22.78,0,0,0-1.59-8.78c-.4-.8,2.39-2.39.8-2-1.19.4-1.19,0-1.59-.4.4,0,.8-.4,1.19-.4-.4-.4-.8-.4-1.19.4-.4.4-.8.8-1.19.8-.8.8-1.19,2-2,1.6-.8-.8,0-2,.8-2.79,0-.4.8-.8.8-1.2-.8.8-1.59,0-2,0-.8.4,0,.8,0,1.2.4,2-1.19,3.19-3.58,3.59-1.19,0-1.59.8-1.59,2-.8-.4-1.19-.4-2,.4v.4c.4,0,.8-.4,1.19-.4a.39.39,0,0,1,.4.4c.4,0,.4.4.4.8-.4,0-1.19.4-1.59.4-.8-.4-.8.4-1.19.8a1.46,1.46,0,0,0-1.19-.4v.4h1.19a2.83,2.83,0,0,1-2.39,1.2c-.4-.4-1.19,0-.8.4s1.19,1.2,0,2H47.87c-.4,0-.4-.8-.8,0a.39.39,0,0,0,.4.4c.8,0,1.19,0,1.59.4L47.47,63c-.4.4-1.59.4-1.19,1.2,0,.8,1.19.4,1.59.4-.8.4-1.59,1.2-.8,2.39-.4,0-.8.4-1.19.4s.4-.4.4-.8v-.8a2.39,2.39,0,0,0-1.59.4c-.4,0-.4.4,0,.8s-.4.8-.8.8c-2,.4-3.58.4-5.17,1.2-.8,0-.4.4-.4.8,0,0,0,.4.4,0,1.59-.8,2,.4,2.39.8a3,3,0,0,1-.8,1.6c-.8.4-.4-.4-.8-.8a.39.39,0,0,0-.4-.4v.8a5.07,5.07,0,0,0,.4,2.39.39.39,0,0,1-.4.4c-.4.4-.8,0-.4-.4,0-.4.4-1.2-.4-1.2-.8.4-.4.8-.4,1.2s-1.19,1.2-.8,2c0,.4-.4.8-.4.4,0-1.2-2,.4-1.59-.8V75c0,.4-.4.4-.4.8l-.4.4c-.4-.4-.4-.4-.8-.4h-2c0-.8.8-.4.8-.8-.4,0-.4,0-.4-.4-.4-.4.4-1.2.8-1.6,0-1.6,2-2.79,1.59-4.39,0-1.6,2-2,3.18-2.79.4-.4,1.19-.8,1.19-1.2,0-.8-.4-.4-1.19-.4-.4,0-.4,0-.4-.4.4-.8.8-1.2,1.19-.8a1.46,1.46,0,0,0,1.19-.4c.4-.8.8-1.2,0-1.6-.4-.4,0-.4.4-.8a1.39,1.39,0,0,0,.8-.4c0-1.2.4-1.6,1.59-1.2,1.19,0,1.19-1.2.8-2,0-.4-1.59-.8.4-.8l.4-.4c.4-.4,0-.4,0-.4a17.2,17.2,0,0,1-2-.4c-.4,0-1.59,0-.8.8.4.4-.4.8-.8,1.2,0-.4,0-.4-.4-.4.8-.8-.8-1.2.8-2,1.59-.4,2.79,0,4-1.6.4-.4,1.59-.4,1.19-.8s-.8-1.2-1.59-.8a1.46,1.46,0,0,0-1.19.4c.4-.4.8-.8.8-1.2.4-2,2.79-3.59,3.18-4.79.4-3.59,4-4.39,5.17-6.78,1.59-3.59,5.17-5.58,8-8,1.19-.8,3.18-2,2.79-4,0-.4.8-2.39,2.39-1.6.8.4,2,0,2.79,0a5.36,5.36,0,0,1,6,3.19l3.58,4.79a10.76,10.76,0,0,1,3.58,8,.39.39,0,0,1-.4.4c-2.39.4-.4,2-1.59,2.79-.8.4-.4-1.2-1.19-.8-.8.8,0,1.6,0,2.39,0,1.6,1.59,2.79.8,4.39a.39.39,0,0,0,.4.4,2.07,2.07,0,0,0,.8-1.6c-.4-.4,0-.8.8-1.2.4,0,.8-.8,1.19,0,0,.4-.8.4-.8.8-.8,1.2,0,.8.4.8.8-.4.8,0,.8.4,0,.8-.8.4-.8.8-.8.4-2,.8-2.39,1.6a5.07,5.07,0,0,0-.4,2.39s.8.8,1.19-.4a.86.86,0,0,1,.8-.8c.4,0,.4.4.8.8,0,.4-.4.4-.8.8a1.39,1.39,0,0,0-.8.4c0,.8.4,0,.8.4.4,0,1.59-1.2,2,0,.4.4-1.59,4-2.39,4-.8.4-.8.8-.8,1.2.8,0,2-.4,2,.4s-.8,1.2-1.59,1.2c-.4,0-.4.4-.4.8,0,4,.4,8,.4,12a1.9,1.9,0,0,1-1.19,2c-.4,0-.4.4,0,.8,0,0,0,.8.4.4s.8-.8.8-.4c.4.4.8.8.4,1.6-.4,0-.4.4-.8,0-.8.4-.8.8,0,.8,1.19,1.2.8,4.39-.4,6l-.4.4c.8,1.2,0,3.19.4,4.39a2.55,2.55,0,0,1,0,2.39c-.4.8-.8,1.6-.4,2,.8,1.6-.4,3.19-.4,4.79,0,1.2,2,.8,2,2h.4c.4.4,1.59.8.8,1.6-.4.8-.4-.8-1.19-.4a.39.39,0,0,0-.4-.4v.8c.4,1.6-2,2.79-2,4.39h-.4c-.4,0-.8-.8-1.19,0a1.78,1.78,0,0,0,0,2c.4.8,1.19-.4,1.19-.4.4.8,3.18,0,1.19,2.39-.8,1.2,1.59,1.2,1.19,2.39-.4.8,0,1.2-.8,2-.4,0-.8.4-.4.8,1.59.8,0,2.39-.4,4s1.19,1.2,2,1.6h.4a.39.39,0,0,0-.4.4c-1.19.4-.8,2-2.39,2a1.47,1.47,0,0,1,.4,1.2c.4.4,1.19-.4,1.59-.4s.8-.8,1.19-.4a1.39,1.39,0,0,0-.8.4c0,.8-2.39.8-.8,1.6-2,1.2.4,1.6,0,2.79-.4,0,0,.4-.4.4-.4.4-1.59.4-.8,1.2.4.4,1.59,0,2.39-.8a1.59,1.59,0,0,1,1.59-.8c.4.4-.4,1.2-.4,1.6,0,.8-2.39,2-.4,2.79l-.4.4c-.4,0-.8,0-.8.4-1.59,1.2-2,5.58-.8,7.18.4.4,0,.8-.4,1.2-.8,1.6,1.19,2.39-.4,4l.4.4c.4,0,.4,0,.8-.4l.4-.4s-.4.4.4.4c.4.4.4,1.2,1.19,1.2a2.4,2.4,0,0,0,.4-1.6c.4-.8,0-.8-.8-.8.8-1.2,1.59-2,2.39-1.2s0,1.6-.4,2l-.8.8c2,2-1.19,2-1.59,3.19l-.8.8a1.46,1.46,0,0,1,1.19-.4c1.59-1.6,2-.8,2,.4s.4,2.39.4,3.59a.39.39,0,0,1-.4.4h-.8c-.4,0,.4-1.2-.4-.4L81.3,158c.8-.4-1.19,1.6.4,1.2.4,0,.8,0,.8-.4.4-.4.4-1.2.8-.8.8,0,.8.4.8.8-.4,3.59.4,6.78.8,10.37,0,1.2-1.59,1.6-1.59,2.39,1.59-.8,2,.4,2,1.2-.4,4.39,1.19,7.58,2.39,11.57.4,2,3.18,2.39,5.17,0a64.22,64.22,0,0,0,8.36-12c3.18-4.39,1.59-10.77,4.38-15.56.4-.4.8-.8,1.19-.8s-.4.4-.4.8a.4.4,0,1,0,.8,0,43.63,43.63,0,0,0,3.18-6v-.4l-.4.4c-.8.4-.4,2-2,2a12.49,12.49,0,0,0,2-4c.4-.8.8-2,2-1.6.8,0,1.19-.8,1.59-1.2.8-.8.4-2.79,2.39-2.39.4,0,.4-.4.8-.8a.39.39,0,0,0-.4-.4c-2.39-1.2-2.39-1.6,0-4,1.59,0,1.59-1.6,2.39-2v-.8c-.4,0-.4.4-.8.4-.4.8-.4,1.6-1.59,2.39.4-2.39,2.79-4.39,3.58-6.78a.39.39,0,0,1,.4-.4c0,.4,0,.8-.4.8,0,.8-.8,1.6-.4,1.6.8,0,.8-.8,1.19-1.6,2-3.19,3.18-6.38,5.17-9.57,5.17-10.77,9.15-19.54,16.32-33.51,8.36-16.75,20.3-48.26,22.29-54.25,2-6.38,3.58-12.76,5.57-18.75,1.59-4.39,2.39-8.78,5.17-13.16,1.19-2,3.18-2,4.38-2.79.4.8,6,2.39,6.77,2.79s1.19,2,3.18,1.2c1.19,2,3.58,2.79,3.58,5.58,0,.8.4.4.8.4.4.4,1.19.4.4,1.2C193.14,12.37,193.54,14,192.34,15.16Zm-158,57.44c-.4,0-.8.4-1.19.8l.4.4a1.46,1.46,0,0,1,1.19-.4C34.74,73,34.34,73,34.34,72.59Zm2-4c-.4,0-.4,0-.4.4l1.19,1.2c.4.4.4,0,.4,0C37.52,69.4,37.13,69,36.33,68.61Zm1.59,4c.4,0,.4,0,.4-.4.4,0,0-.4,0-1.2a4.94,4.94,0,0,1-.8,1.2A.39.39,0,0,0,37.92,72.59Zm.4-5.58c0,.4-.4.4-.4.8.4.4.8,0,.8-.4A.39.39,0,0,0,38.32,67Zm2.39-1.2c-.4,0-.8,0-.4.4,0,.4.4.8.8,1.2,0,.4.4,0,.4-.4C40.71,67,42.3,65.41,40.71,65.81Zm2,0-.4.4v.4a1.23,1.23,0,0,0,.8-.4A.39.39,0,0,0,42.7,65.81Zm6.77-23.53-1.19,1.2h.4a.86.86,0,0,0,.8-.8Zm10.75,8c-.8,0-.8.4-.8.8-.4,0-.4.4,0,.4s.8-.4,1.19-.8C60.61,50.26,60.61,50.26,60.21,50.26Zm10.35,58.24a1.23,1.23,0,0,1-.8.4l1.19,1.2.4-.4Zm.4,2.39c-.4,0-.4.4-.8.4l.4.4c0-.4.4-.4.8-.4A.39.39,0,0,1,71,110.89Zm6.37-31.51c.4,0,.4,0,1.19-.4-.8-.4-.8-.8-.8-.8l-.8.8C76.92,79.38,76.92,79.38,77.32,79.38Zm.8-4.79c1.19-.4,1.19-1.2,1.19-2,0-.4-.4-.8-.4-1.2,0,.4-.4.8-.4,1.2,0,.8-.4,1.2-.8,1.2-.4.4-.4.4-.8.4C77.32,74.19,77.72,74.59,78.12,74.59Zm1.19,59.83h-.4l-.4.4a.39.39,0,0,1,.4.4C78.91,134.82,79.31,134.82,79.31,134.42Zm2.79,31.91c.4,0,.4,0,.8-.4h-.8l-.4.4Zm-.8-1.2c.4-.4.8-.8.8-1.2v-.8c-.4.8-.8,1.2-.8,1.6Zm-.8-3.19h.8c0-.4-.4-.4-.8-.4h-.4A.39.39,0,0,0,80.51,161.94Zm1.19-6.38v.8c.4-.8,1.19-.8,1.19-1.2,0-.8.4-2-.4-2-.8-.4-1.19,1.2-2.39,1.2v.8c0,.4.4,0,.8,0C81.3,154.76,82.5,154.36,81.7,155.56Zm-.8,4.39a1.46,1.46,0,0,1-1.19.4c.8.8,2,.4,2.79.8.4,0,.8,0,.8-.4C83.29,159.15,81.7,160.75,80.9,159.95Zm17.91,32.71a4,4,0,0,0-2,1.6v.4l2-1.2Zm2-2.39a.39.39,0,0,0-.4.4h.4l.4-.4Zm9.95-17.95h.8a1.23,1.23,0,0,0-.8-.4c0-.4-.4,0-.4,0Zm-2,6.38h.4c-.4,0-.4-.4-.8-.4C108.37,178.69,108.37,178.69,108.76,178.69Zm.4-12.37c.4-.4.8-.4.8-.8s-.8-.4-1.19-.8l-.4.4ZM104,163.54v.4c.4-.4.8-.4.8-.8A1.39,1.39,0,0,0,104,163.54Zm6-5.19c-.8.4-.8-.8-2-.4.4-.4.4-.8.4-1.6a.39.39,0,0,0-.4.4c0,.4-.4.8,0,1.2-.4,0-1.59.8-1.59,0-.4,0-.8.4-1.19.4a1.47,1.47,0,0,0-.4,1.2.39.39,0,0,0,.4.4c.8-.8,2-.8,2.79-2a1.45,1.45,0,0,0,2,.8h.4A.39.39,0,0,0,110,158.35Zm3.58-9.17-.4.4h1.19C113.94,149.18,113.94,149.18,113.54,149.18Zm-2.79,13.56-.4.4c0,.4,4,3.19,4.78,3.19,0,.4.4,0,.4-.4C115.93,165.13,111.15,163.14,110.75,162.74Zm4.78-17.15c-.4.8-.4.8-.4,1.2l.4.4a.39.39,0,0,1,.4-.4C115.93,146.39,115.93,146.39,115.53,145.59Zm2.79,17.55c-.4-.4-.4,0-.8.4s-.4,1.2-.8.4c0-.4-.4-.4-.8,0a.39.39,0,0,0,.4.4v1.2c0,.4-.4,1.2.4.8.4,0,1.19,0,1.19-.8,0-.4.4-.8.4-1.6C118.71,163.54,118.71,163.14,118.32,163.14Zm1.19-2.79-.4.4c0,.4,0,.4.4.4l.4-.4C119.91,160.35,119.91,160.35,119.51,160.35Zm6.37-13.16a.39.39,0,0,1,.4-.4c0-.4-.4-.4-.4-.8v.4C125.48,146.78,125.88,146.78,125.88,147.18Zm0-21.14a1.39,1.39,0,0,0-.4.8.39.39,0,0,0,.4.4c.4,0,.4-.4.8-.8C126.67,126.44,126.67,126,125.88,126Zm5.17,6.38v.4c0,.8.4,1.2,1.19,1.6l.8-.8C132.64,132.82,131.45,133.62,131.05,132.43Zm2.79,1.2c0,.4-.4.8.4.8q.6,0,1.19-1.2c0-.4,0-.8-.8-.8C134.24,132.43,134.24,133.22,133.84,133.62Zm2-5.58a1.39,1.39,0,0,0-.8.4v.4c.4,0,.4,0,.8-.4Zm0,2.39v.4c.4,0,.4-.4.8-.8,0-.4,0-.4-.4-.8C136.23,129.63,135.83,130,135.83,130.43Zm1.19-4.79a.39.39,0,0,0-.4.4v.4c.4-.4.4-.4.8-.4Zm6.37-8.78-.4.4v.8l.4-.4Zm.8-6.78-.4.4c0,.4,0,.4.4.4h.4C144.58,110.49,144.58,110.49,144.19,110.09Zm7.56-16.35h.4a.39.39,0,0,0,.4-.4C152.15,93.34,152.15,93.34,151.75,93.73Zm4.78-5.58c-.8,0-.4.8-.8,1.2-.4.8,0,1.2.8,1.2a.86.86,0,0,0,.8-.8C157.72,88.95,156.92,88.55,156.52,88.15Zm6-12c-.4,0-.4.4-.4.8v.8l.8-1.2C162.89,76.18,162.89,75.79,162.49,76.18Zm1.59-4.39-.4.4c0,.4,0,.4.4.4Zm2.39-5.58c0-.4-.8,0-.8,0-.4.8.4.4.8.8.4,0,.4,0,0,.4-.8.4-1.19.4-1.19,1.2a1.23,1.23,0,0,0,.8.4c.4-.4,1.59-.8,1.19-1.6C168.46,65.81,166.87,66.61,166.47,66.21Zm3.58-10.37c-.4,0-.4.4-.8.4l.4.4.4-.4ZM47.87,64.62c.4-.4.8-.8.8-.4a3.41,3.41,0,0,1,0,2.79c-.8.8-1.19,0-1.59,0C47.87,66.21,49.07,65.41,47.87,64.62Zm89.55,66.61.4.4c-.8.8-.8.4-1.19,0C137,131.63,137,130.83,137.42,131.23ZM57,55c0,.4-.8.4-1.19.4a1.39,1.39,0,0,1,.4-.8C56.63,54.65,57.42,54.25,57,55ZM38.72,75.79c0,.4-.4.4-.4.8s-.4,1.2-.8,0v-.4h-.4l.4-.4ZM80.9,43.08c-.8-.4-.4-.8,0-1.6a2.4,2.4,0,0,1,.4,1.6Zm-.8,2.79H78.91c-.4-.4.4-1.2.4-1.6C79.71,44.67,80.51,45.07,80.11,45.87ZM108,154.36h-.4c-.4-.8,0-1.2.4-1.6C108,153.17,108.37,154,108,154.36ZM121.9,128l.8-1.2v.4c0,.4-.4.8-1.19,2ZM111.95,146v-.4a1.39,1.39,0,0,1,.8-.4l.4.4C112.74,145.59,112.35,146,111.95,146ZM83.29,119.26a.39.39,0,0,1,.4-.4c.4,0,.4.4.8.8l-.8.8C83.69,120.06,83.29,119.66,83.29,119.26Zm.4-12.37c-.4,0-.4,0-.4-.4h.8l.4.4-.4.4A.39.39,0,0,1,83.69,106.9Zm0-26.33c.4,0,.4-.4.8-.4-.4.4-.4.4-.4.8ZM82.89,132l.4.4v.8l-.8-.8A.39.39,0,0,0,82.89,132Zm1.19-4.39-.8.8v-1.2l.8-.8Zm0-6h-.4c-.4.4-.8.4-.8,0s.4-.4.8-.4A.39.39,0,0,1,84.09,121.66Zm-.8-7.18c-.4.4-.4-.4-.4-.8,0,0,0-.4.8-.4,0,.4.4.4.4.8S83.69,114.48,83.29,114.48Zm.4-6c.4,0,.4,0,.4.8-.4,0-.4.8-.8.8s0-.8,0-1.2C83.29,108.89,82.89,108.49,83.69,108.49ZM81.7,87c0,.4,0,1.2-.4.8a3,3,0,0,1-.4-2h.4C81.3,86.16,82.89,85.76,81.7,87Zm.4-7.18c.4-.4.4,0,.8,0l-1.59,1.6c-.4.4-.4,0-.4-.4C81.3,80.57,81.7,79.77,82.1,79.77ZM80.51,64.22a.39.39,0,0,0,.4-.4,1.39,1.39,0,0,0,.4.8.39.39,0,0,1-.4.4A1.39,1.39,0,0,1,80.51,64.22ZM81.3,71a1.39,1.39,0,0,1,.8-.4V71c-.4.4-.4.4-.8.4Zm1.59,2.79-1.34-.34c.84,0,2.17-1.18,2.53-.46C84.09,73.79,83.29,73.39,82.89,73.79ZM81.3,73v.4l-.4-.4Zm.25.46a.64.64,0,0,1-.25-.06Zm1.34-13.23h.4c0,.4,0,.4-.4.4ZM82.5,65l.4-.4a.39.39,0,0,1,.4.4Zm.4-6.38v-.8a.39.39,0,0,1,.4-.4c.4,0,0,.4,0,.4C83.29,58.24,83.29,58.24,82.89,58.63Zm-2-11.57c-.4,0-.8,0-.8-.4l.8-.4c.4.4.4.4.8.4A1.23,1.23,0,0,1,80.9,47.07Zm.4-1.6v-.4a.39.39,0,0,1,.4-.4v.4C81.7,45.47,81.7,45.47,81.3,45.47ZM78.52,31.91c-.4,0-.8-.4-.4-.4,0-.4.4-.4.4-.8,0,.4.4.4.4.8A.39.39,0,0,1,78.52,31.91ZM33.15,67.41c-.4,0,0-.4,0-.8a4,4,0,0,1,1.59-2c.4,0,0,.4,0,.4C33.94,65.81,34.34,67,33.15,67.41Zm-.4,3.19c-.4,0-.8-.4-.4-.8,0-.4.4-.4.4-.8.4,0,.4.8.4.8C33.15,70.2,33.15,70.6,32.75,70.6Zm-1.19,6,.4-.4c.4.4.8.4,1.59.4-.4.4-.8.4-.8.8C32.35,76.58,31.55,77.38,31.55,76.58Zm1.19,5.19c-.4.4.4,2-1.59,1.6-.8,0,.8-1.2-.4-1.6-.4,0-.4-1.2-.8.4-.37,1.11-1.08,1.19-1.5.55.56,1-.92,1.08-1.68,1.84l-1.19,1.6V85a3.27,3.27,0,0,1,2-2c.4,0,.4-.4.8-.4,0-1.2-1.19-2.79,1.59-3.59.4,0,0-.4,0-.8a1.24,1.24,0,0,1,.4-.8.39.39,0,0,0,.4.4c0,.8.8.8,1.19,1.2C32.75,79.77,34.74,79.38,32.75,81.77Zm-3.18-8.38-.4-.4a.39.39,0,0,0,.4-.4.39.39,0,0,1,.4.4A.39.39,0,0,0,29.56,73.39Zm-2,3.19c0-.4.4-.4.4-.8a.39.39,0,0,1,.4.4A1.39,1.39,0,0,1,27.57,76.58Zm-.8,8.78.8-.8v.8a.4.4,0,1,1-.8,0ZM.11,128.84v-.4h.4A.39.39,0,0,1,.11,128.84ZM29.17,88.55v2a3,3,0,0,0-1.59.4h-.4c1.59.8-1.59,1.2-.8,2.39S26,96.93,24,98.12c-1.19.4-.4,2-1.19,3.19-.4.8-.4,2-1.19,2.39-.4-.4-.4-.8-.8-.4a.39.39,0,0,0-.4.4c.4.4.8,0,1.19,0,0,.8-.8,1.2-1.19,1.6-.4,0-.8,0-.8.4-.4.4-.4.8,0,.8,1.59,1.2-.4,2.79-.4,4,0,.4-.8.8-.4.8.4.4.4,1.6,1.19.4h.4c.8.8-.8,1.6-.4,2.39l-.4.4c-1.19-.4-2.79.4-3.58-.4-.4,0-1.19,0-1.19.4a1.81,1.81,0,0,0,0,2,1.67,1.67,0,0,1-.8,2.39c-.4.4-1.19.4-.8.4,1.19,1.2-2,3.59.4,4,2,.4,1.59,1.2.4,2.79-.4.4-1.19,1.2-.4,1.6.4.4,1.19-.4,1.59-.8,1.59-.8,2-2,2.79-3.19h.4v.4a10.44,10.44,0,0,0-1.19,3.19c-.4.8-.8,2.79-2,1.2h-.4c0,.4-.4.8,0,1.2.4.8,1.19,1.2.4,2.39l.4.4c.8,0,.8.4.4,1.2-1.19.8,1.19,2-.8,2.39-2,.8-4.38,1.2-6.37,0-.8,0-2.39.4-1.59-1.6h-.8c-2.39,1.6-4,0-5.57-.8-1.59-.4-.4-2.39,0-3.59a6.75,6.75,0,0,0,.8-2c1.19-2-.8-1.2-1.19-1.6,0,0-.8.4-.4-.4l1.59-3.19c.4-.4.8.4.8.4H5.68a4,4,0,0,0,.4-1.2c0-.4-.4-.4-.8,0-2,.4-1.19-.4-1.59-1.2,0-1.6,1.19-2,1.19-3.19a1.58,1.58,0,0,1,2-2c.8,0,1.19-.4,1.19-.8,0-.8-.8,0-.8,0-.4,0-.8,0-.8-.4l-.4.4c-.4-.8-1.19-1.6,0-2.39.8-.8,2-2,3.58-1.6h.4c0-2.39,2-.8,2.79-1.6.4-.4.8-1.2.4-1.2-1.59-.8.4-2.79-1.19-3.59a1.39,1.39,0,0,0,.4-.8,3.86,3.86,0,0,0,3.58-.4c0,.8.8.4,1.19,0,.4,0,.4-.8.4-.8-.8-.4-1.19.8-1.59.8-.4-1.2-.8-2.39-2.39-2.79a3.54,3.54,0,0,1,3.18-2c.4,0,1.59.8,1.19-1.2,0-.8,1.59-2.39,2-4,.4-2,2-1.2,3.18-1.6-.4-1.6.8-2,2-3.19C28,85.76,27.57,89.35,29.17,88.55Zm-17.11,36.3c.4,0,.8,0,.8-.8l-.4-.4a.86.86,0,0,0-.8.8C11.65,124.85,11.65,124.85,12.05,124.85ZM8.87,124a.39.39,0,0,0,.4.4h.4c0-.4-.4-.4-.8-.8Zm-1.59-2.39c0,.8.8.4,1.19.8.4-.8.8.4.8-.4.4,0-.4-.4-.8-.8C8.07,121.26,7.67,121.66,7.28,121.66Zm2.79-7.18c-2-.4-1.19,1.2-1.59,1.6s-.4,1.2,0,1.2a10.57,10.57,0,0,1,2-2.39C10.86,114.48,10.06,114.48,10.06,114.48Zm.4,1.6a2.07,2.07,0,0,0-.8,1.6c-.4,0,0,0,0,.4l1.19-1.2A1.39,1.39,0,0,0,10.46,116.07Zm2-4.79h-.4c-.4-.4.4-1.2-.8-1.2a3,3,0,0,0-.4,2c0,.8.4.8.8.8.8-.4,1.19,0,1.59-.8S13.25,111.29,12.45,111.29Zm2.39-5.19a.86.86,0,0,0-.8.8c-.4.4-.4.8.4.8.4,0,.8.4.8-.4A.76.76,0,0,0,14.84,106.1Zm1.59-6a.86.86,0,0,0-.8.8l.8.8c.4,0,.4-.4.4-.8C17.23,100.52,16.83,100.12,16.43,100.12Zm0,9.17H16c.8.8,0,2.39.8,3.19l.4-.4C16.43,111.29,18,109.69,16.43,109.29Zm2-4.39c-.4.8-1.19,1.2-1.59,1.6v1.6a8.34,8.34,0,0,0,1.59-2.39Zm4-11.17a.86.86,0,0,0-.8.8c-.4.4-.4.8,0,.4a4,4,0,0,0,1.19-.4C23.2,94.13,22.8,93.73,22.4,93.73Zm3.18-4c-1.19,0-1.19,1.2-2,2,1.19-.4,2,0,2.39-1.2C26.38,89.75,26,89.75,25.58,89.75Zm4.38.4v.8c-.4-.4-.4-.4-.8-.4C29.56,90.15,30,89.75,30,90.15ZM22,105.7c0,1.2-1.59.4-2.39.8l.8-1.2C20.81,105.3,22.4,104.9,22,105.7ZM4.89,115.27v-.4H6.08A1.46,1.46,0,0,1,4.89,115.27Zm7.56-12.37h1.19l-1.19.8C12.05,103.31,11.65,103.31,12.45,102.91Zm1.19-.8c-.4,0-.8,0-.8-.4s0-1.2.8-1.2C13.25,101.31,14,101.71,13.64,102.11ZM22,88.95c-.4-.4-.4-.8-.8-.8.4,0,.4-.4.8-.4,0,.4.4.4.4.8A.39.39,0,0,1,22,88.95Zm-5.17,8c-.4,0-.8-.4-1.19-.8a17.21,17.21,0,0,0,2-.4c.8-.4.4,0,.4.4C17.62,96.53,17.62,97.32,16.83,96.93ZM9.27,108.49c-.4,0-.8,0-.4-.4l1.59-1.2v.8C10.06,108.09,9.66,108.49,9.27,108.49Zm5.57,14.76c0-1.2-1.59-1.2-.8-2,.8-1.2.8-2.79,2.79-3.19,1.19,0,1.19.4.8,1.2s-1.59,2-1.19,3.19ZM18,116.47c0-.4.4-.4.8-.4l.4.4c0,.4-.4.4-.8.4S17.62,116.87,18,116.47Zm5.17-9.17c.8,0,2-.4.4.8-.8.4-2,1.6-1.59,2.39.4.4-.4.8-.4.4a1.46,1.46,0,0,1-.8-2C21.21,108.09,21.6,106.1,23.2,107.3Zm-.4,8.38c-.4.4-.8.8-.8,1.2v-1.2l.4-.8C22.8,114.88,22.8,115.27,22.8,115.67Zm.4-11.57c-.4,0-.4,0-.4-.4.4-.4.8-1.2,1.59-1.6.4,0,.4.8.8,1.2C24.39,103.71,23.59,103.71,23.2,104.11Zm3.58-6.78c.8,0,.4.4.4.8-.8.4-.4,1.6-1.59,1.6a1.24,1.24,0,0,0-.4-.8C26.38,98.92,26,97.32,26.78,97.32Zm1.59-3.19v-.4c.8-.4.4-2,.8-1.6,1.19.4,0,1.6-.4,2.79-.4,0-.8.8-1.19.4C27.18,94.53,28,94.13,28.37,94.13Zm1.19,1.6a.39.39,0,0,1-.4.4c-.8,0-.4-.8-.4-1.2C29.56,94.93,30,94.93,29.56,95.73Zm2-7.18c.4.4,1.19,0,.8,1.2,0,.4,0,.8-.8.4-.8,0-.8-.4-.8-.8A.86.86,0,0,1,31.55,88.55Zm.8,7.18c0-.4,0-.4.4-.8,0,.4,0,.4.4.4l-.8.8C32.35,95.73,32,95.73,32.35,95.73Zm-.8-9.57c.8,0,1.19-.4,2-.8-.4.4-.8,1.2.4,1.2l-.4.4C32.75,87,32,87,31.55,86.16Zm-2.79.4.8-.8a1.58,1.58,0,0,1,2,.4c-.4,0-1.19.4-1.59.4Zm.4-2.79h.4c.4.4,0,1.2,0,1.6C29.17,85,28.77,84.56,29.17,83.76Zm.8,1.6-.4.4v-.4ZM35.14,77a1.23,1.23,0,0,1-.8.4c-.4,0-.4-.4-.4-.8C34.34,76.58,34.74,77,35.14,77Zm1.59,5.58c-.4.4-.8.8-1.19.8a.39.39,0,0,1-.4-.4l1.19-.8A.39.39,0,0,0,36.73,82.57Zm-.4,4.79h.4l-.8.8v-.4A.39.39,0,0,1,36.33,87.35ZM47.08,68.21l-1.59,1.2-.4-.4C45.48,68.21,46.28,68.61,47.08,68.21Zm4.78-6.78c.4,0,0,.4,0,.8-.4.4-.4.8-1.19.8l-1.19-.8A5.65,5.65,0,0,0,51.85,61.43Zm.8-1.2a3,3,0,0,1,.4-1.6v1.2c.4.4,0,.8-.4.8S52.25,60.23,52.65,60.23Zm11.14-8v-.4h.8A1.23,1.23,0,0,1,63.79,52.25ZM98,197c0,.4-.4.4-.4.8h-.4C97.22,197,97.62,197,98,197Zm1.59-.8c-.4.4-.8,1.6-1.59.8C98.81,196.24,98.81,195.85,99.61,196.24Zm.4-1.2h.8c.4.8-.4.8-.8,1.2C100.41,195.85,99.61,195.45,100,195Zm6.37-10.37a.4.4,0,0,1,0,.8l-.4-.4C106,184.68,106,184.68,106.38,184.68Zm1.59-.8a1.39,1.39,0,0,0-.4.8.39.39,0,0,0-.4-.4c0-.4.4-.4.8-1.2Zm1.19,1.6v.4c0,.8-.4.8-1.19,1.2a.39.39,0,0,0-.4-.4C108.37,186.27,108.76,186.27,109.16,185.48Zm7.56-10.77-1.59,1.2v-.4A3,3,0,0,1,116.72,174.71Zm2-5.19h.4c-.8.8.4,2-1.19,2-.8.4-.4-.4-.4-.8C117.92,170.32,117.92,169.52,118.71,169.52Zm15.52-32.31c.4,0,.4.4.4.8-.4,0-.4.8-.8.8s-.4-.4-.4-.8S133.84,137.61,134.24,137.21Zm3.18-4.39v.4c-.4.4,0,.8-.8.8v-.4A.86.86,0,0,1,137.42,132.82Zm2.39-5.19h-1.19a.39.39,0,0,1-.4-.4h.4C139,127.24,139,127.24,139.81,127.64Zm.8-1.6v.4a1.39,1.39,0,0,1-.4.8.39.39,0,0,1-.4-.4C140.21,126.84,140.21,126.44,140.6,126Zm13.93-31.11c.4,0,.4.4.4.8s-.4.4-.8.8c0-.4-.4-.8-.4-1.2A1.39,1.39,0,0,1,154.53,94.93ZM168.86,69.8c.4,0,.4,0,.4.4l-1.19,1.2s-.4,0,0-.4C168.07,70.6,168.07,69.8,168.86,69.8Zm8.36-19.54h.4c-.4.4-.4.8-.8.8v-.4A.39.39,0,0,1,177.22,50.26ZM180,41.88a.39.39,0,0,1-.4-.4h.8A.39.39,0,0,0,180,41.88Zm1.19-5.58c0-.4,0-.4.4-.8v.8a1.24,1.24,0,0,1-.4.8Zm-.4,2.39a.39.39,0,0,0,.4.4.4.4,0,1,1-.8,0A.39.39,0,0,0,180.8,38.69Zm2.39-3.19c.8.8-.4,1.6,0,2.39,0,.4,0,.8-.8,1.2a7.8,7.8,0,0,0,.4-2.79C182.79,35.9,182.79,35.9,183.19,35.5Zm-.4-2.79c0-.4.4-.8.4-1.2a6.75,6.75,0,0,1,.8,2c0,.4-.4.4-.8.4S182,33.9,182.79,32.71Zm26.78,115.37c-.4.4-.8,0-1.59,0a2,2,0,0,1-1.19-.4h2C209.17,147.68,209.17,147.68,209.57,148.08ZM313.5,124.56v-.4h1.19C313.89,124.56,313.89,124.56,313.5,124.56Zm92.24,55.89a5.65,5.65,0,0,1,2.39-.8c.4-.4.8-.8.8,0,.4.4-.4.8-.8.8-.8.4-1.59.4-2,.8-.4,0-.4-.4-.8-.4A.39.39,0,0,0,405.73,180.44Zm9.95-39.07a.39.39,0,0,0,.4-.4c0,.4,0,.4.4.4l-.4.4C415.68,141.77,415.68,141.77,415.68,141.37Zm1.59-2.39c0-.4,0-.4.4-.8v.4c0,.4-.4.4-.8,1.2C416.87,139.38,416.87,139,417.27,139Zm11.14-37.08c-.4.4-.4.8-.8.8-.4.4-.4,0,0-.4,0-.4,0-.4.4-.8A.39.39,0,0,0,428.41,101.91Zm-.4-2c-.4,0-.4.4-.8.4v-.4l.4-.4A.39.39,0,0,0,428,99.91Zm-.4,6.38v-.4l.4.4Zm-.8,0-.4-.4c.4-.8.4-1.59,1.19-2,.4-.4.4.4,0,.8A3,3,0,0,1,426.82,106.29Zm-11.54,37.87a59,59,0,0,0,5.17-8.37l4-6c.4-1.59,2.39-2.39,2.78-4.39a4,4,0,0,1,1.19-.4c.4,0,0,.8,0,.8-3.58,4.78-6,10-9.15,14.75l-3.18,5.18c0,.4-.4,1.2-.8,1.2-.8-.4-.4-.8-.4-1.59C414.88,145,415.28,144.56,415.28,144.16Z" style="fill:#ccc;fill-rule:evenodd"/></svg>