<svg xmlns="http://www.w3.org/2000/svg" viewBox="0 0 600 285"><title>logo-3</title><path d="M599.82,164.53c-4.48,7.18-7.22,14.78-11.13,21.92l-3.87,7.7c0,.56-.42,1.73-1,1.78-1.18-.46-.66-1.07-.76-2.2,0-.56.46-1.17.42-1.73,2.52-3.62,4.38-8.31,6.29-12.44l4.89-8.92c.37-2.3,3.08-3.67,3.4-6.52a5.71,5.71,0,0,1,1.64-.71C600.28,163.36,599.82,164.53,599.82,164.53Zm-1.81-40c0-.56,0-.56.46-1.17l0,.56c0,.56-.51.61-.46,1.17Zm-51.7,12.43.1,1.12c-.46,1.17-1.13.1-1.69.15C545.23,137.59,545.19,137,546.31,136.93Zm-3.5,5.4c-.56,0-1.13.1-.46,1.17.1,1.12-1,1.78-1.49,2.39a2.08,2.08,0,0,1-1.74-.41l-.1-1.12c2.11-1.88,3-4.79,5.7-6.16C545.48,140.4,543.84,141.1,542.81,142.33Zm-26,52.66a5.64,5.64,0,0,1,2.62-2.49A5.64,5.64,0,0,1,516.78,195Zm.65-11.95c0,.56,0,.56-.51.61,0-.56,0-.56.46-1.17Zm20.65-36.34a2.08,2.08,0,0,1,1.74.41c-.56,0-.46,1.17-1,1.22-1,1.78-1.3,4.64-2.84,6.48-1,1.22-1.44,3-3.75,2.59-.61-.51-1.13.1-1.59,1.27-3,4.79-5.36,10.09-8.91,14.93-1.08.66-1.59,1.27-2.72,1.37-.1-1.12.88-2.91,2.89-5.91l9.05-13.25c1.49-2.39,3.6-4.28,5-7.23.51-.61.56,0,1.13-.1s1.13-.1.51-.61C537.57,147.31,537.53,146.75,538.09,146.7Zm-16.37,26.91c0,.56,0,.56-.46,1.17l-2.94,5.35a.55.55,0,0,0-.51.61,3.39,3.39,0,0,1-.76-2.2c1-1.22.88-2.91,2-3.57C518.59,176.71,520.23,176,521.72,173.61ZM559.8,129l-.61-.51,1.13-.1,0,.56Zm-4.63,37.77,0-.56c0-.56.46-1.17,1-1.78l.1,1.12C555.64,165.55,555.69,166.12,555.17,166.73Zm6.34-44.15L554.22,130l-.61-.51,2.62-2.49S561,122.63,561.51,122.58Zm-7.37,45.37a2,2,0,0,0-1.08.66c0-.56,0-.56.51-.61Zm-2-36.06.51-.61.56,0a.55.55,0,0,0-.51.61Zm14.42-10.32A.55.55,0,0,1,567,121c.56,0,.61.51,0,.56Zm17.86,16,1-1.22.56,0c-.46,1.17-1,1.22-1,1.78A.55.55,0,0,1,584.4,137.57Zm1.51-8.62a.55.55,0,0,1,.61.51l-1,1.78c-.56,0,0-.56-.1-1.12C585.45,130.12,585.35,129,585.91,128.94Zm5.79,14.22,2-3.57.56,0,0,.56a15,15,0,0,1-2.52,3.62Zm4.58-6.06,0-.56.61.51Zm-1.3-8.38,0-.56.51-.61a.55.55,0,0,0,.61.51C595.49,128.11,595.54,128.67,595,128.72Zm1.89,2.1c-.51.61-.46,1.17-1,1.22-.51.61-.56,0,0-.56,0-.56,0-.56.46-1.17A.55.55,0,0,0,596.86,130.82Zm-1.71,6.38-.61-.51c.46-1.17.37-2.3,1.44-3,.51-.61.61.51.1,1.12A4.27,4.27,0,0,1,595.15,137.2Zm-9,46.08,0,.56c0,.56-.51.61-1,1.78,0-.56-.1-1.12.46-1.17C585.63,183.89,585.63,183.89,586.14,183.28Zm-1.3,4.64-.51.61c-.56,0-.56,0-.61-.51a.55.55,0,0,0,.51-.61C584.28,188,584.28,188,584.84,187.92Zm-29.93-4.75a.55.55,0,0,0-.51.61l-.61-.51a2,2,0,0,0,.46-1.17A1.74,1.74,0,0,1,554.91,183.17ZM297.47,160.85q0-.57,0-1.15a.64.64,0,0,1,.56-.63q0,.57,0,1.15A.65.65,0,0,0,297.47,160.85Zm299.9-43.66c-1.84-1.54-1.08.66-1.08.66-.46,1.17.15,1.69.2,2.25.25,2.81.44,5.06-2.17,7.55-1.59,1.27-1.44,3-1.91,4.13,0,.56.15,1.69-.42,1.73s-.66-1.07-.71-1.64c0,0,.46-1.17-.1-1.12s-1.13.1-1.08.66c-.56,0,0,.56.1,1.12.71,1.64-.32,2.86-.17,4.54l-.88,2.91a.55.55,0,0,0,.51-.61c.51-.61,1-1.22.37-2.3.56,0,1.18.46.71,1.64s-.32,2.86-2,3.57c-.56,0-.61-.51,0-.56-.1-1.12-.15-1.69-.71-1.64s0,.56.1,1.12c-.51.61-.51.61-1.08.66s-.61-.51-.1-1.12l1.76-5.82c.37-2.3,1.3-4.64,1-7.45-.66-1.07,1.49-2.39.78-4-.1-1.12.37-2.3.27-3.42a5.68,5.68,0,0,0-.71-1.64c-1.13.1-.46,1.17-.46,1.17-.56,0-.51.61-1.08.66,0-.56-.61-.51-.66-1.07-1.15-6.69-5.2-7.47-11.1-3.56L572,118.84c-1.84-1.54.37-2.3.88-2.91,1.54-1.83,3.18-2.54,4.21-3.76a2,2,0,0,0,1.08-.66l-1.13.1c-3.33.86-6,2.79-8.67,4.72-.56,0-1.08.66-1.64.71l-.51.61c-.66-1.07-1.27-1.59.93-2.35a.55.55,0,0,0,.51-.61c-.61-.51-.15-1.69-1.27-1.59a1.8,1.8,0,0,0-1.54,1.83A23.34,23.34,0,0,0,559,119.4c-3.6,4.28-6.58,9.07-11.41,12.32-.56,0-.46,1.17-1,1.78-1.54,1.83-3.65,3.71-5.14,6.11-1.59,1.27-2.52,3.62-4.11,4.89-6.27,6.21-9.57,13.86-14,21-3.5,5.4-7,10.8-9.32,16.67-.88,2.91-2.22,7,.27,9.6.66,1.07-.46,1.17-.42,1.73-.32,2.86,1.27,1.59,2.4,1.49a.55.55,0,0,1-.51.61c0,.56-1,1.22-.41,1.73s1.13-.1,1.69-.15a163.68,163.68,0,0,0,15.4-12.1c.51-.61,2.11-1.88,2.15-1.32.66,1.07-1,1.22-1.54,1.83a106.31,106.31,0,0,1-12.17,10.12c-.51.61-1,1.22-1.59,1.27a2.08,2.08,0,0,0,1.64-.71A2.94,2.94,0,0,0,523,195a5.14,5.14,0,0,1,3.8-2,5.76,5.76,0,0,0,4.26-3.2c1.49-2.39.93-2.35,3.6-4.28.51-.61,1-1.22,2.2-.76l.56,0c2.06-2.44,5.39-3.3,6.83-6.26l4.21-3.76c.51-.61.51-.61,1.08-.66,0,.56,0,.56-.46,1.17s-1.59,1.27-1.54,1.83c-.51.61-1.08.66-1,1.22.56,0,1.08-.66,1.64-.71l3-4.23c2.1-1.88,5.39-3.3,6.88-5.7l4.67-4.94,1.13-.1a.55.55,0,0,0-.51.61,169.1,169.1,0,0,1-16.55,18.43l-8.89,8.7c0,.56-.51.61.1,1.12l0,.56c1.13-.1.51-.61.46-1.17a4.27,4.27,0,0,0,3.75-2.59c.71,1.64,1.69-.15,2.2-.76A112.92,112.92,0,0,0,556,175.72c1-1.22,1.39-3.52,3-4.79l.51-.61c4.26-3.2,7.2-8.55,11.41-12.32,1-1.22,1.39-3.52,3.6-4.28.51-.61,1.59-1.27,1.69-.15,0,.56.1,1.12.61.51,2.77-.81,4.92-2.13,6.76-.59,1.18.46,2.82-.25,3.43.27,1.32,2.15,7.52,1.61,7.67,3.29a16.21,16.21,0,0,1-2.71,14.39c-1,1.78-3.18,2.54-3,4.79a6.8,6.8,0,0,0-2.57,3.05c-3.24,7.51-7,15.06-9.22,22.48.19-.23.55-.39.9-.8l-1.44,3,0-.56a10.43,10.43,0,0,0-.78,4,80.34,80.34,0,0,0-3.42,12.75c0,.56-1,1.78-.32,2.86.71,1.64-1.34,4.08-1.25,5.2,1.47,3.83.18,8.48,3.24,11,1.89,2.1,3.48.83,5.68.07.56,0,.51-.61,1.08-.66l-1,1.22c-.56,0-1.08.66-1.59,1.27l2.25-.2c-3.28,1.42-6.56,2.84-9.53,1.4-.61-.51-4.56-.17-4.56-.17-.51.61.1,1.12.66,1.07a2,2,0,0,0,1.18.46l-1.69.15a7.6,7.6,0,0,1-4.24-3c-.46,1.17-.37,2.3-.93,2.35-.51.61-1.18-.46-1.79-1a11.35,11.35,0,0,1-2.23-6l0-.56c-.56,0-.56,0-.51.61a1.75,1.75,0,0,1-.46,1.17l-.79-9c0-.56,0-.56-.61-.51l0,.56a1.5,1.5,0,0,1-1.54,1.83c0-.56,0,0-.56,0l1-1.78c1.44-3,.68-5.16.49-7.4a47.66,47.66,0,0,1,1.41-9.75c1.22-12,5.86-23.72,9.95-35.4l4.23-10-.15-1.69c-.51.61-.51.61-1.08.66-2.06,2.44-2.37,5.3-4.48,7.18-11.09,9.46-20.9,20.51-33.22,28.94-1.54,1.83-3.65,3.71-6.51,3.4-.56,0-1.59,1.27-2.67,1.93-1,1.78-3.28,1.42-4.92,2.13-.56,0-1.18-.46-2.2.76,0,.56-.61-.51-.61-.51-.61-.51-.1-1.12.46-1.17,0,0,1.18.46,1.08-.66,0,0-1.74-.41-1.69.15-1.59,1.27-3.33.86-4.46,1-3.94.34-7-1.66-9.46-4.27-5.1-6.35-5.74-13.65-4.13-21.15,1.66-6.94,3.93-13.36,7.95-19.38,3-4.23,4.89-8.92,7.36-13.1,1.8-2.77,3.74-5.56,5.76-8.35a53.6,53.6,0,0,1-32.59-1.53c-5.81-2.14-9.91-5.21-14-8.28-1-1.17-2.66-.78-3.84.21A66.09,66.09,0,0,0,447.64,148c-.59.49-1.22,1.52-2.26.89a4.13,4.13,0,0,0-2.26.89c-4.9,6.09-9.61,10-15,16.08-5.49,6.59-12.06,13.08-18,19.08-3,3-5.44,6-8.38,8.51l-4.66,3.4c-3.44,1.87-2.59,4.66-4.4,6.68,0-.54-.49-.59-1-.63l0,.54,1.08.09c-4.17,4-7.84,8.55-12.5,12a22.76,22.76,0,0,1-5.6,1.68,40.59,40.59,0,0,0-6.83,3.21s-1.18,1-1.13.44c-.45-1.13.59-.49,1.18-1s.59-.49.68-1.57c-.54,0-.45-1.13-1-.63-3.48,2.41-3.74-.87-5.37-1-1-.63-1.39-2.84-3.06-2.44a.75.75,0,0,1,.09-1.08c2.94-2.46.43-4.85,1.16-7,1.16-7,5-13.69,8.34-20.47A279.6,279.6,0,0,0,380.67,159a22.87,22.87,0,0,1,1.58-3.86l-.13.12A154.63,154.63,0,0,0,370.69,167q-2.74,2-5.44,3.9c-3.41,2.94-6,4.66-8.16,8.44-.7,1-6.41,5.24-11.82,8.46s-10.6,5.63-11.2,5.05c-1.2.23-2.95,5.51-4.65,6.45-3.46,1.2-7.37,3.71-10.6,6a60.46,60.46,0,0,1-13.75,6.49c-1.08,0-3.85-.55-3.78.07-.71,3.11-2.92,2.48-4.08,1.89a20.77,20.77,0,0,0-8.58,0,11.14,11.14,0,0,1-7.09,0c-2.21-.65-4.3-1.65-6.46-2.21a13.51,13.51,0,0,1-11.23-8.45c-.57-2.83-2.54-5.05-3.48-7.28a13.38,13.38,0,0,1-.6-3.76q0-.54,0-1.11t0-1.17c0-.8.1-1.64.19-2.51a86.93,86.93,0,0,1,2.14-11.45,133.3,133.3,0,0,1,7.23-21.33c3-5.89,7.13-11.29,11.51-17.22,1.08-1.2,3.16-1.34,4.27-2.54,3.26-2.46,6.43-2.12,9.75-4l5.52-2.07.55,0c1,2.12,2.63,2,4.9.68.55,0,1.67-.15.5,1-1.19,1.75,1.59,1.48.37,3.78-.61,1.15-.71,3.36-1.34,5.08a.74.74,0,0,0,0,1.11.65.65,0,0,1,.58-.62c1.8-3,1.39-6.19,2.63-9,.58-.6.05-1.09.61-1.14a1.57,1.57,0,0,1,.51,1c-.87,7.1-4.59,14.72-9.25,22.62l-.55.06c.05-1.71,1.21-3.53,2.39-5.34q0-.56,0-1.13c-.53-.5-.55.06-1.13.69L300,149.78c-1.08-.45,0-1.13.06-1.7l0-.56c0,.56-.57.62-.59,1.19C296.39,154.07,287,171,285.16,177c-1,4.71-2.79,13-2.5,17.6.14,2.33.1,1.75,1.7,2.27-4.57.18,4.14,10,12.79,6.59,4.15-2,8.53-2.29,12.9-3.93,6.78-2.83,17.83-9.23,30.14-18.4a433.83,433.83,0,0,0,34-28.41c5.56-4.87,11.26-10.4,16.85-16.27A115.38,115.38,0,0,1,396.84,124c2.64-5.2,3.16-11.14,6.88-16.25a5.55,5.55,0,0,1,3-3c1.13-.44,1,.63,1,1.17s-.09,1.08.45,1.13a.53.53,0,0,0,.59-.49c2.35-2,4.52-1.78,6-.56a40.56,40.56,0,0,0,6.16,4.34c.54,0,.49.59.4,1.66,0,0-1.27,2.06,1,1.17-.78,2.65.94,1.71,2.61,1.31,0,0-.09,1.08.45,1.13,0,.54-.09,1.08.45,1.13,1.18-1,1.08.09,1,1.17-.68,1.57-.28,3.24-3,3.54-1.08-.09-1.13.44-1.77,1.48a.53.53,0,0,0,.49.59,1.89,1.89,0,0,1,.64-1l.59-.49c-.68,1.57,1.53,1.22.85,2.79a4.07,4.07,0,0,1-3,3.54c-1.13.44-.45-1.13-.35-2.2,0,0,.64-1,.09-1.08a1.17,1.17,0,0,0-1.18,1,11.34,11.34,0,0,0-2.45,3c-4,8.34-7.42,16.2-12,24.5-.59.49-1.13.44-1.18,1-.49-.59.09-1.08.14-1.62.09-1.08.19-2.16-.35-2.2-1-.63-1.18,1-1.22,1.52a.53.53,0,0,0-.59.49c-4,1.83-3.63,4-3.32,6.77.49.59,0,.54-.59.49-1.53-1.22-1.67.4-2.31,1.43-.59.49,1.43,2.3-1.27,2.06.49.59.49.59,1,.63.45,1.13,1.08.09,1.67-.4A9,9,0,0,0,401,157c.14-1.62,1,1.17,1.62.14.59-.49.68-1.57,1.72-.94a5.45,5.45,0,0,0-.68,1.57c-2.64,5.2-5.82,10.36-8.5,16.1l-.09,1.08c.54,0,.59-.49,1.18-1,5.39-5.51,11.82-10.38,17.26-16.43,3.63-4,6.71-8.11,10.88-12.09,6.62-7,12.65-13.57,20.3-20,4.66-3.4,8.34-8,14-10.19,8.45-3.07,14.41-2.55,20,1.75,4.09,3.07,8.57,11.07,12.08,14.64,9.31,5.7,22.33,6.3,32,2.26h0c5.7-6.16,12.63-11.29,17.72-18,2.06-2.44,5.85-4.47,9-7l.56,0c1.59-1.27,3-4.23,3.38-.29,2.52-3.62,5.85-4.47,9.74-5.38l1.13-.1c2.06-2.44,5-1.57,7.27-1.2l6.91,1.1.56,0c-.41,1.73-.37,2.3,1.27,1.59,2.2-.76,3,1.44,4.7,1.85,4.14,1.9,8.28,3.81,11.44,7.49.61.51.76,2.2,1.42,3.27C598,117.7,597.42,117.75,597.37,117.19ZM576,241.91l.51-.61-1.69.15C575.4,242,575.4,242,576,241.91ZM534.86,194c1.69-.15,2.15-1.32,2.1-1.88l0-.56-2.67,1.93A.55.55,0,0,0,534.86,194Zm-8.93,8.14,1.08-.66c-.1-1.12-1.13.1-1.18-.46-.56,0-.61-.51-1.13.1A1.22,1.22,0,0,0,525.92,202.11Zm-7,4.57,1.59-1.27a.55.55,0,0,0-.61-.51c-.56,0-1.08.66-1.59,1.27C518.38,206.74,518.38,206.74,518.95,206.69Zm-221.36,5.83c-.54,0-.46.61-1,.62h1.61C297.67,213.13,297.59,212.52,297.59,212.52ZM405.53,149.2a11.33,11.33,0,0,0,2.45-3c2.45-3,.57-6.47,4.1-9.42,1.77-1.48-.21-3.82,2.64-5.2,0-.54.09-1.08-.49-.59-1.13.44-3.39,1.33-2.94,2.46.35,2.2-2,3.63-2.64,5.2-.73,2.11-2.54,4.13-2.19,6.33.45,1.13.94,1.71-1.32,2.6,0,0-.09,1.08-.64,1C404.45,149.11,405,149.15,405.53,149.2Zm165.41-29.14a.55.55,0,0,0-.61-.51c.46-1.17,1.08-.66,1.64-.71C571.46,119.45,571.5,120,570.94,120.06Zm-5.12-.12c-1.13.1-1.69.15-2.3-.36A.55.55,0,0,1,564,119c.46-1.17,1-1.78,2.15-1.32C566.29,118.77,566.34,119.33,565.82,119.94Zm-.91-3.88-.56,0a2,2,0,0,1,.46-1.17C564.86,115.49,565.43,115.44,564.91,116.05Zm23.65,62.48-.51.61a2.07,2.07,0,0,0,.42-1.73c.51-.61.51-.61.46-1.17C590.15,177.26,588.51,178,588.56,178.54ZM299.85,153.18c-.05,1.7-.08,2.85-1.21,4.11A6.1,6.1,0,0,1,299.85,153.18Zm38.83-63.25c.55.49,0,.5-.53,1-3.76,2-5.37,5.53-7.57,8.58l-5,6.22c-.54-.47-2.78,1.16-1.64-.92.56-.53-1.66.08-2.18-.92.56-.53,1.66-.58,2.23-1.62l-.55,0q-1.65.06-1.68,1.6c-3.34,1.69-4.92-.82-7.08-1.28-4.31-1.43-1.5-4.67-2-7.27a3.81,3.81,0,0,0-1-2.61c-1-3.13-1-5.77,2.76-7.87,1.07-1,2.69-2.09,3.74-4.18.79-1.57,1.72-2,2.66-1.9a11.79,11.79,0,0,1,2.7.86c1.07,0,2.16.53,3.22,0a6.76,6.76,0,0,1,2.91-1.6,4.33,4.33,0,0,1,.65-.09,4.18,4.18,0,0,1,.62,0,4.59,4.59,0,0,1,1.16.26,16,16,0,0,1,3.79,2.52c2.16,1.06,4.34,2.64,2.77,5.67C338.1,87.43,337.58,88.94,338.68,89.93ZM274,22.19l0-1.69c-.57,0,0-.56,0-.56a2.07,2.07,0,0,1,.59,1.68A.55.55,0,0,1,274,22.19ZM260.13,36.55c.56-.57,1.11-1.15,1.68-1.16s.57,0,.58.55c0,1.13-.55,1.14-1.11,1.15A2,2,0,0,1,260.13,36.55ZM112.27,155.38v-.56c-.58-.55,0-1.13.55-1.14a.55.55,0,0,1,.58.55C112.82,154.81,112.83,155.37,112.27,155.38Zm3.05,45.1c-.57,0-.58-.55-1.15-1.11.57,0,1.12-.58,1.13,0a2,2,0,0,0,1.14.54C115.89,200.47,115.33,201,115.32,200.48Zm.63,3.94a1.5,1.5,0,0,1-1.73-1.66c0-.56,1.11-1.15,1.68-1.16l1.17,2.24C117.09,204.4,116,205,116,204.42ZM270.61,21.13c0,.56,0,1.69-.54,1.7s-.59-1.12-.59-1.68l0-1.13c-.56.57-.55,1.14-1.11,1.15-2.79,2.31-2.75,4.56-3.83,7.4,0,1.13-1.66,2.29-2.78,2.87-1.69.59-1.67,1.72-2.21,2.86-1.65,2.85-1.06,4,1.78,4.48,0,0,.59,1.12,0,1.13A5.79,5.79,0,0,1,258,42.79a2.07,2.07,0,0,0,.54-1.7h-.57l0,1.69a4.64,4.64,0,0,0-2.78,2.87A108.67,108.67,0,0,1,249.31,65c-1.08,2.84-1.6,5.67-3.25,8.52,0,.56-.56.57-.55,1.14-.57,0-.58-.55-.6-1.68l0-1.13c-.57,0,0,.56-.55,1.14s-1.11,1.15-1.1,1.71c-.56.57-1.11,1.15-.55,1.14,4,1.06.64,4.5.11,6.21-2.68,8.51-5.94,16.47-9.18,25-1.09,2.28-1.05,4.53-3.85,6.27-2.24,1.17.06,3.39-1.61,5.11-1.11,1.15-2.21,2.86-4.49,2.34l1.65-2.85-1.13,0c-1.11,1.15-.53,2.27-.52,2.83-1.09,2.28,1.2,3.93.11,6.21,0,1.69.06,3.38-2.22,2.3-1.14-.54-1.69.59-2.81,1.18-.56.57,0-2.82-1.13,0-.55,1.14,1.16,1.67,2.86,1.64.56-.57,1.12-.58.57,0,0,.56-1.1,1.71-1.68,1.16-2.3-2.22-3.36,1.75-4.48,2.9-3.36,1.75.07,3.95-1.58,6.8l1.13,0c1.12-.58,1.09-2.28,1.65-2.85s-1.15-1.11.54-1.7l1.13,0c0,1.13.6,1.68-.52,2.83-1.1,1.71-1.07,3.4-1.61,5.11-1.09,2.28-1.05,4.53-2.72,6.26l-1.09,2.28c-.56.57,0,1.13-1.1,1.71,0-.56.55-1.14.54-1.7s-.58-.55-.59-1.12l0,1.13-1.09,2.28-1.13,0a3.38,3.38,0,0,1,.53-2.27,10.82,10.82,0,0,0,2.14-6.81l.58.55s.56-.57,0-.56c0-.56-.57,0-.57,0-1.69.59-1.1,1.71-1.65,2.85,0,.56-.56.57-1.11,1.15h-.57c-1.15-1.11-1.72-1.1-2.24,1.17-.56.57,0,2.26,0,2.82.61,2.25,2.31,2.78,2.9,3.9,1.15,1.11-.49,4.52-2.15,6.25-2.22,2.3-1.05,4.53-2.71,6.82-1.1,1.71-3.92,2.33-2.75,4.56a1.75,1.75,0,0,1-1.12.58c0-.56-1.13,0-1.15-1.11v-.56c.55-1.14,0-1.69,0-2.26-.56.57-.55,1.14-.53,2.27-.55,1.14-2.22,2.3-2.2,3.42,0,2.82.65,5.07-2.13,7.37h.57c0,1.69-1.64,3.41-2.17,5.12-1.1,1.71-1.71-.53-3.38.62,0,.56-.59-1.12-1.13,0s0,1.69.59,1.68v-.56c.57,0,.56-.57.57,0,.57,0,.58.55,0,.56a1.06,1.06,0,0,1,0,1.69c-.55,1.14-1.13,0-1.7,0-1.12.58-2.79,2.31-3.94,1.2l-.56.57v.56c2.25-.6,3.41,1.07,5.66-.1.56-.57,1.13,0,1.71.53a2.93,2.93,0,0,1-1.09,2.28c-.56.57-.57,0-.57,0,0-.56.55-1.14-.59-1.12-.57,0-.56.57-1.12.58,0,.56,0,.56.58,1.12,0,.56,1.15,1.11,0,2.26s-.58-.55-1.14-.54l-1.13,0c0,.56-.56.57,0,1.13,1.72,1.1,0,2.82-.49,4.52,0,1.13-2.8,1.74-2.8,1.74-1.67,1.72-2.84-.51-4.51.64-.57,0-.56.57-1.13,0,0-.56,1.11-1.15,0-1.69a2.07,2.07,0,0,0-.54,1.7c0,1.13,0,1.69,1.16,1.67a8.41,8.41,0,0,1,4,.5c.57,0,1.71.53,1.15,1.11-1.11,1.15-1.13,0-1.7,0-2.26,0-3.93,1.76-5,3.47-1.12.58-2.26,0-2.81,1.18l.58.55c1.13,0,1.68-1.16,2.23-1.73l0,1.13c-2.78,2.87-1,5.1-.44,7.34,0,1.13,0,2.82-1.64,3.41a3.39,3.39,0,0,0,.53-2.27,1.76,1.76,0,0,0-1.12.58c-.56.57.59,1.12.6,1.68a2.08,2.08,0,0,0-1.69.59c-.56.57.58.55.59,1.12.58.55,0,1.69-.52,2.83a3.1,3.1,0,0,0-1.65,2.85c-.55,1.14-.53,2.27-2.24,1.17a2,2,0,0,0-1.12.58c2.88,2.77-1.61,5.11-2.13,7.37l-1.67,1.72c-.58-.55.55-1.14.54-1.7,0-1.69-1.17-2.24-2.32-3.35v.56a.78.78,0,0,0,0,1.13c.6,1.68,1.19,3.37.1,5.64l-1.1,1.71c-1.12.58-3.37,1.19-1.65,2.85.58.55-1.11,1.15-1.68,1.16-1.14-.54-1.71-.53-2.24,1.17,0,1.13-.51,3.39-2.78,2.87-.57,0-1.13,0-1.12.58a2.07,2.07,0,0,0-.54,1.7c1.73,1.66,2.32,3.35-.47,5.65-.56.57.58.55.58.55,1.12-.58,1.71.53,2.27.52,0,.56,0,1.13-.55,1.14,0,.56-.55,1.14-.56.57-.57,0,0-.56,0-.56a1.88,1.88,0,0,0-3.39.06c-2.78,2.87-5,6.29-8.34,8.61-.56.57-1.66,2.29-1.07,3.4.58.55,0,.56,0,1.13-.56.57-1.68,1.16-2.25.6-2.85-1.08-7.91.7-10.76-.38-4-1.62-9.66-2.09-12-6.56-2.93-5.59-10.36-10-11.6-16.17-1.81-6.18-2.48-12.37-3.15-18.57-.71-8.45-2-16.33-1.58-25.37.46-6.22-.23-13-.9-19.17-.69-7.32.31-14.68.18-22-.11-6.21.9-13,.23-19.19l-.11-6.21c-1.83-7.87-.29-16.36-.43-24.83a104.64,104.64,0,0,0-1-23.12,122.51,122.51,0,0,1-.82-14.66,32.09,32.09,0,0,0-2.48-12.37C91.06,75,95,72.72,92.73,73.32c-1.69.59-1.7,0-2.27-.52.57,0,1.12-.58,1.69-.59-.58-.55-1.14-.54-1.69.59-.56.57-1.11,1.15-1.68,1.16-1.11,1.15-1.65,2.85-2.79,2.31-1.15-1.11,0-2.82,1.06-4,0-.56,1.11-1.15,1.1-1.71-1.11,1.15-2.26,0-2.83,0-1.12.58,0,1.13,0,1.69.61,2.81-1.62,4.54-5,5.17-1.7,0-2.24,1.17-2.21,2.86-1.14-.54-1.71-.53-2.82.61v.56c.57,0,1.12-.58,1.69-.59a.55.55,0,0,1,.58.55c.57,0,.58.55.59,1.12-.57,0-1.69.59-2.25.6-1.14-.54-1.12.58-1.68,1.16a2.08,2.08,0,0,0-1.71-.53v.56l1.7,0a4,4,0,0,1-3.36,1.75c-.58-.55-1.7,0-1.12.58s1.73,1.66,0,2.82l-3.39.06c-.57,0-.59-1.12-1.13,0a.55.55,0,0,0,.58.55c1.13,0,1.7,0,2.27.52L65.9,92.41c-.56.57-2.25.6-1.67,1.72,0,1.13,1.71.53,2.27.52-1.12.58-2.23,1.73-1.07,3.4-.57,0-1.12.58-1.69.59s.56-.57.55-1.14l0-1.13A3.41,3.41,0,0,0,62,97c-.57,0-.56.57,0,1.13s-.55,1.14-1.11,1.15c-2.82.61-5.08.65-7.32,1.82-1.13,0-.56.57-.55,1.14,0,0,0,.56.57,0,2.24-1.17,2.84.51,3.41,1.07a4.27,4.27,0,0,1-1.09,2.28c-1.12.58-.58-.55-1.15-1.11a.55.55,0,0,0-.58-.55l0,1.13a7.14,7.14,0,0,0,.62,3.38.55.55,0,0,1-.56.57c-.56.57-1.13,0-.58-.55,0-.56.54-1.7-.59-1.68-1.12.58-.55,1.14-.54,1.7s-1.67,1.72-1.08,2.84c0,.56-.55,1.14-.56.57,0-1.69-2.82.61-2.28-1.09l0-1.13c0,.56-.56.57-.55,1.14l-.56.57c-.58-.55-.58-.55-1.14-.54l-2.83,0c0-1.13,1.12-.58,1.11-1.15-.57,0-.57,0-.58-.55-.58-.55.54-1.7,1.09-2.28,0-2.26,2.76-4,2.15-6.25,0-2.26,2.78-2.87,4.46-4,.56-.57,1.68-1.16,1.67-1.72,0-1.13-.58-.55-1.71-.53-.57,0-.57,0-.58-.55.55-1.14,1.1-1.71,1.68-1.16A2.08,2.08,0,0,0,54.58,92c.55-1.14,1.1-1.71,0-2.26-.58-.55,0-.56.55-1.14a2,2,0,0,0,1.12-.58c0-1.69.53-2.27,2.23-1.73,1.7,0,1.67-1.72,1.08-2.84,0-.56-2.28-1.09.55-1.14l.56-.57c.56-.57,0-.56,0-.56a24.63,24.63,0,0,1-2.84-.51c-.57,0-2.26,0-1.11,1.15.58.55-.55,1.14-1.1,1.71,0-.56,0-.56-.58-.55,1.11-1.15-1.16-1.67,1.08-2.84,2.25-.6,4-.07,5.62-2.36.56-.57,2.25-.6,1.68-1.16S62.2,75,61.08,75.57a2.08,2.08,0,0,0-1.69.59c.56-.57,1.11-1.15,1.1-1.71.52-2.83,3.87-5.15,4.41-6.85.48-5.09,5.55-6.3,7.19-9.72,2.17-5.12,7.21-8,11.12-11.48,1.68-1.16,4.48-2.9,3.86-5.71,0-.56,1.07-3.4,3.35-2.32,1.14.54,2.83,0,4-.07a7.62,7.62,0,0,1,8.56,4.37l5.21,6.68c2.88,2.77,5.2,6.12,5.29,11.2a.55.55,0,0,1-.56.57c-3.38.62-.52,2.83-2.19,4-1.12.58-.6-1.68-1.72-1.1-1.11,1.15,0,2.26.06,3.38,0,2.26,2.33,3.91,1.24,6.19a.55.55,0,0,0,.58.55,2.93,2.93,0,0,0,1.09-2.28c-.58-.55,0-1.13,1.1-1.71.57,0,1.11-1.15,1.7,0,0,.56-1.12.58-1.11,1.15-1.1,1.71,0,1.13.59,1.12,1.12-.58,1.13,0,1.14.54,0,1.13-1.12.58-1.11,1.15-1.12.58-2.81,1.18-3.35,2.32a7.14,7.14,0,0,0-.51,3.4s1.15,1.11,1.69-.59A1.21,1.21,0,0,1,113.18,78c.57,0,.58.55,1.15,1.11,0,.56-.56.57-1.11,1.15a2,2,0,0,0-1.12.58c0,1.13.57,0,1.14.54.57,0,2.23-1.73,2.83,0,.58.55-2.16,5.68-3.29,5.7-1.12.58-1.11,1.15-1.1,1.71,1.13,0,2.82-.61,2.84.51S113.4,91,112.27,91c-.57,0-.56.57-.55,1.14.1,5.64.76,11.27.86,16.92a2.68,2.68,0,0,1-1.65,2.85c-.57,0-.56.57,0,1.13,0,0,0,1.13.58.55s1.11-1.15,1.12-.58c.58.55,1.15,1.11.6,2.25-.57,0-.56.57-1.13,0-1.12.58-1.11,1.15,0,1.13,1.73,1.66,1.24,6.19-.42,8.47l-.56.57c1.16,1.67.08,4.51.67,6.2a3.59,3.59,0,0,1,.06,3.38c-.55,1.14-1.09,2.28-.52,2.83,1.17,2.24-.49,4.52-.45,6.78,0,1.69,2.85,1.08,2.88,2.77h.57c.58.55,2.28,1.09,1.17,2.24-.55,1.14-.59-1.12-1.71-.53a.55.55,0,0,0-.58-.55l0,1.13c.61,2.25-2.76,4-2.72,6.26H110c-.57,0-1.15-1.11-1.7,0a2.51,2.51,0,0,0,0,2.82c.59,1.12,1.69-.59,1.69-.59.59,1.12,4.52-.08,1.76,3.36-1.1,1.71,2.29,1.65,1.76,3.36-.55,1.14,0,1.69-1.08,2.84-.57,0-1.12.58-.55,1.14,2.28,1.09.06,3.39-.47,5.65s1.73,1.66,2.87,2.21h.57a.55.55,0,0,0-.56.57c-1.69.59-1.08,2.84-3.34,2.88a2.07,2.07,0,0,1,.6,1.68c.58.55,1.69-.59,2.25-.6s1.11-1.15,1.69-.59a2,2,0,0,0-1.12.58c0,1.13-3.37,1.19-1.09,2.28-2.8,1.74.6,2.25.07,3.95-.57,0,0,.56-.56.57-.56.57-2.25.6-1.1,1.71.58.55,2.26,0,3.37-1.19a2.26,2.26,0,0,1,2.24-1.17c.58.55-.54,1.7-.53,2.27,0,1.13-3.34,2.88-.5,4l-.56.57c-.57,0-1.13,0-1.12.58-2.23,1.73-2.69,7.95-1,10.18.58.55,0,1.13-.54,1.7-1.09,2.28,1.76,3.36-.47,5.65l.58.55c.57,0,.57,0,1.12-.58l.56-.57s-.56.57.58.55c.58.55.59,1.68,1.73,1.66a3.38,3.38,0,0,0,.53-2.27c.55-1.14,0-1.13-1.15-1.11,1.1-1.71,2.21-2.86,3.36-1.75s0,2.26-.52,2.83l-1.11,1.15c2.88,2.77-1.65,2.85-2.18,4.55l-1.11,1.15a2.08,2.08,0,0,1,1.69-.59c2.22-2.3,2.81-1.18,2.84.51s.62,3.38.65,5.07a.55.55,0,0,1-.56.57l-1.13,0c-.57,0,.54-1.7-.58-.55l-1.66,2.29c1.12-.58-1.66,2.29.6,1.68.57,0,1.13,0,1.12-.58.56-.57.54-1.7,1.11-1.15,1.13,0,1.14.54,1.15,1.11-.48,5.09.73,9.58,1.39,14.65,0,1.69-2.22,2.3-2.2,3.42,2.24-1.17,2.84.51,2.86,1.64-.46,6.22,1.88,10.69,3.68,16.3.61,2.81,4.58,3.31,7.35-.13A90.82,90.82,0,0,0,145,245.68c4.42-6.28,2-15.27,5.84-22.11.56-.57,1.11-1.15,1.68-1.16s-.56.57-.55,1.14a.57.57,0,0,0,1.13,0,61.6,61.6,0,0,0,4.38-8.54v-.56l-.56.57c-1.12.58-.52,2.83-2.78,2.87a17.64,17.64,0,0,0,2.73-5.69c.55-1.14,1.08-2.84,2.79-2.31,1.13,0,1.68-1.16,2.23-1.73,1.11-1.15.5-4,3.33-3.44.57,0,.56-.57,1.11-1.15a.55.55,0,0,0-.58-.55c-3.42-1.63-3.43-2.2-.1-5.64,2.26,0,2.22-2.3,3.34-2.88l0-1.13c-.57,0-.56.57-1.12.58-.55,1.14-.53,2.27-2.2,3.42.51-3.4,3.85-6.28,4.92-9.68a.55.55,0,0,1,.56-.57c0,.56,0,1.13-.55,1.14,0,1.13-1.09,2.28-.53,2.27,1.13,0,1.11-1.15,1.66-2.29,2.75-4.56,4.37-9.11,7.12-13.67,7.09-15.36,12.53-27.87,22.36-47.8,11.46-23.9,27.65-68.77,30.33-77.28,2.67-9.08,4.77-18.14,7.45-26.66,2.15-6.25,3.18-12.47,7-18.75,1.65-2.85,4.48-2.9,6.15-4.06.59,1.12,8.54,3.24,9.68,3.78s1.75,2.79,4.55,1.61c1.75,2.79,5.16,3.86,5.23,7.81,0,1.13.58.55,1.14.54.58.55,1.71.53.59,1.68C271.67,17.16,272.28,19.4,270.61,21.13ZM47.47,106.28c-.57,0-1.12.58-1.68,1.16l.58.55a2.08,2.08,0,0,1,1.69-.59C48,106.83,47.48,106.84,47.47,106.28Zm2.73-5.69c-.57,0-.57,0-.56.57l1.73,1.66c.58.55.57,0,.57,0C51.92,101.69,51.34,101.13,50.2,100.59Zm2.36,5.6c.57,0,.57,0,.56-.57.57,0,0-.56,0-1.69a7,7,0,0,1-1.1,1.71A.55.55,0,0,0,52.56,106.19ZM53,98.28c0,.56-.56.57-.55,1.14.58.55,1.13,0,1.12-.58A.55.55,0,0,0,53,98.28Zm3.36-1.75c-.57,0-1.13,0-.56.57,0,.56.59,1.12,1.16,1.67,0,.56.57,0,.56-.57C56.38,98.22,58.61,95.93,56.35,96.53Zm2.83,0-.56.57v.56A1.76,1.76,0,0,0,59.76,97,.55.55,0,0,0,59.18,96.48Zm9-33.46-1.67,1.72h.57a1.22,1.22,0,0,0,1.11-1.15ZM83.68,74c-1.13,0-1.12.58-1.11,1.15-.57,0-.56.57,0,.56s1.12-.58,1.68-1.16C84.25,74,84.25,74,83.68,74Zm16.15,82.12a1.75,1.75,0,0,1-1.12.58l1.73,1.66.56-.57Zm.62,3.38c-.57,0-.56.57-1.12.58l.58.55c0-.56.56-.57,1.12-.58A.55.55,0,0,1,100.46,159.54Zm8.27-44.73c.57,0,.57,0,1.69-.59-1.14-.54-1.15-1.11-1.15-1.11l-1.11,1.15C108.16,114.82,108.16,114.82,108.73,114.81Zm1-6.79c1.69-.59,1.67-1.72,1.65-2.85,0-.56-.59-1.12-.6-1.68,0,.56-.55,1.14-.54,1.7,0,1.13-.54,1.7-1.1,1.71-.56.57-.56.57-1.12.58C108.6,107.47,109.18,108,109.74,108Zm3.18,84.6h-.57l-.56.57a.55.55,0,0,1,.58.55C112.36,193.19,112.93,193.18,112.92,192.62Zm4.75,45.07c.57,0,.57,0,1.12-.58l-1.13,0-.56.57ZM116.51,236c.56-.57,1.11-1.15,1.1-1.71l0-1.13c-.55,1.14-1.1,1.71-1.09,2.28Zm-1.21-4.49,1.13,0c0-.56-.58-.55-1.14-.54h-.57A.55.55,0,0,0,115.3,231.52Zm1.54-9.06,0,1.13c.55-1.14,1.68-1.16,1.67-1.72,0-1.13.52-2.83-.62-2.81-1.14-.54-1.67,1.72-3.36,1.75l0,1.13c0,.56.57,0,1.13,0C116.25,221.35,117.94,220.75,116.84,222.46Zm-1,6.23a2.08,2.08,0,0,1-1.69.59c1.15,1.11,2.84.51,4,1.06.57,0,1.13,0,1.12-.58C119.19,227.5,117,229.8,115.82,228.69Zm26.26,45.82a5.64,5.64,0,0,0-2.79,2.31v.56l2.8-1.74Zm2.77-3.43a.55.55,0,0,0-.56.57h.57l.56-.57Zm13.7-25.64,1.13,0a1.76,1.76,0,0,0-1.14-.54c0-.56-.57,0-.57,0Zm-2.67,9.08h.57c-.57,0-.58-.55-1.14-.54C155.31,254.53,155.31,254.53,155.87,254.52Zm.26-17.5c.56-.57,1.12-.58,1.11-1.15s-1.14-.54-1.72-1.1l-.56.57Zm-7.42-3.82v.56c.56-.57,1.12-.58,1.11-1.15A2,2,0,0,0,148.71,233.2Zm8.36-7.48c-1.12.58-1.15-1.11-2.84-.51.56-.57.55-1.14.53-2.27a.55.55,0,0,0-.56.57c0,.56-.55,1.14,0,1.69-.57,0-2.24,1.17-2.26,0-.57,0-1.12.58-1.69.59a2.07,2.07,0,0,0-.54,1.7.55.55,0,0,0,.58.55c1.11-1.15,2.81-1.18,3.91-2.89a2.07,2.07,0,0,0,2.85,1.08h.57A.55.55,0,0,0,157.07,225.71Zm4.86-13.07-.56.57,1.7,0C162.5,212.64,162.5,212.64,161.93,212.65Zm-3.62,19.25-.56.57c0,.56,5.74,4.42,6.87,4.4,0,.56.57,0,.56-.57C165.72,235.16,158.88,232.46,158.31,231.9Zm6.36-24.38c-.55,1.14-.55,1.14-.54,1.7l.58.55a.55.55,0,0,1,.56-.57C165.26,208.64,165.26,208.64,164.67,207.52Zm4.39,24.76c-.58-.55-.57,0-1.12.58s-.54,1.7-1.12.58c0-.56-.58-.55-1.13,0a.55.55,0,0,0,.58.55l0,1.69c0,.56-.54,1.7.59,1.12.57,0,1.7,0,1.68-1.16,0-.56.55-1.14.53-2.27C169.64,232.83,169.63,232.27,169.06,232.28Zm1.63-4-.56.57c0,.56,0,.56.58.55l.56-.57C171.26,228.29,171.26,228.29,170.69,228.3Zm8.72-18.78a.55.55,0,0,1,.56-.57c0-.56-.58-.55-.59-1.12v.56C178.84,209,179.41,209,179.42,209.52Zm-.52-29.9a2,2,0,0,0-.55,1.14.55.55,0,0,0,.58.55c.57,0,.56-.57,1.11-1.15C180,180.16,180,179.6,178.89,179.62Zm7.51,8.9v.56c0,1.13.6,1.68,1.74,2.23l1.11-1.15C188.68,189,187,190.2,186.4,188.52Zm4,1.62c0,.56-.55,1.14.59,1.12q.85,0,1.67-1.72c0-.56,0-1.13-1.15-1.11C190.93,188.44,190.95,189.57,190.39,190.14Zm2.69-7.95a2,2,0,0,0-1.12.58v.56c.57,0,.57,0,1.12-.58Zm.06,3.39v.56c.57,0,.56-.57,1.11-1.15,0-.56,0-.56-.59-1.12C193.69,184.44,193.13,185,193.14,185.58Zm1.58-6.8a.55.55,0,0,0-.56.57v.56c.56-.57.56-.57,1.12-.58Zm8.83-12.57-.56.57,0,1.13.56-.57Zm1-9.61-.56.57c0,.56,0,.56.58.55h.57C205.09,157.15,205.09,157.15,204.52,156.6Zm10.34-23.32h.57a.55.55,0,0,0,.56-.57C215.42,132.7,215.42,132.7,214.86,133.28Zm6.65-8c-1.13,0-.55,1.14-1.1,1.71-.55,1.14,0,1.69,1.16,1.67a1.21,1.21,0,0,0,1.11-1.15C223.23,126.36,222.08,125.82,221.51,125.26Zm8.19-17.07c-.57,0-.56.57-.55,1.14l0,1.13,1.1-1.71C230.26,108.18,230.25,107.61,229.7,108.19Zm2.15-6.25-.56.57c0,.56,0,.56.58.55Zm3.26-8c0-.56-1.13,0-1.13,0-.55,1.14.58.55,1.15,1.11.57,0,.57,0,0,.56-1.12.58-1.69.59-1.67,1.72a1.75,1.75,0,0,0,1.14.54c.56-.57,2.24-1.17,1.66-2.29C237.92,93.37,235.68,94.54,235.11,94Zm4.83-14.76c-.57,0-.56.57-1.12.58l.58.55.56-.57ZM66.51,94.66c.56-.57,1.11-1.15,1.12-.58A4.81,4.81,0,0,1,67.7,98c-1.11,1.15-1.7,0-2.26,0C66.54,96.92,68.22,95.76,66.51,94.66Zm128.92,92,.58.55c-1.11,1.15-1.12.58-1.7,0C194.87,187.24,194.85,186.11,195.42,186.67ZM79.28,80.89c0,.56-1.12.58-1.69.59a2,2,0,0,1,.55-1.14C78.7,80.34,79.82,79.75,79.28,80.89ZM53.23,111.82c0,.56-.54,1.7-1.13,0l0-1.13,1.7,0C53.78,111.25,53.22,111.26,53.23,111.82Zm-1.14-.54h-.57l.56-.57Zm60.83-47.9c-1.14-.54-.59-1.12,0-2.26a3.38,3.38,0,0,1,.61,2.25Zm-1.06,4-1.7,0c-.58-.55.54-1.7.53-2.27C111.26,65.66,112.4,66.21,111.86,67.34Zm42.28,152.78h-.57c-.59-1.12,0-1.69.53-2.27C154.11,218.43,154.7,219.55,154.14,220.12Zm19.14-37.58,1.1-1.71v.56c0,.56-.55,1.14-1.65,2.85Zm-13.7,25.64v-.56a2,2,0,0,1,1.12-.58l.58.55C160.71,207.59,160.15,208.17,159.59,208.18ZM118.2,171.08a.55.55,0,0,1,.56-.57c.57,0,.58.55,1.15,1.11l-1.11,1.15C118.79,172.2,118.21,171.65,118.2,171.08Zm.26-17.5c-.57,0-.57,0-.58-.55l1.13,0,.58.55-.56.57A.55.55,0,0,1,118.46,153.58Zm-.08-36.68-.58-.55c.57,0,.56-.57,1.12-.58C118.37,116.33,118.37,116.33,118.38,116.9Zm.12,38.94c.57,0,.57,0,.59,1.12-.57,0-.55,1.14-1.11,1.15s0-1.13,0-1.69C117.94,156.41,117.37,155.86,118.5,155.84Zm.12,6.77c0,.56.58.55.59,1.12s-.56.57-1.12.58c-.56.57-.58-.55-.59-1.12C117.5,163.19,117.49,162.63,118.62,162.61ZM118,189.15l.58.55,0,1.13-1.15-1.11A.55.55,0,0,0,118,189.15Zm-.26-14.67c0-.56.56-.57,1.12-.58a.55.55,0,0,1,.58.55h-.57C118.27,175,117.7,175,117.7,174.48Zm1.84,8.43-1.11,1.15,0-1.69,1.11-1.15Zm-4.71-10.64a.55.55,0,0,1,.58.55,2,2,0,0,0-.55,1.14c-.58-.55-1.14-.54-1.15-1.11A2,2,0,0,1,114.83,172.27Zm-.75-10.71.56-.57.58.55a.57.57,0,0,1-1.13,0Zm1.76,3.36c0,.56,0,1.69-1.1,1.71a5.68,5.68,0,0,1-.6-1.68l1.67-1.72C116.37,163.21,115.82,164.35,115.83,164.91Zm-.3-49.66c.56-.57.57,0,1.13,0l-2.22,2.3c-.56.57-.57,0-.58-.55C114.41,116.4,115,115.26,115.53,115.25Zm-.93,11.3c-.58-.55-.6-1.68-.61-2.81h.57c0,.56,2.26,0,.6,1.68C115.15,126,115.17,127.11,114.59,126.56Zm-1.71-33.27a.55.55,0,0,0,.56-.57,2,2,0,0,0,.59,1.12.55.55,0,0,1-.56.57A2,2,0,0,1,112.88,93.29Zm1.3,9.57a2,2,0,0,1,1.12-.58v.56c-.56.57-.56.57-1.12.58Zm2.33,3.91-1.91-.44c1.2,0,3.06-1.73,3.59-.72C118.21,106.74,117.07,106.2,116.51,106.77Zm-2.28-1.09v.56l-.58-.55Zm.37.65a.91.91,0,0,1-.36-.08Zm1.58-18.74h.57c0,.56,0,.56-.56.57Zm-.45,6.78.56-.57a.55.55,0,0,1,.58.55Zm.41-9,0-1.13a.55.55,0,0,1,.56-.57c.57,0,0,.56,0,.56C116.69,84.76,116.69,84.76,116.13,85.33ZM113,69c-.57,0-1.13,0-1.14-.54l1.12-.58c.58.55.58.55,1.14.54A1.75,1.75,0,0,1,113,69Zm.53-2.27v-.56a.55.55,0,0,1,.56-.57v.56C114.11,66.74,114.11,66.74,113.55,66.75Zm-4.3-19.11c-.57,0-1.14-.54-.58-.55,0-.56.56-.57.55-1.14,0,.56.58.55.59,1.12A.55.55,0,0,1,109.25,47.64ZM45.65,99c-.57,0,0-.56,0-1.13A5.63,5.63,0,0,1,47.84,95c.57,0,0,.56,0,.56C46.74,96.7,47.33,98.38,45.65,99Zm-.49,4.52c-.57,0-1.14-.54-.59-1.12,0-.56.56-.57.55-1.14.57,0,.59,1.12.59,1.12C45.71,102.92,45.72,103.49,45.16,103.5ZM43.61,112l.56-.57c.58.55,1.14.54,2.27.52-.56.57-1.12.58-1.11,1.15C44.74,112,43.63,113.12,43.61,112Zm1.83,7.3c-.56.57.61,2.81-2.22,2.3-1.13,0,1.1-1.71-.6-2.25-.57,0-.6-1.68-1.12.58-.5,1.58-1.51,1.71-2.12.82.82,1.46-1.28,1.55-2.34,2.64l-1.66,2.29,0-1.69a4.64,4.64,0,0,1,2.78-2.87c.57,0,.56-.57,1.12-.58,0-1.69-1.77-3.92,2.17-5.12.57,0,0-.56,0-1.13a1.75,1.75,0,0,1,.55-1.14.55.55,0,0,0,.58.55c0,1.13,1.15,1.11,1.73,1.66C45.39,116.47,48.2,115.86,45.44,119.29ZM40.7,107.53l-.58-.55a.55.55,0,0,0,.56-.57.55.55,0,0,1,.58.55A.55.55,0,0,0,40.7,107.53ZM38,112.09c0-.56.56-.57.55-1.14a.55.55,0,0,1,.58.55A2,2,0,0,1,38,112.09ZM37,124.52l1.11-1.15,0,1.13a.57.57,0,0,1-1.13,0ZM40.51,129l0,2.82a4.29,4.29,0,0,0-2.25.6h-.57c2.28,1.09-2.23,1.73-1.07,3.4s-.48,5.09-3.28,6.83c-1.69.59-.52,2.83-1.62,4.54-.55,1.14-.52,2.83-1.64,3.41-.58-.55-.59-1.12-1.14-.54a.55.55,0,0,0-.56.57c.58.55,1.13,0,1.7,0,0,1.13-1.1,1.71-1.66,2.29-.57,0-1.13,0-1.12.58-.56.57-.55,1.14,0,1.13,2.29,1.65-.5,4-.47,5.65,0,.56-1.11,1.15-.55,1.14.58.55.61,2.25,1.71.53h.57c1.15,1.11-1.09,2.28-.51,3.39l-.56.57c-1.71-.53-3.95.63-5.1-.48-.57,0-1.7,0-1.69.59a2.56,2.56,0,0,0,0,2.82,2.35,2.35,0,0,1-1.07,3.4c-.56.57-1.69.59-1.12.58,1.73,1.66-2.74,5.13.66,5.63,2.84.51,2.29,1.65.63,3.94-.56.57-1.67,1.72-.53,2.27.58.55,1.69-.59,2.24-1.17,2.24-1.17,2.78-2.87,3.88-4.58h.57v.56C25,181.17,25,182.3,24.5,184c-.55,1.14-1.06,4-2.8,1.74h-.57c0,.56-.55,1.14,0,1.69.59,1.12,1.73,1.66.62,3.38l.58.55c1.13,0,1.14.54.59,1.68-1.68,1.16,1.75,2.79-1.07,3.4-2.81,1.18-6.19,1.8-9.05.16-1.13,0-3.38.62-2.3-2.22l-1.13,0c-3.35,2.32-5.66.1-7.94-1-2.27-.52-.62-3.38-.09-5.08a9.52,9.52,0,0,0,1.08-2.84c1.65-2.85-1.16-1.67-1.74-2.23,0,0-1.12.58-.58-.55l2.18-4.55c.56-.57,1.14.54,1.14.54L8,178.64a5.67,5.67,0,0,0,.54-1.7c0-.56-.58-.55-1.13,0-2.82.61-1.71-.53-2.29-1.65,0-2.26,1.65-2.85,1.62-4.54a2.25,2.25,0,0,1,2.78-2.87c1.13,0,1.69-.59,1.68-1.16,0-1.13-1.13,0-1.13,0-.57,0-1.13,0-1.14-.54l-.56.57c-.59-1.12-1.74-2.23-.06-3.38,1.11-1.15,2.78-2.87,5.05-2.35h.57c-.06-3.39,2.81-1.18,3.92-2.33.56-.57,1.1-1.71.54-1.7-2.28-1.09.5-4-1.79-5a2,2,0,0,0,.55-1.14,5.51,5.51,0,0,0,5.08-.65c0,1.13,1.14.54,1.7,0,.57,0,.55-1.14.55-1.14-1.14-.54-1.68,1.16-2.24,1.17-.59-1.68-1.19-3.37-3.46-3.89,1.1-1.71,2.21-2.86,4.48-2.9.57,0,2.28,1.09,1.67-1.72,0-1.13,2.2-3.42,2.73-5.69.52-2.83,2.8-1.74,4.49-2.34-.6-2.25,1.08-2.84,2.75-4.56C38.75,125.06,38.27,130.14,40.51,129ZM17.09,180.74c.57,0,1.13,0,1.11-1.15l-.58-.55a1.21,1.21,0,0,0-1.11,1.15C16.52,180.75,16.52,180.75,17.09,180.74Zm-4.54-1a.55.55,0,0,0,.58.55h.57c0-.56-.58-.55-1.15-1.11Zm2.65-10.21a2,2,0,0,0-.59-1.12,2.93,2.93,0,0,0-1.09,2.28c-.57,0,0,0,0,.56Zm-5,6.86c0,1.13,1.14.54,1.72,1.1.55-1.14,1.14.54,1.12-.58.57,0-.58-.55-1.15-1.11C11.34,175.76,10.79,176.34,10.22,176.35ZM14,166.12c-2.84-.51-1.67,1.72-2.22,2.3s-.54,1.7,0,1.69a15,15,0,0,1,2.77-3.43C15.14,166.1,14,166.12,14,166.12Zm3.31-4.57h-.57c-.58-.55.54-1.7-1.16-1.67-.56.57-.54,1.7-.52,2.83s.59,1.12,1.15,1.11c1.12-.58,1.7,0,2.24-1.17S18.45,161.53,17.32,161.55Zm3.27-7.39a1.21,1.21,0,0,0-1.11,1.15c-.56.57-.55,1.14.59,1.12.57,0,1.14.54,1.12-.58A1.08,1.08,0,0,0,20.58,154.15Zm2.11-8.5a1.22,1.22,0,0,0-1.11,1.15l1.15,1.11c.57,0,.56-.57.55-1.14C23.84,146.2,23.26,145.64,22.7,145.65Zm.23,13h-.57c1.15,1.11.06,3.39,1.21,4.49l.56-.57C23,161.45,25.2,159.15,22.93,158.63Zm2.72-6.26c-.55,1.14-1.67,1.72-2.22,2.3l0,2.26a11.8,11.8,0,0,0,2.2-3.42ZM31,136.48a1.21,1.21,0,0,0-1.11,1.15c-.56.57-.55,1.14,0,.56a5.7,5.7,0,0,0,1.69-.59C32.17,137,31.59,136.47,31,136.48Zm4.43-5.72c-1.7,0-1.67,1.72-2.78,2.87,1.69-.59,2.83,0,3.36-1.75C36.58,130.74,36,130.75,35.45,130.76Zm6.23.46,0,1.13c-.58-.55-.58-.55-1.14-.54C41.12,131.22,41.67,130.65,41.68,131.21Zm-10.93,22.2c0,1.69-2.25.6-3.37,1.19l1.1-1.71C29,152.88,31.3,152.28,30.76,153.41Zm-24.09,14v-.56l1.7,0A2.08,2.08,0,0,1,6.67,167.38ZM17.11,149.7l1.7,0-1.68,1.16C16.56,150.27,16,150.28,17.11,149.7Zm1.68-1.16c-.57,0-1.13,0-1.14-.54s0-1.69,1.1-1.71C18.2,147.42,19.34,148,18.79,148.54Zm11.55-18.83c-.58-.55-.59-1.12-1.15-1.11.57,0,.56-.57,1.12-.58,0,.56.58.55.58,1.12A.55.55,0,0,1,30.34,129.72Zm-7.16,11.41c-.57,0-1.14-.54-1.72-1.1a24.6,24.6,0,0,0,2.82-.61c1.12-.58.57,0,.58.55C24.31,140.54,24.33,141.67,23.19,141.13ZM12.72,157.68c-.57,0-1.13,0-.58-.55l2.23-1.73,0,1.13C13.85,157.09,13.29,157.67,12.72,157.68Zm-12.51,29v-.56H.77A.55.55,0,0,1,.22,186.68ZM21,178.42c0-1.69-2.29-1.65-1.18-2.8,1.1-1.71,1.06-4,3.88-4.58,1.7,0,1.71.53,1.16,1.67s-2.21,2.86-1.62,4.54Zm4.36-9.67c0-.56.56-.57,1.12-.58l.58.55c0,.56-.56.57-1.12.58S24.81,169.32,25.37,168.75ZM29.14,158c.55-1.14,1.06-4,3.35-2.32,1.13,0,2.82-.61.59,1.12-1.12.58-2.79,2.31-2.2,3.42.58.55-.55,1.14-.56.57A2.06,2.06,0,0,1,29.14,158Zm3,9.54c-.56.57-1.11,1.15-1.1,1.71l0-1.69.55-1.14C32.11,166.37,32.12,166.93,32.13,167.5Zm.28-16.37c-.57,0-.57,0-.58-.55.56-.57,1.1-1.71,2.22-2.3.57,0,.58,1.12,1.16,1.67C34.1,150.53,33,150.55,32.41,151.13Zm4.92-9.68c1.13,0,.58.55.59,1.12-1.12.58-.53,2.27-2.22,2.3a1.75,1.75,0,0,0-.59-1.12C36.81,143.71,36.21,141.47,37.34,141.45Zm2.18-4.55v-.56c1.12-.58.52-2.83,1.09-2.28,1.71.53,0,2.26-.5,4-.57,0-1.11,1.15-1.69.59C37.83,137.49,39,136.9,39.52,136.89Zm1.74,2.23a.55.55,0,0,1-.56.57c-1.13,0-.59-1.12-.59-1.68C41.24,138,41.8,138,41.26,139.12Zm2.65-10.2c.58.55,1.7,0,1.16,1.67,0,.56,0,1.13-1.12.58-1.13,0-1.14-.54-1.15-1.11A1.22,1.22,0,0,1,43.91,128.92Zm1.31,10.14c0-.56,0-.56.55-1.14,0,.56,0,.56.58.55l-1.11,1.15C45.22,139.05,44.65,139.06,45.22,139.05Zm-1.37-13.52c1.13,0,1.69-.59,2.81-1.18-.56.57-1.1,1.71.6,1.68l-.56.57C45.56,126.63,44.43,126.65,43.85,125.53Zm-3.95.63L41,125c1.69-.59,2.26,0,2.84.51-.57,0-1.69.59-2.25.6Zm.5-4H41c.58.55,0,1.69,0,2.26C40.42,123.9,39.85,123.34,40.39,122.2Zm1.17,2.24L41,125v-.56Zm7.15-12a1.75,1.75,0,0,1-1.12.58c-.57,0-.58-.55-.59-1.12C47.57,111.92,48.15,112.48,48.71,112.47Zm2.4,7.86c-.56.57-1.11,1.15-1.68,1.16a.55.55,0,0,1-.58-.55l1.68-1.16A.55.55,0,0,0,51.11,120.32Zm-.45,6.78h.57l-1.11,1.15v-.56A.55.55,0,0,1,50.66,127.11Zm14.8-27.35-2.23,1.73-.58-.55C63.2,99.8,64.34,100.34,65.46,99.76ZM72.08,90c.57,0,0,.56,0,1.13-.56.57-.55,1.14-1.68,1.16l-1.72-1.1A8.06,8.06,0,0,0,72.08,90Zm1.1-1.71a4.26,4.26,0,0,1,.53-2.27l0,1.69c.58.55,0,1.13-.55,1.14S72.62,88.35,73.18,88.34ZM88.82,76.78v-.56l1.13,0A1.75,1.75,0,0,1,88.82,76.78Zm52.23,204c0,.56-.56.57-.55,1.14h-.57C139.93,280.76,140.49,280.75,141.06,280.74Zm2.24-1.17c-.56.57-1.09,2.28-2.24,1.17C142.17,279.59,142.16,279,143.3,279.57Zm.54-1.7,1.13,0c.59,1.12-.55,1.14-1.1,1.71C144.42,279,143.28,278.44,143.84,277.87ZM152.63,263a.56.56,0,1,1,0,1.13l-.58-.55C152.06,263.05,152.06,263.05,152.63,263Zm2.24-1.17a2,2,0,0,0-.55,1.14.55.55,0,0,0-.58-.55c0-.56.56-.57,1.1-1.71Zm1.74,2.23v.56c0,1.13-.55,1.14-1.67,1.72a.55.55,0,0,0-.58-.55C155.5,265.25,156.06,265.24,156.61,264.1Zm10.48-15.42-2.23,1.73v-.56A4.29,4.29,0,0,1,167.09,248.68Zm2.7-7.38h.57c-1.11,1.15.61,2.81-1.65,2.85-1.12.58-.58-.55-.59-1.12C168.68,242.44,168.66,241.32,169.79,241.3ZM191,195.21c.57,0,.58.55.59,1.12-.57,0-.55,1.14-1.11,1.15s-.58-.55-.59-1.12S190.49,195.79,191,195.21Zm4.42-6.29v.56c-.56.57,0,1.13-1.11,1.15v-.56A1.22,1.22,0,0,1,195.46,188.93Zm3.27-7.39-1.7,0a.55.55,0,0,1-.58-.55H197C197.59,181,197.59,181,198.73,181.53Zm1.09-2.28v.56a2,2,0,0,1-.55,1.14.55.55,0,0,1-.58-.55C199.28,180.39,199.27,179.83,199.82,179.26Zm19-44.35c.57,0,.58.55.59,1.12s-.56.57-1.11,1.15c0-.56-.59-1.12-.6-1.68A2,2,0,0,1,218.85,134.9ZM238.59,99c.57,0,.57,0,.58.55l-1.67,1.72s-.57,0,0-.56C237.48,100.15,237.46,99,238.59,99ZM250,71.15h.57c-.56.57-.55,1.14-1.11,1.15v-.56A.55.55,0,0,1,250,71.15Zm3.75-11.92a.55.55,0,0,1-.58-.55l1.13,0A.55.55,0,0,0,253.74,59.23Zm1.56-7.93c0-.56,0-.56.55-1.14l0,1.13a1.75,1.75,0,0,1-.55,1.14Zm-.51,3.4a.55.55,0,0,0,.58.55.57.57,0,0,1-1.13,0A.55.55,0,0,0,254.79,54.7ZM258,44.48a9.53,9.53,0,0,1,1.18,2.8c0,.56-.56.57-1.12.58s-1.7,0-.6-1.68C257.46,45.62,258,45,258,44.48Zm-.45,6.78c0-.56,0-.56.55-1.14,1.15,1.11-.53,2.27.06,3.39,0,.56,0,1.13-1.1,1.71A11,11,0,0,0,257.56,51.26ZM293.61,215a.61.61,0,0,1-.38.25H293l-.25,0a5.45,5.45,0,0,0-1.3-.22,2.77,2.77,0,0,1-1.69-.59h2.68C293,214.37,293,214.37,293.61,215ZM434.9,162.63c-1.13.44-1.13.44-1.67.4l0-.54Zm139.57,81.68a8,8,0,0,1,3.28-1.42c.51-.61,1-1.22,1.13-.1.61.51-.46,1.17-1,1.22-1.08.66-2.2.76-2.72,1.37-.56,0-.61-.51-1.18-.46A.55.55,0,0,0,574.47,244.31Z" style="fill:#ccc;fill-rule:evenodd"/></svg>