<svg xmlns="http://www.w3.org/2000/svg" viewBox="0 0 600 280"><title>logo</title><path d="M599.45,137.09v-.56c0-.56,0-.56.55-1.12V136C600,136.53,599.45,136.53,599.45,137.09Zm-51.62,7.26v1.12c-.55,1.12-1.11,0-1.67,0C546.71,144.9,546.71,144.34,547.82,144.34Zm-3.89,5c-.55,0-1.11,0-.55,1.12,0,1.12-1.11,1.67-1.66,2.23a2,2,0,0,1-1.67-.56V151c2.22-1.67,3.33-4.47,6.11-5.58C546.71,147.69,545,148.25,543.94,149.37ZM514,199a5.55,5.55,0,0,1,2.78-2.23A5.55,5.55,0,0,1,514,199Zm1.67-11.72c0,.56,0,.56-.55.56,0-.56,0-.56.55-1.12Zm23.31-34a2,2,0,0,1,1.66.56c-.55,0-.55,1.12-1.11,1.12-1.11,1.67-1.67,4.46-3.33,6.14-1.11,1.12-1.67,2.79-3.89,2.23-.56-.56-1.11,0-1.67,1.12-3.33,4.46-6.11,9.49-10,14-1.11.56-1.67,1.12-2.78,1.12,0-1.12,1.11-2.79,3.33-5.58l10-12.28c1.67-2.23,3.89-3.91,5.55-6.7.55-.56.55,0,1.11,0s1.11,0,.56-.56C538.39,153.83,538.39,153.27,538.94,153.27Zm-18.32,25.12c0,.56,0,.56-.56,1.12l-3.33,5a.54.54,0,0,0-.55.56,3.37,3.37,0,0,1-.55-2.23c1.11-1.12,1.11-2.79,2.22-3.35C517.29,181.18,519,180.62,520.62,178.39Zm31.64-2.79h.56a1.93,1.93,0,0,0-1.11.56C551.71,175.6,551.71,175.6,552.26,175.6Zm1.67-35.72.55-.56H555a.55.55,0,0,0-.55.56ZM555,173.37c-.55,0-.55.56-1.11,1.12v-.56c0-.56.55-1.12,1.11-1.67Zm6.66-35.72-.56-.56h1.11v.56Zm-6.11,0,2.77-2.23s5-3.91,5.55-3.91l-7.77,6.7Zm13.32-6.7a.54.54,0,0,1,.55-.56c.55,0,.55.56,0,.56Zm17.76,10s0-1.12.55-1.12a.55.55,0,0,1,.55.56l-1.11,1.67C586.12,142.11,586.68,141.55,586.68,141ZM585,148.25l1.11-1.12h.55c-.55,1.12-1.11,1.12-1.11,1.67A.55.55,0,0,1,585,148.25Zm6.66,6.14,2.22-3.35h.56v.56a14.79,14.79,0,0,1-2.78,3.35Zm-40,36.84-.55-.56a2,2,0,0,0,.55-1.12,1.73,1.73,0,0,1,.55,1.12A.54.54,0,0,0,551.71,191.23ZM299.09,155.4a.55.55,0,0,1,.56-.56V156a.55.55,0,0,0-.56.56Zm300.35-26.13c-1.66-1.67-1.11.56-1.11.56-.55,1.12,0,1.67,0,2.23,0,2.79,0,5-2.78,7.26-1.67,1.12-1.67,2.79-2.22,3.91,0,.56,0,1.67-.55,1.67s-.55-1.12-.55-1.67c0,0,.55-1.12,0-1.12s-1.11,0-1.11.56c-.55,0,0,.56,0,1.12.56,1.67-.55,2.79-.55,4.47L589.45,151a.54.54,0,0,0,.55-.56c.55-.56,1.11-1.12.55-2.23.55,0,1.11.56.55,1.67s-.55,2.79-2.22,3.35c-.55,0-.55-.56,0-.56,0-1.12,0-1.67-.55-1.67s0,.56,0,1.12c-.56.56-.56.56-1.11.56s-.55-.56,0-1.12l2.22-5.58c.55-2.23,1.66-4.47,1.66-7.26-.55-1.12,1.67-2.23,1.11-3.91,0-1.12.55-2.23.55-3.35a5.64,5.64,0,0,0-.55-1.67c-1.11,0-.55,1.12-.55,1.12-.56,0-.56.56-1.11.56,0-.56-.55-.56-.55-1.12-.55-6.7-4.44-7.81-10.55-4.46l-5,2.79c-1.67-1.67.55-2.23,1.11-2.79,1.67-1.67,3.33-2.23,4.44-3.35a1.93,1.93,0,0,0,1.11-.56H580c-3.33.56-6.11,2.23-8.88,3.91-.55,0-1.11.56-1.67.56l-.55.56c-.55-1.12-1.11-1.67,1.11-2.23a.55.55,0,0,0,.56-.56c-.56-.56,0-1.67-1.11-1.67a1.78,1.78,0,0,0-1.66,1.67,22.9,22.9,0,0,0-6.11,3.91c-3.89,3.91-7.22,8.37-12.21,11.16-.55,0-.55,1.12-1.11,1.67-1.67,1.67-3.89,3.35-5.55,5.58-1.67,1.12-2.78,3.35-4.44,4.47-6.66,5.58-10.55,12.84-15.54,19.53-3.89,5-7.77,10-10.55,15.63-1.11,2.79-2.78,6.7-.56,9.49.56,1.12-.55,1.12-.55,1.67-.55,2.79,1.11,1.67,2.22,1.67a.55.55,0,0,1-.55.56c0,.56-1.11,1.12-.55,1.67s1.11,0,1.66,0a160.67,160.67,0,0,0,16.1-10.6c.55-.56,2.22-1.67,2.22-1.12.55,1.12-1.11,1.12-1.67,1.67a104.41,104.41,0,0,1-12.77,8.93c-.56.56-1.11,1.12-1.67,1.12a2,2,0,0,0,1.67-.56,2.88,2.88,0,0,0,2.22-1.12,5,5,0,0,1,3.89-1.67,5.66,5.66,0,0,0,4.44-2.79c1.67-2.23,1.11-2.23,3.89-3.91.55-.56,1.11-1.12,2.22-.56h.55c2.22-2.23,5.55-2.79,7.22-5.58l4.44-3.35c.56-.56.56-.56,1.11-.56,0,.56,0,.56-.55,1.12s-1.67,1.12-1.67,1.67c-.55.56-1.11.56-1.11,1.12.55,0,1.11-.56,1.66-.56l3.33-3.91c2.22-1.67,5.55-2.79,7.22-5l5-4.46h1.11a.55.55,0,0,0-.55.56,166.7,166.7,0,0,1-17.76,16.74l-9.44,7.81c0,.56-.55.56,0,1.12v.56c1.11,0,.56-.56.56-1.12a4.19,4.19,0,0,0,3.89-2.23c.55,1.67,1.66,0,2.22-.56a111.19,111.19,0,0,0,12.21-10.6c1.11-1.12,1.67-3.35,3.33-4.47l.55-.56c4.44-2.79,7.77-7.81,12.21-11.16,1.11-1.12,1.67-3.35,3.89-3.91.55-.56,1.66-1.12,1.66,0,0,.56,0,1.12.55.56,2.78-.56,5-1.67,6.66,0,1.11.56,2.77,0,3.33.56,1.11,2.23,7.22,2.23,7.22,3.91a16.14,16.14,0,0,1-3.89,14c-1.11,1.67-3.33,2.23-3.33,4.46a6.71,6.71,0,0,0-2.78,2.79c-3.81,7.12-8.15,14.24-10.93,21.36.21-.21.57-.33.94-.7L571.69,213v-.56a10.39,10.39,0,0,0-1.11,3.91,79.91,79.91,0,0,0-4.44,12.28c0,.56-1.11,1.67-.55,2.79.55,1.67-1.67,3.91-1.67,5,1.11,3.91-.55,8.37,2.22,11.16,1.67,2.23,3.33,1.12,5.55.56.55,0,.55-.56,1.11-.56l-1.11,1.12c-.55,0-1.11.56-1.67,1.12h2.22c-3.33,1.12-6.66,2.23-9.44.56-.55-.56-4.44-.56-4.44-.56-.55.56,0,1.12.56,1.12a1.93,1.93,0,0,0,1.11.56h-1.67a7.47,7.47,0,0,1-3.89-3.35c-.55,1.12-.55,2.23-1.11,2.23-.55.56-1.11-.56-1.67-1.12a11.3,11.3,0,0,1-1.67-6.14v-.56c-.55,0-.55,0-.55.56a1.73,1.73,0,0,1-.55,1.12v-8.93c0-.56,0-.56-.55-.56v.56a1.48,1.48,0,0,1-1.67,1.67c0-.56,0,0-.55,0l1.11-1.67c1.66-2.79,1.11-5,1.11-7.26a47.46,47.46,0,0,1,2.22-9.49c2.22-11.72,7.77-22.88,12.77-34l5-9.49v-1.67c-.55.56-.55.56-1.11.56-2.22,2.23-2.78,5-5,6.7-11.66,8.37-22.2,18.42-35,25.67-1.67,1.67-3.89,3.35-6.66,2.79-.56,0-1.67,1.12-2.78,1.67-1.11,1.67-3.33,1.12-5,1.67-.55,0-1.11-.56-2.22.56,0,.56-.55-.56-.55-.56-.55-.56,0-1.12.55-1.12,0,0,1.11.56,1.11-.56,0,0-1.66-.56-1.66,0-1.67,1.12-3.33.56-4.44.56-3.89,0-6.66-2.23-8.88-5-4.44-6.7-4.44-14-2.22-21.21,2.22-6.7,5-12.84,9.44-18.42,3.33-3.91,5.55-8.37,8.33-12.28,1.74-2.25,3.59-4.49,5.5-6.74a66.8,66.8,0,0,1-30.37-1.18c-6.11-1.67-10.56-4.47-15-7.26-1.11-1.12-2.78-.56-3.89.56a67.8,67.8,0,0,0-17.78,17.86c-.56.56-1.11,1.67-2.22,1.12a4.2,4.2,0,0,0-2.22,1.12c-4.44,6.7-8.89,11.16-13.89,17.86-5,7.26-11.11,14.51-16.67,21.21-2.78,3.35-5,6.7-7.78,9.49l-4.44,3.91c-3.33,2.23-2.22,5-3.89,7.26,0-.56-.56-.56-1.11-.56v.56h1.11c-3.89,4.47-7.22,9.49-11.67,13.4a23.16,23.16,0,0,1-5.56,2.23,41.36,41.36,0,0,0-6.67,3.91s-1.11,1.12-1.11.56c-.56-1.12.56-.56,1.11-1.12s.56-.56.56-1.67c-.56,0-.56-1.12-1.11-.56-3.33,2.79-3.89-.56-5.56-.56-1.11-.56-1.67-2.79-3.33-2.23a.78.78,0,0,1,0-1.12c2.78-2.79,0-5,.56-7.26.56-7.26,3.89-14.51,6.67-21.77a289.52,289.52,0,0,0,10-28.47,21.82,21.82,0,0,1,.95-3.28c-1.17,1.28-1.86,3.2-3.74,2.73-2.22-.56-4.44,1.12-6.11,1.67a44.21,44.21,0,0,0-8.89,4.47l-4.44,1.12c-2.78,1.12-5,1.67-6.67,3.91-1.11,1.12-19.44,6.7-20.56,5.58-1.11,0-2.78,3.91-4.44,4.47a40.51,40.51,0,0,0-10.56,3.91,89.43,89.43,0,0,1-14.44,5c-1.11,0-3.89-.56-3.89,0-1.11,2.79-3.33,2.23-4.44,1.67a23.75,23.75,0,0,0-8.89,0c-5.56,1.67-9.44-1.12-13.89-2.23a14.08,14.08,0,0,1-11.67-8.37c-.56-2.79-2.78-5-3.89-7.26-3.33-8.37,5.56-30.7,10.56-40.19,3.33-5.58,7.78-10.61,12.22-16.19,1.11-1.12,3.33-1.12,4.44-2.23,3.33-2.23,6.67-1.67,10-3.35l5.56-1.67h.56c1.11,2.23,2.78,2.23,5,1.12.56,0,1.67,0,.56,1.12-1.11,1.67,1.67,1.67.56,3.91-.56,1.12-.56,3.35-1.11,5a.78.78,0,0,0,0,1.12.55.55,0,0,1,.56-.56c1.67-2.79,1.11-6.14,2.22-8.93.56-.56,0-1.12.56-1.12a2,2,0,0,1,.56,1.12c-.56,7.26-3.89,14.51-8.33,21.77h-.56c0-1.67,1.11-3.35,2.22-5v-1.12c-.56-.56-.56,0-1.11.56l-1.11,2.23c-1.11-.56,0-1.12,0-1.67v-.56c0,.56-.56.56-.56,1.12-2.78,5-12.22,20.65-14.44,26.24-1.11,4.47-3.33,12.28-3.33,16.75,0,2.23,0,1.67,1.67,2.23.56,0,.56.56.56,1.12,1.11,5.58,6.67,7.26,12.22,5.58,4.44-1.67,8.89-1.67,13.33-2.79,13.89-3.91,43.89-17.86,57.22-23.44a146.47,146.47,0,0,0,21-10c2.66-7.47,4.44-15.2,7.86-22.93,2.22-5.58,2.22-11.72,5.56-17.3a5.71,5.71,0,0,1,2.78-3.35c1.11-.56,1.11.56,1.11,1.12s0,1.12.56,1.12a.55.55,0,0,0,.56-.56c2.22-2.23,4.44-2.23,6.11-1.12a41.38,41.38,0,0,0,6.67,3.91c.56,0,.56.56.56,1.67,0,0-1.11,2.23,1.11,1.12-.56,2.79,1.11,1.67,2.78,1.12,0,0,0,1.12.56,1.12,0,.56,0,1.12.56,1.12,1.11-1.12,1.11,0,1.11,1.12-.56,1.67,0,3.35-2.78,3.91-1.11,0-1.11.56-1.67,1.67a.55.55,0,0,0,.56.56,2,2,0,0,1,.56-1.12l.56-.56c-.56,1.67,1.67,1.12,1.11,2.79a4.2,4.2,0,0,1-2.78,3.91c-1.11.56-.56-1.12-.56-2.23,0,0,.56-1.12,0-1.12a1.2,1.2,0,0,0-1.11,1.12,11.68,11.68,0,0,0-2.22,3.35c-3.33,8.93-6.11,17.3-10,26.24-.56.56-1.11.56-1.11,1.12-.56-.56,0-1.12,0-1.67,0-1.12,0-2.23-.56-2.23-1.11-.56-1.11,1.12-1.11,1.67a.55.55,0,0,0-.56.56c-3.89,2.23-3.33,4.47-2.78,7.26.56.56,0,.56-.56.56-1.67-1.12-1.67.56-2.22,1.67-.56.56,1.67,2.23-1.11,2.23.56.56.56.56,1.11.56.56,1.12,1.11,0,1.67-.56A9.27,9.27,0,0,0,404.1,171c0-1.67,1.11,1.12,1.67,0,.56-.56.56-1.67,1.67-1.12a5.64,5.64,0,0,0-.56,1.67c-2.22,5.58-5,11.16-7.22,17.3V190c.56,0,.56-.56,1.11-1.12,5-6.14,11.11-11.72,16.11-18.42,3.33-4.47,6.11-8.93,10-13.4,6.11-7.81,11.67-15.07,18.89-22.33,4.44-3.91,7.78-8.93,13.33-11.72q12.5-5.86,21.67,0c4.44,2.79,8.89,10.61,12.78,14,9.91,5,25.27,4.47,34.73-.43,5.31-4.38,11.05-8.33,15.65-13.42,2.22-2.23,6.11-3.91,9.44-6.14h.55c1.67-1.12,3.33-3.91,3.33,0,2.78-3.35,6.11-3.91,10-4.46h1.11c2.22-2.23,5-1.12,7.22-.56l6.66,1.67h.56c-.56,1.67-.56,2.23,1.11,1.67,2.22-.56,2.78,1.67,4.44,2.23,3.89,2.23,7.77,4.46,10.55,8.37.55.56.55,2.23,1.11,3.35C600,129.83,599.45,129.83,599.45,129.27ZM567.81,250.39l.55-.56H566.7C567.25,250.39,567.25,250.39,567.81,250.39ZM531.73,199.6c1.67,0,2.22-1.12,2.22-1.67v-.56L531.17,199A.54.54,0,0,0,531.73,199.6Zm-9.44,7.26,1.11-.56c0-1.12-1.11,0-1.11-.56-.55,0-.55-.56-1.11,0A1.2,1.2,0,0,0,522.29,206.85Zm-7.22,3.91,1.66-1.12a.55.55,0,0,0-.55-.56c-.55,0-1.11.56-1.66,1.12C514.52,210.76,514.52,210.76,515.07,210.76Zm-218.2-5.68c-.56,0-.56.56-1.11.56h1.67A.55.55,0,0,1,296.87,205.08ZM408,162.66a11.68,11.68,0,0,0,2.22-3.35c2.22-3.35,0-6.7,3.33-10,1.67-1.67-.56-3.91,2.22-5.58,0-.56,0-1.12-.56-.56-1.11.56-3.33,1.67-2.78,2.79.56,2.23-1.67,3.91-2.22,5.58-.56,2.23-2.22,4.47-1.67,6.7.56,1.12,1.11,1.67-1.11,2.79,0,0,0,1.12-.56,1.12C406.88,162.66,407.44,162.66,408,162.66Zm165.36-32.83a.54.54,0,0,0-.55-.56c.55-1.12,1.11-.56,1.67-.56C573.91,129.27,573.91,129.83,573.36,129.83Zm-7.22-1.12a.55.55,0,0,1,.55-.56c.55-1.12,1.11-1.67,2.22-1.12,0,1.12,0,1.67-.55,2.23C567.25,129.27,566.7,129.27,566.14,128.71Zm1.67-3.35h-.56a2,2,0,0,1,.56-1.12C567.81,124.81,568.36,124.81,567.81,125.37ZM585.57,189l-.55.56a2.06,2.06,0,0,0,.55-1.67c.56-.56.56-.56.56-1.12C587.23,187.88,585.57,188.43,585.57,189ZM301.31,149.26c0,1.67,0,2.79-1.11,3.91C300.2,152.05,300.2,150.38,301.31,149.26Zm37.22-64.19c.56.56,0,.56-.56,1.12-3.89,2.23-5.56,6.14-7.78,9.49l-5,6.7c-.56-.56-2.78,1.12-1.67-1.12.56-.56-1.67,0-2.22-1.12.56-.56,1.67-.56,2.22-1.67H323a1.48,1.48,0,0,0-1.67,1.67c-3.33,1.67-5-1.12-7.22-1.67-4.44-1.67-1.67-5-2.22-7.81a4.27,4.27,0,0,0-1.11-2.79c-1.11-3.35-1.11-6.14,2.78-8.37,1.11-1.12,2.78-2.23,3.89-4.47,1.67-3.35,3.89-1.67,5.56-1.12,1.11,0,2.22.56,3.33,0,4.44-3.91,7.22-.56,9.44,1.12,2.22,1.12,4.44,2.79,2.78,6.14C338,82.28,337.42,84,338.54,85.07ZM271.72,22.34V20.66c-.56,0,0-.56,0-.56a2.06,2.06,0,0,1,.56,1.68A.55.55,0,0,1,271.72,22.34Zm-13.88,14c.56-.56,1.11-1.12,1.67-1.12s.56,0,.56.56c0,1.12-.56,1.12-1.11,1.12A1.94,1.94,0,0,1,257.84,36.3Zm-147.17,115v-.56c-.55-.56,0-1.12.56-1.12a.55.55,0,0,1,.56.56C111.22,150.77,111.22,151.33,110.67,151.33Zm2.22,16.75a.55.55,0,0,1,.56.56,2,2,0,0,0-.56,1.12c-.56-.56-1.11-.56-1.11-1.12A1.94,1.94,0,0,1,112.89,168.08Zm-.56-10.61.56-.56.56.56a.56.56,0,1,1-1.11,0Zm1.67,3.35c0,.56,0,1.68-1.11,1.68a5.64,5.64,0,0,1-.56-1.68l1.67-1.67C114.56,159.15,114,160.27,114,160.82ZM112.89,196c-.56,0-.56-.56-1.11-1.12.56,0,1.11-.56,1.11,0a1.94,1.94,0,0,0,1.11.56C113.45,196,112.89,196.56,112.89,196Zm.56,3.91a1.48,1.48,0,0,1-1.67-1.68c0-.56,1.11-1.12,1.67-1.12l1.11,2.23C114.56,199.91,113.45,200.47,113.45,199.91ZM268.39,21.22c0,.56,0,1.67-.56,1.67s-.55-1.12-.55-1.67V20.1c-.56.56-.56,1.12-1.11,1.12-2.78,2.23-2.78,4.47-3.89,7.26,0,1.12-1.67,2.23-2.78,2.79-1.67.56-1.67,1.68-2.22,2.79-1.67,2.79-1.11,3.91,1.67,4.47,0,0,.56,1.12,0,1.12a5.7,5.7,0,0,1-3.33,2.79,2.06,2.06,0,0,0,.56-1.67h-.56v1.67a4.57,4.57,0,0,0-2.78,2.79,108.16,108.16,0,0,1-6.11,19c-1.11,2.79-1.67,5.58-3.33,8.38,0,.56-.56.56-.56,1.12-.55,0-.55-.56-.55-1.67V70.92c-.56,0,0,.56-.56,1.12s-1.11,1.12-1.11,1.67c-.56.56-1.11,1.12-.56,1.12,3.89,1.12.56,4.47,0,6.14-2.78,8.38-6.11,16.19-9.44,24.57-1.11,2.23-1.11,4.47-3.89,6.14-2.22,1.12,0,3.35-1.67,5-1.11,1.12-2.22,2.79-4.44,2.23l1.67-2.79h-1.11c-1.11,1.12-.56,2.23-.56,2.79-1.11,2.23,1.11,3.91,0,6.14,0,1.67,0,3.35-2.22,2.23-1.11-.56-1.67.56-2.78,1.12-.56.56,0-2.79-1.11,0-.56,1.12,1.11,1.68,2.78,1.68.56-.56,1.11-.56.56,0,0,.56-1.11,1.67-1.67,1.12-2.22-2.23-3.33,1.68-4.44,2.79-3.33,1.68,0,3.91-1.67,6.7h1.11c1.11-.56,1.11-2.23,1.67-2.79s-1.11-1.12.56-1.68h1.11c0,1.12.55,1.68-.56,2.79-1.11,1.68-1.11,3.35-1.67,5-1.11,2.23-1.11,4.47-2.78,6.14l-1.11,2.23c-.55.56,0,1.12-1.11,1.68,0-.56.56-1.12.56-1.68s-.56-.56-.56-1.12v1.12l-1.11,2.23h-1.11a3.37,3.37,0,0,1,.56-2.23,10.77,10.77,0,0,0,2.22-6.7l.55.56s.56-.56,0-.56c0-.56-.55,0-.55,0-1.67.56-1.11,1.68-1.67,2.79,0,.56-.56.56-1.11,1.12h-.55c-1.11-1.12-1.67-1.12-2.22,1.12-.56.56,0,2.23,0,2.79.56,2.23,2.22,2.79,2.78,3.91,1.11,1.12-.55,4.47-2.22,6.14-2.22,2.23-1.11,4.47-2.78,6.7-1.11,1.68-3.89,2.23-2.78,4.47a1.72,1.72,0,0,1-1.11.56c0-.56-1.11,0-1.11-1.12v-.56c.56-1.12,0-1.68,0-2.23-.56.56-.56,1.12-.56,2.23-.55,1.12-2.22,2.23-2.22,3.35,0,2.79.56,5-2.22,7.26h.56c0,1.68-1.67,3.35-2.22,5-1.11,1.68-1.67-.56-3.33.56,0,.56-.56-1.12-1.11,0s0,1.68.56,1.68V191c.56,0,.56-.56.56,0,.56,0,.56.56,0,.56a1.05,1.05,0,0,1,0,1.68c-.56,1.12-1.11,0-1.67,0-1.11.56-2.78,2.23-3.89,1.12l-.56.56v.56c2.22-.56,3.33,1.12,5.55,0,.56-.56,1.11,0,1.67.56a2.91,2.91,0,0,1-1.11,2.23c-.56.56-.56,0-.56,0,0-.56.56-1.12-.56-1.12-.55,0-.55.56-1.11.56,0,.56,0,.56.56,1.12,0,.56,1.11,1.12,0,2.23s-.56-.56-1.11-.56H181.2c0,.56-.56.56,0,1.12,1.67,1.12,0,2.79-.56,4.47,0,1.12-2.78,1.68-2.78,1.68-1.67,1.67-2.78-.56-4.44.56-.55,0-.55.56-1.11,0,0-.56,1.11-1.12,0-1.68a2.06,2.06,0,0,0-.56,1.68c0,1.12,0,1.68,1.11,1.68a8.2,8.2,0,0,1,3.89.56c.55,0,1.67.56,1.11,1.12-1.11,1.12-1.11,0-1.67,0-2.22,0-3.89,1.68-5,3.35-1.11.56-2.22,0-2.78,1.12l.56.56c1.11,0,1.67-1.12,2.22-1.67v1.12c-2.78,2.79-1.11,5-.56,7.26,0,1.12,0,2.79-1.67,3.35a3.37,3.37,0,0,0,.55-2.23,1.72,1.72,0,0,0-1.11.56c-.56.56.56,1.12.56,1.68a2,2,0,0,0-1.67.56c-.56.56.56.56.56,1.12.56.56,0,1.68-.56,2.79a3.07,3.07,0,0,0-1.67,2.79c-.56,1.12-.56,2.23-2.22,1.12a1.94,1.94,0,0,0-1.11.56c2.78,2.79-1.67,5-2.22,7.26l-1.67,1.68c-.56-.56.56-1.12.56-1.68,0-1.67-1.11-2.23-2.22-3.35v.56a.78.78,0,0,0,0,1.12c.56,1.67,1.11,3.35,0,5.58l-1.11,1.68c-1.11.56-3.33,1.12-1.67,2.79.56.56-1.11,1.12-1.67,1.12-1.11-.56-1.67-.56-2.22,1.12,0,1.12-.56,3.35-2.78,2.79-.56,0-1.11,0-1.11.56a2.06,2.06,0,0,0-.56,1.68c1.67,1.67,2.22,3.35-.55,5.58-.56.56.55.56.55.56,1.11-.56,1.67.56,2.22.56,0,.56,0,1.12-.56,1.12,0,.56-.56,1.12-.56.56-.56,0,0-.56,0-.56a1.84,1.84,0,0,0-3.33,0c-2.78,2.79-5,6.14-8.33,8.38-.55.56-1.67,2.23-1.11,3.35.56.56,0,.56,0,1.12-.56.56-1.67,1.12-2.22.56-2.78-1.12-7.77.56-10.55-.56-3.89-1.67-9.44-2.23-11.66-6.7-2.78-5.58-10-10.05-11.11-16.19-1.67-6.14-2.22-12.29-2.78-18.43-.56-8.38-1.67-16.19-1.11-25.13.56-6.14,0-12.84-.56-19-.56-7.26.56-14.52.56-21.78,0-6.14,1.11-12.84.56-19v-6.14c-1.67-7.82,0-16.19,0-24.57a104.4,104.4,0,0,0-.56-22.9A122.11,122.11,0,0,1,94,84.88a32,32,0,0,0-2.22-12.29c-.56-1.12,3.33-3.35,1.11-2.79-1.67.56-1.67,0-2.22-.56.56,0,1.11-.56,1.67-.56-.56-.56-1.11-.56-1.67.56-.56.56-1.11,1.12-1.67,1.12-1.11,1.12-1.67,2.79-2.78,2.23-1.11-1.12,0-2.79,1.11-3.91,0-.56,1.11-1.12,1.11-1.67-1.11,1.12-2.22,0-2.78,0-1.11.56,0,1.12,0,1.67.55,2.79-1.67,4.47-5,5-1.67,0-2.22,1.12-2.22,2.79-1.11-.56-1.67-.56-2.78.56v.56c.55,0,1.11-.56,1.67-.56a.54.54,0,0,1,.56.56c.56,0,.56.56.56,1.12-.56,0-1.67.56-2.22.56-1.11-.56-1.11.56-1.67,1.12a2,2,0,0,0-1.67-.56v.56h1.67a4,4,0,0,1-3.33,1.68c-.56-.56-1.67,0-1.11.56s1.67,1.68,0,2.79H66.8c-.56,0-.56-1.12-1.11,0a.55.55,0,0,0,.56.56c1.11,0,1.67,0,2.22.56l-2.22,1.67c-.56.56-2.22.56-1.67,1.68,0,1.12,1.67.56,2.22.56-1.11.56-2.22,1.68-1.11,3.35-.56,0-1.11.56-1.67.56s.56-.56.56-1.12V92.14a3.33,3.33,0,0,0-2.22.56c-.55,0-.55.56,0,1.12s-.55,1.12-1.11,1.12c-2.78.56-5,.56-7.22,1.68-1.11,0-.56.56-.56,1.12,0,0,0,.56.56,0,2.22-1.12,2.78.56,3.33,1.12a4.24,4.24,0,0,1-1.11,2.23c-1.11.56-.56-.56-1.11-1.12a.55.55,0,0,0-.55-.56v1.12a7.12,7.12,0,0,0,.55,3.35.55.55,0,0,1-.55.56c-.56.56-1.11,0-.56-.56,0-.56.56-1.68-.56-1.68-1.11.56-.56,1.12-.56,1.68s-1.67,1.68-1.11,2.79c0,.56-.56,1.12-.56.56,0-1.67-2.78.56-2.22-1.12V105c0,.56-.56.56-.56,1.12l-.56.56c-.55-.56-.55-.56-1.11-.56H44c0-1.12,1.11-.56,1.11-1.12-.56,0-.56,0-.56-.56-.55-.56.56-1.68,1.11-2.23,0-2.23,2.78-3.91,2.22-6.14,0-2.23,2.78-2.79,4.44-3.91C52.91,91.58,54,91,54,90.46c0-1.12-.56-.56-1.67-.56-.56,0-.56,0-.56-.56.56-1.12,1.11-1.68,1.67-1.12a2,2,0,0,0,1.67-.56c.56-1.12,1.11-1.68,0-2.23-.55-.56,0-.56.56-1.12a1.94,1.94,0,0,0,1.11-.56c0-1.68.56-2.23,2.22-1.68,1.67,0,1.67-1.68,1.11-2.79,0-.56-2.22-1.12.56-1.12l.56-.56c.56-.56,0-.56,0-.56a23.94,23.94,0,0,1-2.78-.56c-.55,0-2.22,0-1.11,1.12.56.56-.56,1.12-1.11,1.68,0-.56,0-.56-.56-.56,1.11-1.12-1.11-1.67,1.11-2.79,2.22-.56,3.89,0,5.55-2.23.56-.56,2.22-.56,1.67-1.12s-1.11-1.68-2.22-1.12a2,2,0,0,0-1.67.56c.56-.56,1.11-1.12,1.11-1.68.56-2.79,3.89-5,4.44-6.7.56-5,5.55-6.14,7.22-9.49,2.22-5,7.22-7.82,11.11-11.17,1.67-1.12,4.44-2.79,3.89-5.58,0-.56,1.11-3.35,3.33-2.23,1.11.56,2.78,0,3.89,0,3.89-.56,6.66,1.12,8.33,4.47l5,6.7c2.78,2.79,5,6.14,5,11.17a.55.55,0,0,1-.56.56c-3.33.56-.56,2.79-2.22,3.91-1.11.56-.55-1.68-1.67-1.12-1.11,1.12,0,2.23,0,3.35,0,2.23,2.22,3.91,1.11,6.14a.54.54,0,0,0,.55.56,2.91,2.91,0,0,0,1.11-2.23c-.56-.56,0-1.12,1.11-1.67.56,0,1.11-1.12,1.67,0,0,.56-1.11.56-1.11,1.12-1.11,1.68,0,1.12.56,1.12,1.11-.56,1.11,0,1.11.56,0,1.12-1.11.56-1.11,1.12-1.11.56-2.78,1.12-3.33,2.23a7.12,7.12,0,0,0-.55,3.35s1.11,1.12,1.67-.56a1.2,1.2,0,0,1,1.11-1.12c.56,0,.56.56,1.11,1.12,0,.56-.56.56-1.11,1.12a1.94,1.94,0,0,0-1.11.56c0,1.12.56,0,1.11.56.56,0,2.22-1.67,2.78,0,.56.56-2.22,5.58-3.33,5.58-1.11.56-1.11,1.12-1.11,1.67,1.11,0,2.78-.56,2.78.56s-1.11,1.68-2.22,1.68c-.56,0-.56.56-.56,1.12,0,5.58.56,11.17.56,16.75a2.66,2.66,0,0,1-1.67,2.79c-.56,0-.56.56,0,1.12,0,0,0,1.12.55.56s1.11-1.12,1.11-.56c.56.56,1.11,1.12.56,2.23-.56,0-.56.56-1.11,0-1.11.56-1.11,1.12,0,1.12,1.67,1.67,1.11,6.14-.56,8.38l-.55.56c1.11,1.68,0,4.47.55,6.14a3.58,3.58,0,0,1,0,3.35c-.55,1.12-1.11,2.23-.55,2.79,1.11,2.23-.56,4.47-.56,6.7,0,1.68,2.78,1.12,2.78,2.79h.56c.56.56,2.22,1.12,1.11,2.23-.56,1.12-.56-1.12-1.67-.56a.55.55,0,0,0-.56-.56v1.12c.56,2.23-2.78,3.91-2.78,6.14h-.56c-.56,0-1.11-1.12-1.67,0a2.51,2.51,0,0,0,0,2.79c.56,1.12,1.67-.56,1.67-.56.56,1.12,4.44,0,1.67,3.35-1.11,1.68,2.22,1.68,1.67,3.35-.56,1.12,0,1.68-1.11,2.79-.55,0-1.11.56-.55,1.12,2.22,1.12,0,3.35-.56,5.58s1.67,1.68,2.78,2.23h.56a.55.55,0,0,0-.56.56c-1.67.56-1.11,2.79-3.33,2.79a2.06,2.06,0,0,1,.56,1.67c.56.56,1.67-.56,2.22-.56s1.11-1.12,1.67-.56a1.94,1.94,0,0,0-1.11.56c0,1.12-3.33,1.12-1.11,2.23-2.78,1.68.56,2.23,0,3.91-.56,0,0,.56-.56.56-.55.56-2.22.56-1.11,1.67.56.56,2.22,0,3.33-1.12a2.21,2.21,0,0,1,2.22-1.12c.56.56-.56,1.67-.56,2.23,0,1.12-3.33,2.79-.55,3.91l-.56.56c-.56,0-1.11,0-1.11.56-2.22,1.67-2.78,7.82-1.11,10.05.56.56,0,1.12-.56,1.67-1.11,2.23,1.67,3.35-.55,5.58l.55.56c.56,0,.56,0,1.11-.56l.56-.56s-.56.56.56.56c.56.56.56,1.67,1.67,1.67a3.37,3.37,0,0,0,.56-2.23c.56-1.12,0-1.12-1.11-1.12,1.11-1.68,2.22-2.79,3.33-1.68s0,2.23-.56,2.79l-1.11,1.12c2.78,2.79-1.67,2.79-2.22,4.47l-1.11,1.12a2,2,0,0,1,1.67-.56c2.22-2.23,2.78-1.12,2.78.56s.56,3.35.56,5a.55.55,0,0,1-.56.56h-1.11c-.56,0,.56-1.68-.56-.56l-1.67,2.23c1.11-.56-1.67,2.23.56,1.68.55,0,1.11,0,1.11-.56.56-.56.56-1.68,1.11-1.12,1.11,0,1.11.56,1.11,1.12-.56,5,.55,9.49,1.11,14.52,0,1.67-2.22,2.23-2.22,3.35,2.22-1.12,2.78.56,2.78,1.68-.56,6.14,1.67,10.61,3.33,16.19.56,2.79,4.44,3.35,7.22,0a89.9,89.9,0,0,0,11.66-16.75c4.44-6.14,2.22-15.08,6.11-21.78.56-.56,1.11-1.12,1.67-1.12s-.55.56-.55,1.12a.56.56,0,1,0,1.11,0,61.17,61.17,0,0,0,4.44-8.38v-.56l-.56.56c-1.11.56-.56,2.79-2.78,2.79a17.5,17.5,0,0,0,2.78-5.58c.56-1.12,1.11-2.79,2.78-2.23,1.11,0,1.67-1.12,2.22-1.68,1.11-1.12.56-3.91,3.33-3.35.56,0,.56-.56,1.11-1.12a.55.55,0,0,0-.56-.56c-3.33-1.67-3.33-2.23,0-5.58,2.22,0,2.22-2.23,3.33-2.79v-1.12c-.56,0-.56.56-1.11.56-.56,1.12-.56,2.23-2.22,3.35.56-3.35,3.89-6.14,5-9.49a.55.55,0,0,1,.56-.56c0,.56,0,1.12-.56,1.12,0,1.12-1.11,2.23-.56,2.23,1.11,0,1.11-1.12,1.67-2.23,2.78-4.47,4.44-8.93,7.22-13.4,7.22-15.08,12.77-27.36,22.77-46.91,11.66-23.45,28.32-67.57,31.1-75.95,2.78-8.93,5-17.87,7.77-26.25,2.22-6.14,3.33-12.29,7.22-18.43C246.17,1.12,249,1.12,250.62,0c.56,1.12,8.33,3.35,9.44,3.91s1.67,2.79,4.44,1.67c1.67,2.79,5,3.91,5,7.82,0,1.12.56.56,1.11.56.56.56,1.67.56.56,1.67C269.5,17.31,270.05,19.54,268.39,21.22ZM47.92,101.63c-.55,0-1.11.56-1.67,1.12l.56.56a2,2,0,0,1,1.67-.56C48.47,102.19,47.92,102.19,47.92,101.63ZM50.69,96c-.56,0-.56,0-.56.56l1.67,1.67c.56.56.56,0,.56,0C52.36,97.17,51.8,96.61,50.69,96Zm2.22,5.58c.56,0,.56,0,.56-.56.56,0,0-.56,0-1.68a6.92,6.92,0,0,1-1.11,1.68A.54.54,0,0,0,52.91,101.63Zm.56-7.82c0,.56-.56.56-.56,1.12.56.56,1.11,0,1.11-.56A.55.55,0,0,0,53.47,93.81Zm3.33-1.68c-.56,0-1.11,0-.56.56,0,.56.56,1.12,1.11,1.68,0,.56.56,0,.56-.56C56.8,93.81,59,91.58,56.8,92.14Zm2.78,0L59,92.7v.56a1.72,1.72,0,0,0,1.11-.56A.54.54,0,0,0,59.58,92.14ZM69,59.19l-1.67,1.68h.56A1.2,1.2,0,0,0,69,59.75ZM84,70.36c-1.11,0-1.11.56-1.11,1.12-.55,0-.55.56,0,.56s1.11-.56,1.67-1.12C84.57,70.36,84.57,70.36,84,70.36Zm14.44,81.53a1.72,1.72,0,0,1-1.11.56L99,154.12l.56-.56Zm.56,3.35c-.56,0-.56.56-1.11.56l.56.56c0-.56.56-.56,1.11-.56A.55.55,0,0,1,99,155.24Zm8.89-44.12c.56,0,.56,0,1.67-.56-1.11-.56-1.11-1.12-1.11-1.12l-1.11,1.12C107.34,111.13,107.34,111.13,107.89,111.13Zm1.11-6.7c1.67-.56,1.67-1.68,1.67-2.79,0-.56-.55-1.12-.55-1.68,0,.56-.56,1.12-.56,1.68,0,1.12-.56,1.68-1.11,1.68-.56.56-.56.56-1.11.56C107.89,103.87,108.45,104.42,109,104.42Zm1.67,83.76h-.55l-.56.56a.54.54,0,0,1,.56.56C110.11,188.75,110.67,188.75,110.67,188.19Zm3.89,44.67c.56,0,.56,0,1.11-.56h-1.11l-.55.56Zm-1.11-1.68c.56-.56,1.11-1.12,1.11-1.67v-1.12c-.55,1.12-1.11,1.68-1.11,2.23Zm-1.11-4.47h1.11c0-.56-.56-.56-1.11-.56h-.56A.54.54,0,0,0,112.34,226.72Zm1.67-8.93v1.12c.55-1.12,1.67-1.12,1.67-1.67,0-1.12.56-2.79-.56-2.79-1.11-.56-1.67,1.68-3.33,1.68v1.12c0,.56.56,0,1.11,0C113.45,216.67,115.11,216.11,114,217.78Zm-1.11,6.14a2,2,0,0,1-1.67.56c1.11,1.12,2.78.56,3.89,1.12.56,0,1.11,0,1.11-.56C116.22,222.81,114,225,112.89,223.93Zm25,45.79A5.55,5.55,0,0,0,135.1,272v.56l2.78-1.67Zm2.78-3.35a.55.55,0,0,0-.56.56h.56l.56-.56Zm13.88-25.13h1.11a1.71,1.71,0,0,0-1.11-.56c0-.56-.56,0-.56,0Zm-2.78,8.93h.55c-.55,0-.55-.56-1.11-.56C151.21,250.17,151.21,250.17,151.76,250.17Zm.55-17.31c.56-.56,1.11-.56,1.11-1.12s-1.11-.56-1.67-1.12l-.56.56ZM145.1,229v.56c.55-.56,1.11-.56,1.11-1.12A1.93,1.93,0,0,0,145.1,229Zm8.33-7.26c-1.11.56-1.11-1.12-2.78-.56.56-.56.56-1.12.56-2.23a.54.54,0,0,0-.56.56c0,.56-.56,1.12,0,1.67-.56,0-2.22,1.12-2.22,0-.56,0-1.11.56-1.67.56a2.06,2.06,0,0,0-.56,1.67.54.54,0,0,0,.56.56c1.11-1.12,2.78-1.12,3.89-2.79a2,2,0,0,0,2.78,1.12H154A.55.55,0,0,0,153.43,221.69Zm5-12.84-.56.56h1.67C159,208.85,159,208.85,158.43,208.85Zm-3.89,19-.56.56c0,.56,5.55,4.47,6.66,4.47,0,.56.56,0,.56-.56C161.76,231.19,155.1,228.39,154.54,227.84Zm6.66-24c-.56,1.12-.56,1.12-.56,1.68l.56.56a.54.54,0,0,1,.56-.56C161.76,204.94,161.76,204.94,161.21,203.82Zm3.89,24.57c-.56-.56-.56,0-1.11.56s-.56,1.67-1.11.56c0-.56-.56-.56-1.11,0a.55.55,0,0,0,.56.56v1.68c0,.56-.56,1.67.56,1.12.55,0,1.67,0,1.67-1.12,0-.56.56-1.12.56-2.23C165.65,229,165.65,228.39,165.09,228.39Zm1.67-3.91-.56.56c0,.56,0,.56.56.56l.56-.56C167.31,224.49,167.31,224.49,166.76,224.49Zm8.89-18.43a.54.54,0,0,1,.56-.56c0-.56-.56-.56-.56-1.12v.56C175.09,205.5,175.64,205.5,175.64,206.06Zm0-29.6a2,2,0,0,0-.56,1.12.55.55,0,0,0,.56.56c.56,0,.56-.56,1.11-1.12C176.76,177,176.76,176.46,175.64,176.46Zm7.22,8.93V186c0,1.12.56,1.67,1.67,2.23l1.11-1.12C185.09,186,183.42,187.07,182.86,185.4Zm3.89,1.68c0,.56-.56,1.12.55,1.12q.83,0,1.67-1.68c0-.56,0-1.12-1.11-1.12C187.31,185.4,187.31,186.51,186.75,187.07Zm2.78-7.82a1.94,1.94,0,0,0-1.11.56v.56c.56,0,.56,0,1.11-.56Zm0,3.35v.56c.56,0,.56-.56,1.11-1.12,0-.56,0-.56-.56-1.12C190.08,181.49,189.53,182,189.53,182.6Zm1.67-6.7a.54.54,0,0,0-.55.56V177c.55-.56.55-.56,1.11-.56Zm8.89-12.29-.56.56v1.12l.56-.56Zm1.11-9.49-.55.56c0,.56,0,.56.55.56h.56C201.75,154.68,201.75,154.68,201.19,154.12Zm10.55-22.9h.56a.54.54,0,0,0,.56-.56C212.3,130.67,212.3,130.67,211.74,131.23Zm6.66-7.82c-1.11,0-.56,1.12-1.11,1.68-.56,1.12,0,1.67,1.11,1.67a1.2,1.2,0,0,0,1.11-1.12C220.07,124.53,219,124,218.41,123.41Zm8.33-16.75c-.56,0-.56.56-.56,1.12v1.12l1.11-1.68C227.29,106.66,227.29,106.1,226.74,106.66Zm2.22-6.14-.55.56c0,.56,0,.56.55.56Zm3.33-7.82c0-.56-1.11,0-1.11,0-.56,1.12.56.56,1.11,1.12.55,0,.55,0,0,.56-1.11.56-1.67.56-1.67,1.68a1.72,1.72,0,0,0,1.11.56c.56-.56,2.22-1.12,1.67-2.23C235.07,92.14,232.85,93.26,232.29,92.7Zm5-14.52c-.56,0-.56.56-1.11.56l.56.56.56-.56ZM66.8,90.46c.56-.56,1.11-1.12,1.11-.56a4.79,4.79,0,0,1,0,3.91c-1.11,1.12-1.67,0-2.22,0C66.8,92.7,68.46,91.58,66.8,90.46Zm125,93.26.56.56c-1.11,1.12-1.11.56-1.67,0C191.19,184.28,191.19,183.16,191.75,183.72ZM79.57,77.06c0,.56-1.11.56-1.67.56a2,2,0,0,1,.56-1.12C79,76.5,80.13,75.95,79.57,77.06ZM54,106.1c0,.56-.56.56-.56,1.12s-.56,1.68-1.11,0v-.56H51.8l.56-.56Zm58.87-45.79c-1.11-.56-.56-1.12,0-2.23a3.37,3.37,0,0,1,.56,2.23Zm-1.11,3.91h-1.67c-.56-.56.55-1.67.55-2.23C111.22,62.54,112.34,63.1,111.78,64.22Zm38.87,151.89h-.56c-.56-1.12,0-1.68.56-2.23C150.65,214.43,151.21,215.55,150.65,216.11Zm19.44-36.86,1.11-1.68v.56c0,.56-.56,1.12-1.67,2.79Zm-13.88,25.13v-.56a1.94,1.94,0,0,1,1.11-.56l.56.56C157.32,203.82,156.76,204.38,156.21,204.38Zm-40-37.41a.54.54,0,0,1,.56-.56c.56,0,.56.56,1.11,1.12l-1.11,1.12C116.78,168.08,116.22,167.53,116.22,167Zm.56-17.31c-.56,0-.56,0-.56-.56h1.11l.55.56-.55.56A.54.54,0,0,1,116.78,149.66Zm0-36.86c.56,0,.56-.56,1.11-.56-.55.56-.55.56-.55,1.12Zm-2.22-14v.56c-.55.56-.55.56-1.11.56V99.4A1.94,1.94,0,0,1,114.56,98.84Zm1.11,86,.56.56v1.12l-1.11-1.12A.54.54,0,0,0,115.67,184.84Zm1.67-6.14-1.11,1.12v-1.68l1.11-1.12Zm0-8.38h-.56c-.56.56-1.11.56-1.11,0s.56-.56,1.11-.56A.54.54,0,0,1,117.33,170.32Zm-1.11-10.05c-.56.56-.56-.56-.56-1.12,0,0,0-.56,1.11-.56,0,.56.56.56.56,1.12S116.78,160.27,116.22,160.27Zm.56-8.38c.56,0,.56,0,.56,1.12-.56,0-.56,1.12-1.11,1.12s0-1.12,0-1.68C116.22,152.45,115.67,151.89,116.78,151.89ZM114,121.74c0,.56,0,1.68-.56,1.12s-.56-1.68-.56-2.79h.56C113.45,120.62,115.67,120.06,114,121.74Zm.55-10.05c.56-.56.56,0,1.11,0l-2.22,2.23c-.56.56-.56,0-.56-.56C113.45,112.8,114,111.68,114.56,111.68Zm-2.22-21.78a.54.54,0,0,0,.56-.56,2,2,0,0,0,.56,1.12.54.54,0,0,1-.56.56A2,2,0,0,1,112.34,89.91Zm1.11,12.84-.56-.56h.56Zm2.22.56-1.9-.48c1.17.1,3.06-1.66,3.57-.64C117.33,103.31,116.22,102.75,115.67,103.31Zm0-19h.56c0,.56,0,.56-.56.56Zm-.56,6.7.56-.56a.54.54,0,0,1,.56.56Zm.56-8.93V81a.55.55,0,0,1,.56-.56c.56,0,0,.56,0,.56C116.22,81.53,116.22,81.53,115.67,82.09Zm-2.78-16.19c-.56,0-1.11,0-1.11-.56l1.11-.56c.56.56.56.56,1.11.56A1.72,1.72,0,0,1,112.89,65.89Zm.56-2.23V63.1a.55.55,0,0,1,.56-.56v.56C114,63.66,114,63.66,113.45,63.66Zm-3.89-19c-.56,0-1.11-.56-.56-.56,0-.56.56-.56.56-1.12,0,.56.56.56.56,1.12A.54.54,0,0,1,109.56,44.67ZM46.25,94.37c-.56,0,0-.56,0-1.12a5.57,5.57,0,0,1,2.22-2.79c.56,0,0,.56,0,.56C47.36,92.14,47.92,93.81,46.25,94.37Zm-.56,4.47c-.56,0-1.11-.56-.56-1.12,0-.56.56-.56.56-1.12.56,0,.56,1.12.56,1.12C46.25,98.28,46.25,98.84,45.69,98.84ZM44,107.22l.55-.56c.56.56,1.11.56,2.22.56-.56.56-1.11.56-1.11,1.12C45.14,107.22,44,108.33,44,107.22Zm1.67,7.26c-.56.56.56,2.79-2.22,2.23-1.11,0,1.11-1.68-.56-2.23-.56,0-.56-1.67-1.11.56-.56,1.68-1.67,1.68-2.22.56,0-1.68-1.67-3.91,2.22-5,.56,0,0-.56,0-1.12a1.73,1.73,0,0,1,.56-1.12.54.54,0,0,0,.56.56c0,1.12,1.11,1.12,1.67,1.68C45.69,111.68,48.47,111.13,45.69,114.48Zm-8.33,3.91-1.67,2.23v-1.68a4.57,4.57,0,0,1,2.78-2.79c.56,0,.56-.56,1.11-.56C40.7,117.27,38.47,117.27,37.36,118.39Zm3.89-15.64-.55-.56a.55.55,0,0,0,.55-.56.55.55,0,0,1,.56.56A.54.54,0,0,0,41.25,102.75Zm-2.78,4.47c0-.56.56-.56.56-1.12a.55.55,0,0,1,.56.56A1.94,1.94,0,0,1,38.47,107.22ZM37.36,119.5l1.11-1.12v1.12a.56.56,0,1,1-1.11,0ZM.16,180.37v-.56H.71A.54.54,0,0,1,.16,180.37ZM40.7,124v2.79a4.18,4.18,0,0,0-2.22.56h-.56c2.22,1.12-2.22,1.68-1.11,3.35s-.56,5-3.33,6.7c-1.67.56-.56,2.79-1.67,4.47-.56,1.12-.56,2.79-1.67,3.35-.56-.56-.56-1.12-1.11-.56a.55.55,0,0,0-.56.56c.56.56,1.11,0,1.67,0,0,1.12-1.11,1.68-1.67,2.23-.56,0-1.11,0-1.11.56-.55.56-.55,1.12,0,1.12,2.22,1.68-.55,3.91-.55,5.58,0,.56-1.11,1.12-.56,1.12.56.56.56,2.23,1.67.56h.56c1.11,1.12-1.11,2.23-.56,3.35l-.56.56c-1.67-.56-3.89.56-5-.56-.56,0-1.67,0-1.67.56a2.55,2.55,0,0,0,0,2.79,2.34,2.34,0,0,1-1.11,3.35c-.56.56-1.67.56-1.11.56,1.67,1.68-2.78,5,.56,5.58,2.78.56,2.22,1.68.56,3.91-.56.56-1.67,1.67-.56,2.23.56.56,1.67-.56,2.22-1.12,2.22-1.12,2.78-2.79,3.89-4.47h.56v.56c-1.11,1.67-1.11,2.79-1.67,4.47-.56,1.12-1.11,3.91-2.78,1.68H20.7c0,.56-.56,1.12,0,1.68.56,1.12,1.67,1.68.56,3.35l.56.56c1.11,0,1.11.56.56,1.68-1.67,1.12,1.67,2.79-1.11,3.35-2.78,1.12-6.11,1.67-8.89,0-1.11,0-3.33.56-2.22-2.23H9c-3.33,2.23-5.55,0-7.77-1.12-2.22-.56-.56-3.35,0-5a9.46,9.46,0,0,0,1.11-2.79C4,176.46,1.27,177.58.71,177c0,0-1.11.56-.56-.56L2.38,172c.55-.56,1.11.56,1.11.56H7.93a5.64,5.64,0,0,0,.56-1.67c0-.56-.56-.56-1.11,0-2.78.56-1.67-.56-2.22-1.68,0-2.23,1.67-2.79,1.67-4.47a2.22,2.22,0,0,1,2.78-2.79c1.11,0,1.67-.56,1.67-1.12,0-1.12-1.11,0-1.11,0-.56,0-1.11,0-1.11-.56l-.56.56c-.56-1.12-1.67-2.23,0-3.35,1.11-1.12,2.78-2.79,5-2.23H14c0-3.35,2.78-1.12,3.89-2.23.56-.56,1.11-1.68.56-1.68-2.22-1.12.56-3.91-1.67-5a2,2,0,0,0,.56-1.12,5.37,5.37,0,0,0,5-.56c0,1.12,1.11.56,1.67,0,.56,0,.56-1.12.56-1.12-1.11-.56-1.67,1.12-2.22,1.12-.56-1.68-1.11-3.35-3.33-3.91,1.11-1.68,2.22-2.79,4.44-2.79.56,0,2.22,1.12,1.67-1.68,0-1.12,2.22-3.35,2.78-5.58.56-2.79,2.78-1.68,4.44-2.23-.56-2.23,1.11-2.79,2.78-4.47C39,120.06,38.47,125.09,40.7,124ZM16.82,174.79c.56,0,1.11,0,1.11-1.12l-.56-.56a1.2,1.2,0,0,0-1.11,1.12C16.26,174.79,16.26,174.79,16.82,174.79Zm-4.44-1.12a.54.54,0,0,0,.56.56h.55c0-.56-.55-.56-1.11-1.12Zm2.78-10.05a2,2,0,0,0-.56-1.12,2.91,2.91,0,0,0-1.11,2.23c-.55,0,0,0,0,.56Zm-5,6.7c0,1.12,1.11.56,1.67,1.12.56-1.12,1.11.56,1.11-.56.55,0-.56-.56-1.11-1.12C11.26,169.76,10.71,170.32,10.15,170.32ZM14,160.27c-2.78-.56-1.67,1.68-2.22,2.23s-.56,1.68,0,1.68a14.79,14.79,0,0,1,2.78-3.35C15.15,160.27,14,160.27,14,160.27Zm3.33-4.47h-.56c-.55-.56.56-1.67-1.11-1.67-.56.56-.56,1.67-.56,2.79s.56,1.12,1.11,1.12c1.11-.56,1.67,0,2.22-1.12S18.48,155.8,17.37,155.8Zm3.33-7.26a1.2,1.2,0,0,0-1.11,1.12c-.56.56-.56,1.12.55,1.12.56,0,1.11.56,1.11-.56A1.07,1.07,0,0,0,20.7,148.54Zm2.22-8.38a1.2,1.2,0,0,0-1.11,1.12l1.11,1.12c.55,0,.55-.56.55-1.12C24,140.72,23.48,140.16,22.92,140.16Zm0,12.84h-.56c1.11,1.12,0,3.35,1.11,4.47l.56-.56C22.92,155.8,25.15,153.57,22.92,153Zm2.78-6.14c-.56,1.12-1.67,1.67-2.22,2.23v2.23A11.69,11.69,0,0,0,25.7,148Zm5.55-15.64a1.2,1.2,0,0,0-1.11,1.12c-.56.56-.56,1.12,0,.56a5.58,5.58,0,0,0,1.67-.56C32.37,131.79,31.81,131.23,31.25,131.23Zm4.44-5.58c-1.67,0-1.67,1.67-2.78,2.79,1.67-.56,2.78,0,3.33-1.68C36.81,125.64,36.25,125.64,35.7,125.64Zm6.11.56v1.12c-.56-.56-.56-.56-1.11-.56C41.25,126.2,41.81,125.64,41.81,126.2ZM30.7,148c0,1.68-2.22.56-3.33,1.12l1.11-1.67C29,147.42,31.25,146.86,30.7,148ZM6.82,161.38v-.56H8.49A2,2,0,0,1,6.82,161.38Zm10.55-17.31H19l-1.67,1.12C16.82,144.63,16.26,144.63,17.37,144.07ZM19,143c-.56,0-1.11,0-1.11-.56s0-1.68,1.11-1.68C18.48,141.84,19.59,142.4,19,143ZM30.7,124.53c-.55-.56-.55-1.12-1.11-1.12.56,0,.56-.56,1.11-.56,0,.56.56.56.56,1.12A.54.54,0,0,1,30.7,124.53ZM23.48,135.7c-.55,0-1.11-.56-1.67-1.12a23.92,23.92,0,0,0,2.78-.56c1.11-.56.56,0,.56.56C24.59,135.14,24.59,136.25,23.48,135.7ZM12.93,151.89c-.56,0-1.11,0-.56-.56l2.22-1.67v1.12C14,151.33,13.48,151.89,12.93,151.89Zm7.77,20.66c0-1.67-2.22-1.67-1.11-2.79,1.11-1.68,1.11-3.91,3.89-4.47,1.67,0,1.67.56,1.11,1.68s-2.22,2.79-1.67,4.47Zm4.44-9.49c0-.56.56-.56,1.11-.56l.56.56c0,.56-.56.56-1.11.56S24.59,163.62,25.15,163.06Zm7.22-12.84c1.11,0,2.78-.56.56,1.12-1.11.56-2.78,2.23-2.22,3.35.56.56-.55,1.12-.55.56A2,2,0,0,1,29,152.45C29.59,151.33,30.14,148.54,32.37,150.22Zm-.56,11.73c-.56.56-1.11,1.12-1.11,1.68v-1.68l.56-1.12C31.81,160.82,31.81,161.38,31.81,161.94Zm.56-16.19c-.56,0-.56,0-.56-.56.56-.56,1.11-1.68,2.22-2.23.56,0,.56,1.12,1.11,1.68C34,145.19,32.92,145.19,32.37,145.75Zm5-9.49c1.11,0,.56.56.56,1.12-1.11.56-.56,2.23-2.22,2.23a1.73,1.73,0,0,0-.56-1.12C36.81,138.49,36.25,136.25,37.36,136.25Zm2.22-4.47v-.56c1.11-.56.56-2.79,1.11-2.23,1.67.56,0,2.23-.56,3.91-.56,0-1.11,1.12-1.67.56A1.16,1.16,0,0,1,39.59,131.79ZM41.25,134a.54.54,0,0,1-.55.56c-1.11,0-.56-1.12-.56-1.68C41.25,132.9,41.81,132.9,41.25,134ZM44,124c.55.56,1.67,0,1.11,1.68,0,.56,0,1.12-1.11.56-1.11,0-1.11-.56-1.11-1.12A1.2,1.2,0,0,1,44,124ZM45.14,134c0-.56,0-.56.56-1.12,0,.56,0,.56.56.56l-1.11,1.12C45.14,134,44.58,134,45.14,134ZM44,120.62c1.11,0,1.67-.56,2.78-1.12-.56.56-1.11,1.68.56,1.68l-.56.56C45.69,121.74,44.58,121.74,44,120.62Zm-3.89.56,1.11-1.12c1.67-.56,2.22,0,2.78.56-.56,0-1.67.56-2.22.56Zm.56-3.91h.55c.56.56,0,1.68,0,2.23C40.7,118.94,40.14,118.39,40.7,117.27Zm1.11,2.23-.56.56v-.56ZM49,107.77a1.72,1.72,0,0,1-1.11.56c-.55,0-.55-.56-.55-1.12C47.92,107.22,48.47,107.77,49,107.77Zm2.22,7.82c-.55.56-1.11,1.12-1.67,1.12a.55.55,0,0,1-.56-.56L50.69,115A.55.55,0,0,0,51.25,115.59Zm-.55,6.7h.55l-1.11,1.12v-.56A.54.54,0,0,1,50.69,122.29Zm15-26.8-2.22,1.68-.56-.56C63.46,95.49,64.58,96,65.69,95.49ZM72.35,86c.56,0,0,.56,0,1.12-.55.56-.55,1.12-1.67,1.12L69,87.11A7.86,7.86,0,0,0,72.35,86Zm1.11-1.67A4.24,4.24,0,0,1,74,82.09v1.68c.56.56,0,1.12-.56,1.12S72.91,84.32,73.46,84.32ZM89,73.15v-.56h1.11A1.71,1.71,0,0,1,89,73.15Zm47.76,202.71c0,.56-.56.56-.56,1.12h-.56C135.66,275.86,136.22,275.86,136.77,275.86Zm2.22-1.12c-.56.56-1.11,2.23-2.22,1.12C137.88,274.74,137.88,274.18,139,274.74Zm.56-1.67h1.11c.56,1.12-.56,1.12-1.11,1.67C140.1,274.18,139,273.63,139.55,273.07Zm8.89-14.52a.56.56,0,0,1,0,1.12l-.56-.56C147.88,258.55,147.88,258.55,148.43,258.55Zm2.22-1.12a2,2,0,0,0-.56,1.12.54.54,0,0,0-.56-.56c0-.56.56-.56,1.11-1.67Zm1.67,2.23v.56c0,1.12-.55,1.12-1.67,1.68a.55.55,0,0,0-.56-.56C151.21,260.78,151.76,260.78,152.32,259.67Zm10.55-15.08-2.22,1.68v-.56A4.2,4.2,0,0,1,162.87,244.59Zm2.78-7.26h.55c-1.11,1.12.56,2.79-1.67,2.79-1.11.56-.56-.56-.56-1.12C164.54,238.45,164.54,237.33,165.65,237.33Zm21.66-45.23c.56,0,.56.56.56,1.12-.56,0-.56,1.12-1.11,1.12s-.56-.56-.56-1.12S186.75,192.66,187.31,192.1Zm4.44-6.14v.56c-.56.56,0,1.12-1.11,1.12v-.56A1.2,1.2,0,0,1,191.75,186Zm3.33-7.26h-1.67a.54.54,0,0,1-.56-.56h.56C194,178.14,194,178.14,195.08,178.69Zm1.11-2.23V177a2,2,0,0,1-.56,1.12.54.54,0,0,1-.56-.56C195.64,177.58,195.64,177,196.19,176.46Zm19.44-43.56c.56,0,.56.56.56,1.12s-.56.56-1.11,1.12c0-.56-.55-1.12-.55-1.68A1.93,1.93,0,0,1,215.63,132.9Zm20-35.18c.55,0,.55,0,.55.56L234.51,100s-.56,0,0-.56C234.51,98.84,234.51,97.72,235.62,97.72Zm11.66-27.36h.56c-.56.56-.56,1.12-1.11,1.12v-.56A.55.55,0,0,1,247.28,70.36Zm3.89-11.73a.55.55,0,0,1-.56-.56h1.11A.55.55,0,0,0,251.17,58.63Zm1.67-7.82c0-.56,0-.56.55-1.12v1.12a1.73,1.73,0,0,1-.55,1.12Zm-.56,3.35a.54.54,0,0,0,.56.56.56.56,0,1,1-1.11,0A.54.54,0,0,0,252.28,54.17Zm3.33-4.47c1.11,1.12-.56,2.23,0,3.35,0,.56,0,1.12-1.11,1.68a11,11,0,0,0,.56-3.91C255.06,50.26,255.06,50.26,255.61,49.7Zm-.56-3.91c0-.56.56-1.12.56-1.68a9.46,9.46,0,0,1,1.11,2.79c0,.56-.55.56-1.11.56S253.95,47.47,255.06,45.79Zm37.37,161.52c-.56.56-1.11,0-2.22,0a2.73,2.73,0,0,1-1.67-.56h2.78C291.87,206.76,291.87,206.76,292.42,207.31Zm145-32.93v-.56h1.67C438,174.38,438,174.38,437.44,174.38Zm128.7,78.24a7.86,7.86,0,0,1,3.33-1.12c.55-.56,1.11-1.12,1.11,0,.55.56-.56,1.12-1.11,1.12-1.11.56-2.22.56-2.78,1.12-.55,0-.55-.56-1.11-.56A.55.55,0,0,0,566.14,252.62ZM580,197.92a.54.54,0,0,0,.55-.56c0,.56,0,.56.55.56l-.55.56C580,198.48,580,198.48,580,197.92Zm2.22-3.35c0-.56,0-.56.56-1.12V194c0,.56-.56.56-1.11,1.67C581.68,195.13,581.68,194.57,582.24,194.57Zm15.54-51.91c-.55.56-.55,1.12-1.11,1.12-.55.56-.55,0,0-.56,0-.56,0-.56.56-1.12A.55.55,0,0,0,597.78,142.67Zm-.55-2.79c-.56,0-.56.56-1.11.56v-.56l.55-.56A.55.55,0,0,0,597.23,139.88Zm-.56,8.93v-.56l.56.56Zm-1.11,0-.55-.56c.55-1.12.55-2.23,1.66-2.79.56-.56.56.56,0,1.12A4.24,4.24,0,0,1,595.56,148.81Zm-16.1,53c2.77-3.35,5-7.81,7.22-11.72l5.55-8.37c.55-2.23,3.33-3.35,3.89-6.14a5.57,5.57,0,0,1,1.67-.56c.55,0,0,1.12,0,1.12-5,6.7-8.33,14-12.77,20.65l-4.44,7.26c0,.56-.55,1.67-1.11,1.67-1.11-.56-.56-1.12-.56-2.23C578.91,202.95,579.46,202.39,579.46,201.83Z" style="fill:#ccc;fill-rule:evenodd"/></svg>