<svg xmlns="http://www.w3.org/2000/svg" viewBox="0 0 600 280"><title>logo-2</title><path d="M599.82,160.58c-4.44,7.06-7.15,14.52-11,21.53L585,189.68c0,.55-.41,1.7-1,1.75-1.16-.46-.66-1.06-.75-2.16,0-.55.46-1.15.41-1.7,2.5-3.55,4.34-8.16,6.23-12.22l4.85-8.76c.36-2.26,3.05-3.6,3.37-6.41a5.68,5.68,0,0,1,1.63-.7C600.28,159.43,599.82,160.58,599.82,160.58ZM598,121.24c0-.55,0-.55.46-1.15l0,.55c0,.55-.51.6-.46,1.15Zm-51.21,12.22.1,1.1c-.46,1.15-1.12.1-1.67.14C545.75,134.11,545.7,133.56,546.82,133.46Zm-3.47,5.31c-.56,0-1.12.1-.46,1.15.1,1.1-1,1.75-1.48,2.35a2.07,2.07,0,0,1-1.72-.41l-.1-1.1c2.09-1.85,3-4.71,5.65-6.05C546,136.87,544.37,137.56,543.35,138.77ZM517.57,190.5a5.57,5.57,0,0,1,2.59-2.45A5.57,5.57,0,0,1,517.57,190.5Zm.65-11.74c0,.55,0,.55-.51.6,0-.55,0-.55.46-1.15Zm20.46-35.7a2.07,2.07,0,0,1,1.72.41c-.56,0-.46,1.15-1,1.2-1,1.75-1.28,4.56-2.81,6.36-1,1.2-1.43,2.9-3.71,2.55-.61-.5-1.12.1-1.58,1.25-3,4.71-5.31,9.91-8.82,14.67-1.07.65-1.58,1.25-2.69,1.35-.1-1.1.87-2.86,2.86-5.81l9-13c1.48-2.35,3.56-4.2,5-7.11.51-.6.56,0,1.12-.1s1.12-.1.51-.6C538.16,143.66,538.11,143.11,538.67,143.06ZM522.46,169.5c0,.55,0,.55-.46,1.15l-2.91,5.26a.55.55,0,0,0-.51.6,3.31,3.31,0,0,1-.75-2.16c1-1.2.87-2.86,1.94-3.5C519.35,172.55,521,171.85,522.46,169.5Zm37.73-43.87-.61-.5,1.12-.1,0,.55Zm-4.59,37.11,0-.55c0-.55.46-1.15,1-1.75l.1,1.1C556.05,161.59,556.1,162.14,555.59,162.74Zm6.28-43.37-7.23,7.3-.61-.5,2.59-2.45S561.32,119.41,561.88,119.36Zm-7.3,44.57a2,2,0,0,0-1.07.65c0-.55,0-.55.51-.6Zm-2-35.42.51-.6.56,0a.54.54,0,0,0-.51.6Zm14.28-10.14a.55.55,0,0,1,.51-.6c.56,0,.61.5,0,.55Zm17.7,15.71,1-1.2.56,0c-.46,1.15-1,1.2-1,1.75A.55.55,0,0,1,584.54,134.09Zm1.5-8.47a.55.55,0,0,1,.61.5l-1,1.75c-.56,0,0-.55-.1-1.1C585.58,126.77,585.49,125.67,586,125.62Zm5.73,14,1.94-3.5.56,0,0,.55a14.68,14.68,0,0,1-2.5,3.55Zm4.53-6,0-.55.61.5ZM595,125.4l0-.55.51-.6a.55.55,0,0,0,.61.5C595.53,124.8,595.58,125.35,595,125.4Zm1.87,2.06c-.51.6-.46,1.15-1,1.2-.51.6-.56,0,0-.55,0-.55,0-.55.46-1.15A.55.55,0,0,0,596.89,127.46Zm-1.69,6.26-.61-.5c.46-1.15.36-2.26,1.43-2.9.51-.6.61.5.1,1.1A4.17,4.17,0,0,1,595.2,133.73ZM586.27,179l0,.55c0,.55-.51.6-1,1.75,0-.55-.1-1.1.46-1.15C585.76,179.6,585.76,179.6,586.27,179ZM585,183.56l-.51.6c-.56,0-.56,0-.61-.5a.55.55,0,0,0,.51-.6C584.43,183.61,584.43,183.61,585,183.56Zm-29.65-4.67a.55.55,0,0,0-.51.6l-.61-.5a1.92,1.92,0,0,0,.46-1.15A1.71,1.71,0,0,1,555.34,178.89ZM299.51,158.83q0-.56,0-1.13a.63.63,0,0,1,.55-.62q0,.56,0,1.13A.63.63,0,0,0,299.51,158.83Zm297.88-44.76c-1.82-1.51-1.07.65-1.07.65-.46,1.15.15,1.66.2,2.21.24,2.76.44,5-2.15,7.42-1.58,1.25-1.43,2.9-1.89,4.06,0,.55.15,1.66-.41,1.7s-.66-1.06-.7-1.61c0,0,.46-1.15-.1-1.1s-1.12.1-1.07.65c-.56,0,0,.55.1,1.1.7,1.61-.31,2.81-.17,4.46l-.87,2.86a.55.55,0,0,0,.51-.6c.51-.6,1-1.2.36-2.26.56,0,1.16.46.7,1.61s-.31,2.81-1.94,3.5c-.56,0-.61-.5,0-.55-.1-1.1-.15-1.66-.7-1.61s0,.55.1,1.1c-.51.6-.51.6-1.07.65s-.61-.5-.1-1.1l1.74-5.71c.36-2.26,1.28-4.56,1-7.32-.66-1.06,1.48-2.35.77-4-.1-1.1.36-2.26.26-3.36a5.55,5.55,0,0,0-.7-1.61c-1.12.1-.46,1.15-.46,1.15-.56,0-.51.6-1.07.65,0-.55-.61-.5-.66-1.06-1.14-6.58-5.15-7.34-11-3.5l-4.78,3.19c-1.82-1.51.36-2.26.87-2.86,1.53-1.8,3.15-2.5,4.17-3.7a2,2,0,0,0,1.07-.65l-1.12.1c-3.3.84-5.94,2.74-8.59,4.64-.56,0-1.07.65-1.63.7l-.51.6c-.66-1.06-1.26-1.56.92-2.3a.54.54,0,0,0,.51-.6c-.61-.5-.15-1.66-1.26-1.56a1.78,1.78,0,0,0-1.53,1.8,23.1,23.1,0,0,0-5.8,4.39c-3.56,4.2-6.52,8.91-11.3,12.1-.56,0-.46,1.15-1,1.75-1.53,1.8-3.61,3.65-5.09,6-1.58,1.25-2.5,3.55-4.07,4.8-6.21,6.1-9.48,13.61-13.91,20.67-3.47,5.31-6.93,10.61-9.23,16.37-.87,2.86-2.2,6.87.27,9.43.66,1.06-.46,1.15-.41,1.7-.31,2.81,1.26,1.56,2.38,1.46a.54.54,0,0,1-.51.6c0,.55-1,1.2-.41,1.7s1.12-.1,1.67-.14A161.92,161.92,0,0,0,533,180.82c.51-.6,2.09-1.85,2.13-1.3.66,1.06-1,1.2-1.53,1.8a105.18,105.18,0,0,1-12.05,9.94c-.51.6-1,1.2-1.58,1.25a2.07,2.07,0,0,0,1.62-.7,2.91,2.91,0,0,0,2.13-1.3,5.1,5.1,0,0,1,3.76-2,5.71,5.71,0,0,0,4.22-3.15c1.48-2.35.92-2.3,3.56-4.2.51-.6,1-1.2,2.18-.74l.56,0c2-2.4,5.34-3.24,6.77-6.15l4.17-3.7c.51-.6.51-.6,1.07-.65,0,.55,0,.55-.46,1.15s-1.58,1.25-1.53,1.8c-.51.6-1.07.65-1,1.2.56,0,1.07-.65,1.62-.7l3-4.15c2.09-1.85,5.34-3.24,6.81-5.6l4.63-4.85,1.12-.1a.54.54,0,0,0-.51.6,166.68,166.68,0,0,1-16.39,18.1l-8.8,8.55c0,.55-.51.6.1,1.1l0,.55c1.12-.1.51-.6.46-1.15a4.23,4.23,0,0,0,3.71-2.55c.7,1.61,1.67-.14,2.18-.74a111.32,111.32,0,0,0,11.35-11.55c1-1.2,1.38-3.46,3-4.71l.51-.6c4.22-3.15,7.13-8.4,11.3-12.1,1-1.2,1.38-3.46,3.56-4.2.51-.6,1.58-1.25,1.67-.14,0,.55.1,1.1.61.5,2.74-.79,4.88-2.09,6.7-.58,1.16.46,2.79-.24,3.4.26,1.31,2.11,7.45,1.58,7.6,3.24A15.82,15.82,0,0,1,592,167.38c-1,1.75-3.15,2.5-3,4.71a6.69,6.69,0,0,0-2.55,3c-3.21,7.38-7,14.8-9.13,22.08.19-.23.55-.38.89-.79l-1.43,2.9,0-.55a10.18,10.18,0,0,0-.77,4,78.38,78.38,0,0,0-3.39,12.53c0,.55-1,1.75-.31,2.81.7,1.61-1.33,4-1.23,5.11,1.46,3.77.17,8.33,3.21,10.85,1.87,2.06,3.45.81,5.63.07.56,0,.51-.6,1.07-.65l-1,1.2c-.56,0-1.07.65-1.58,1.25l2.23-.19c-3.25,1.39-6.5,2.79-9.44,1.37-.61-.5-4.51-.17-4.51-.17-.51.6.1,1.1.66,1.06a2,2,0,0,0,1.16.46l-1.67.14a7.53,7.53,0,0,1-4.2-3c-.46,1.15-.36,2.26-.92,2.3-.51.6-1.16-.46-1.77-1A11.1,11.1,0,0,1,557.7,231l0-.55c-.56,0-.56,0-.51.6a1.7,1.7,0,0,1-.46,1.15l-.78-8.83c0-.55,0-.55-.61-.5l0,.55a1.47,1.47,0,0,1-1.53,1.8c0-.55,0,0-.56,0l1-1.75c1.43-2.9.68-5.06.48-7.27a46.43,46.43,0,0,1,1.4-9.58c1.21-11.79,5.81-23.31,9.85-34.78l4.19-9.82-.15-1.66c-.51.6-.51.6-1.07.65-2,2.4-2.35,5.21-4.44,7.06-11,9.29-20.71,20.15-32.91,28.43-1.53,1.8-3.61,3.65-6.45,3.34-.56,0-1.58,1.25-2.64,1.9-1,1.75-3.25,1.39-4.87,2.09-.56,0-1.16-.46-2.18.74,0,.55-.61-.5-.61-.5-.61-.5-.1-1.1.46-1.15,0,0,1.16.46,1.07-.65,0,0-1.72-.41-1.67.14-1.58,1.25-3.3.84-4.42.94-3.91.34-6.89-1.63-9.37-4.2-5-6.24-5.69-13.41-4.09-20.78,1.65-6.82,3.9-13.13,7.87-19,3-4.15,4.85-8.76,7.29-12.87,1.78-2.72,3.71-5.46,5.7-8.2a53.51,53.51,0,0,1-32.28-1.5c-5.76-2.1-9.81-5.12-13.87-8.14-1-1.15-2.63-.76-3.8.21a65.33,65.33,0,0,0-18.66,15.47c-.58.48-1.21,1.5-2.24.87a4.11,4.11,0,0,0-2.24.87c-4.85,6-9.52,9.85-14.91,15.79-5.44,6.47-11.94,12.85-17.87,18.74-3,2.95-5.39,5.94-8.3,8.36l-4.62,3.34c-3.4,1.84-2.57,4.58-4.36,6.56,0-.53-.49-.58-1-.62l0,.53,1.07.09c-4.13,3.91-7.77,8.4-12.39,11.74a22.69,22.69,0,0,1-5.55,1.66,40.41,40.41,0,0,0-6.76,3.15s-1.17,1-1.12.44c-.44-1.11.58-.48,1.17-1s.58-.48.68-1.54c-.54,0-.44-1.11-1-.62-3.45,2.37-3.71-.85-5.32-1-1-.62-1.37-2.79-3-2.4a.73.73,0,0,1,.09-1.06c2.92-2.42.42-4.77,1.15-6.84,1.15-6.84,5-13.45,8.26-20.11a273.47,273.47,0,0,0,12-26.19,18.78,18.78,0,0,1,.66-1.84l0,0A152.62,152.62,0,0,0,372,164.89q-2.72,2-5.39,3.84c-3.38,2.89-6,4.58-8.09,8.29-.69,1-6.35,5.15-11.71,8.31s-10.5,5.53-11.1,5c-1.19.22-2.92,5.41-4.61,6.34a47.14,47.14,0,0,0-10.5,5.87A60.11,60.11,0,0,1,307,208.87c-1.07,0-3.82-.54-3.74.07-.7,3.05-2.89,2.44-4,1.85a20.73,20.73,0,0,0-8.5,0,11.12,11.12,0,0,1-7,0c-2.19-.64-4.26-1.62-6.4-2.17a13.37,13.37,0,0,1-11.12-8.3c-.56-2.78-2.51-5-3.45-7.15a13,13,0,0,1-.6-3.7q0-.53,0-1.09t0-1.15c0-.79.1-1.61.19-2.46a84.76,84.76,0,0,1,2.12-11.25,130.18,130.18,0,0,1,7.16-21c3-5.78,7.07-11.09,11.4-16.92,1.07-1.18,3.13-1.31,4.23-2.49,3.22-2.42,6.37-2.08,9.66-4l5.47-2,.54,0c1,2.08,2.61,1.94,4.86.67.55,0,1.65-.15.5,1-1.18,1.72,1.58,1.45.37,3.71-.6,1.13-.7,3.3-1.33,5a.73.73,0,0,0,0,1.09.64.64,0,0,1,.58-.61c1.78-2.9,1.38-6.08,2.61-8.87.58-.59,0-1.07.6-1.12a1.54,1.54,0,0,1,.5,1c-.86,7-4.55,14.46-9.16,22.22l-.55.06c.05-1.68,1.2-3.46,2.36-5.25l0-1.11c-.53-.49-.55.06-1.12.67L302,147.95c-1.07-.44,0-1.11.06-1.67l0-.55c0,.55-.57.61-.59,1.17-3,5.27-12.33,21.95-14.16,27.76-1,4.63-2.76,12.72-2.48,17.29.14,2.29.1,1.72,1.68,2.23-4.53.18,4.1,9.79,12.67,6.47,4.11-2,8.45-2.25,12.78-3.86,6.72-2.78,17.66-9.06,29.86-18.08a428.88,428.88,0,0,0,33.73-27.92c5.52-4.8,11.2-10.26,16.76-16a127.77,127.77,0,0,1,6.43-14c2.61-5.11,3.13-10.94,6.82-16a5.48,5.48,0,0,1,3-2.95c1.12-.44,1,.62,1,1.15s-.09,1.06.44,1.11a.53.53,0,0,0,.58-.48c2.33-1.93,4.48-1.75,6-.55a40.15,40.15,0,0,0,6.11,4.26c.54,0,.49.58.4,1.64,0,0-1.26,2,1,1.15-.77,2.6.93,1.68,2.59,1.29,0,0-.09,1.06.44,1.11,0,.53-.09,1.06.44,1.11,1.17-1,1.07.09,1,1.15-.68,1.54-.28,3.18-3,3.48-1.07-.09-1.12.44-1.75,1.45a.52.52,0,0,0,.49.58,1.86,1.86,0,0,1,.63-1l.58-.48c-.68,1.54,1.51,1.2.84,2.74a4,4,0,0,1-3,3.48c-1.12.44-.44-1.11-.35-2.17,0,0,.63-1,.09-1.06a1.15,1.15,0,0,0-1.17,1,11.14,11.14,0,0,0-2.43,3c-4,8.2-7.35,15.91-11.86,24.07-.58.48-1.12.44-1.17,1-.49-.58.09-1.06.14-1.59.09-1.06.19-2.12-.35-2.17-1-.62-1.17,1-1.21,1.5a.52.52,0,0,0-.58.48c-3.94,1.79-3.59,4-3.29,6.66.49.58,0,.53-.58.48-1.51-1.2-1.66.39-2.29,1.4-.58.48,1.42,2.26-1.26,2,.49.58.49.58,1,.62.44,1.11,1.07.09,1.66-.39a8.77,8.77,0,0,0,3.29-6.66c.14-1.59,1,1.15,1.61.14.58-.48.68-1.54,1.7-.92a5.32,5.32,0,0,0-.68,1.54c-2.61,5.11-5.76,10.18-8.42,15.82l-.09,1.06c.54,0,.58-.48,1.17-1,5.34-5.41,11.71-10.2,17.1-16.14,3.59-4,6.65-8,10.78-11.88,6.55-6.91,12.53-13.33,20.11-19.62,4.62-3.34,8.26-7.83,13.85-10,8.37-3,14.27-2.5,19.84,1.72,4.06,3,8.49,10.88,12,14.38,9.22,5.6,22.12,6.18,31.66,2.22h0c5.65-6.05,12.51-11.09,17.55-17.65,2-2.4,5.8-4.39,8.95-6.89l.56,0c1.58-1.25,3-4.15,3.35-.29,2.5-3.55,5.8-4.39,9.65-5.28l1.12-.1c2-2.4,4.92-1.54,7.2-1.18l6.84,1.08.56,0c-.41,1.7-.36,2.26,1.26,1.56,2.18-.74,2.94,1.41,4.66,1.82,4.1,1.87,8.2,3.74,11.33,7.36.61.5.75,2.16,1.41,3.22C598,114.57,597.44,114.62,597.39,114.07ZM576.19,236.6l.51-.6-1.67.14C575.63,236.65,575.63,236.65,576.19,236.6Zm-40.72-47.1c1.67-.14,2.13-1.3,2.09-1.85l0-.55-2.64,1.9A.55.55,0,0,0,535.47,189.51Zm-8.85,8,1.07-.65c-.1-1.1-1.12.1-1.16-.46-.56,0-.61-.5-1.12.1A1.2,1.2,0,0,0,526.62,197.5ZM519.71,202l1.58-1.25a.55.55,0,0,0-.61-.5c-.56,0-1.07.65-1.58,1.25C519.15,202,519.15,202,519.71,202Zm-220.08,7.59c-.53,0-.46.6-1,.61h1.6C299.71,210.19,299.63,209.59,299.63,209.59Zm107.73-64.07a11.14,11.14,0,0,0,2.43-3c2.43-3,.56-6.36,4.06-9.26,1.75-1.45-.21-3.75,2.61-5.11,0-.53.09-1.06-.49-.58-1.12.44-3.36,1.31-2.92,2.42.35,2.17-1.94,3.57-2.61,5.11-.72,2.07-2.52,4.05-2.17,6.22.44,1.11.93,1.68-1.31,2.56,0,0-.09,1.06-.63,1C406.29,145.43,406.83,145.47,407.36,145.52Zm163.85-28.63a.55.55,0,0,0-.61-.5c.46-1.15,1.07-.65,1.62-.7C571.72,116.29,571.77,116.84,571.21,116.89Zm-5.07-.12c-1.12.1-1.67.14-2.28-.36a.54.54,0,0,1,.51-.6c.46-1.15,1-1.75,2.13-1.3C566.6,115.62,566.65,116.17,566.14,116.77Zm-.9-3.82-.56,0a1.93,1.93,0,0,1,.46-1.15C565.2,112.4,565.75,112.35,565.24,113Zm23.43,61.38-.51.6a2,2,0,0,0,.41-1.7c.51-.6.51-.6.46-1.15C590.25,173.09,588.62,173.79,588.67,174.34Zm-286.8-23c-.05,1.67-.08,2.8-1.2,4A6,6,0,0,1,301.87,151.29Zm38.46-62.14c.54.48,0,.49-.52,1-3.73,2-5.32,5.43-7.5,8.43l-5,6.12c-.54-.47-2.76,1.14-1.62-.91.56-.52-1.64.08-2.16-.9.55-.53,1.65-.57,2.21-1.59l-.54,0q-1.63.06-1.66,1.57c-3.31,1.66-4.87-.81-7-1.26-4.27-1.4-1.48-4.59-2-7.14a3.72,3.72,0,0,0-1-2.56c-1-3.08-1-5.67,2.73-7.73,1.06-1,2.66-2.06,3.7-4.11.78-1.54,1.7-1.93,2.64-1.86a11.74,11.74,0,0,1,2.67.85c1.06,0,2.14.52,3.19,0a6.71,6.71,0,0,1,2.89-1.57,4.35,4.35,0,0,1,.64-.09,4.15,4.15,0,0,1,.62,0,4.56,4.56,0,0,1,1.15.26,15.9,15.9,0,0,1,3.76,2.47c2.14,1,4.29,2.59,2.74,5.57C339.76,86.7,339.25,88.18,340.33,89.15ZM271.44,21.81l0-1.66c-.56,0,0-.55,0-.55a2,2,0,0,1,.59,1.65A.54.54,0,0,1,271.44,21.81ZM111.21,152.66v-.55c-.57-.54,0-1.11.54-1.12a.54.54,0,0,1,.57.54C111.76,152.09,111.77,152.65,111.21,152.66Zm3,44.31c-.56,0-.57-.54-1.14-1.09.56,0,1.11-.57,1.12,0a2,2,0,0,0,1.13.53C114.8,197,114.24,197.52,114.23,197Zm.63,3.87a1.48,1.48,0,0,1-1.71-1.63c0-.55,1.1-1.13,1.66-1.14l1.16,2.2C116,200.81,114.87,201.39,114.86,200.83ZM268.06,20.75c0,.55,0,1.66-.53,1.67s-.58-1.1-.59-1.65l0-1.11c-.55.56-.54,1.12-1.1,1.13-2.76,2.27-2.72,4.48-3.79,7.27,0,1.11-1.64,2.25-2.75,2.82-1.67.58-1.65,1.69-2.19,2.81-1.63,2.8-1.05,3.9,1.76,4.41,0,0,.58,1.1,0,1.11A5.72,5.72,0,0,1,255.54,42a2,2,0,0,0,.53-1.67h-.56l0,1.66a4.57,4.57,0,0,0-2.75,2.82,106.15,106.15,0,0,1-5.83,19c-1.07,2.79-1.58,5.57-3.21,8.37,0,.55-.55.56-.54,1.12-.56,0-.57-.54-.59-1.65l0-1.11c-.56,0,0,.55-.54,1.12S241,72.79,241,73.34c-.55.56-1.1,1.13-.54,1.12,3.94,1,.64,4.42.11,6.1-2.65,8.36-5.88,16.18-9.09,24.55-1.08,2.24-1,4.45-3.81,6.16-2.22,1.15.06,3.33-1.59,5-1.1,1.13-2.19,2.81-4.44,2.29l1.63-2.8-1.12,0c-1.1,1.13-.52,2.23-.51,2.78-1.08,2.24,1.19,3.86.11,6.1,0,1.66.06,3.33-2.2,2.26-1.13-.53-1.67.58-2.78,1.16-.55.56,0-2.77-1.12,0-.54,1.12,1.15,1.64,2.83,1.61.55-.56,1.11-.57.56,0,0,.55-1.09,1.68-1.66,1.14-2.28-2.18-3.33,1.72-4.43,2.85-3.33,1.72.07,3.88-1.56,6.68l1.12,0c1.11-.57,1.08-2.24,1.63-2.8s-1.14-1.09.53-1.67l1.12,0c0,1.11.59,1.65-.51,2.78-1.09,1.68-1.06,3.35-1.59,5-1.08,2.24-1,4.45-2.69,6.15l-1.08,2.24c-.55.56,0,1.11-1.09,1.68,0-.55.54-1.12.53-1.67s-.57-.54-.58-1.1l0,1.11-1.08,2.24-1.12,0a3.3,3.3,0,0,1,.52-2.23,10.57,10.57,0,0,0,2.12-6.69l.57.54s.55-.56,0-.55c0-.55-.56,0-.56,0-1.67.58-1.09,1.68-1.63,2.8,0,.55-.55.56-1.1,1.13h-.56c-1.14-1.09-1.7-1.08-2.22,1.15-.55.56,0,2.22,0,2.77.6,2.21,2.29,2.73,2.87,3.83,1.14,1.09-.48,4.44-2.13,6.14-2.2,2.26-1,4.45-2.68,6.7-1.09,1.68-3.88,2.28-2.72,4.48a1.74,1.74,0,0,1-1.11.57c0-.55-1.12,0-1.14-1.09v-.55c.54-1.12,0-1.66,0-2.22-.55.56-.54,1.12-.52,2.23-.54,1.12-2.2,2.26-2.18,3.36,0,2.77.65,5-2.11,7.24h.56c0,1.66-1.62,3.35-2.15,5-1.09,1.68-1.69-.53-3.35.61,0,.55-.58-1.1-1.12,0s0,1.66.59,1.65v-.55c.56,0,.55-.56.56,0,.56,0,.57.54,0,.55a1,1,0,0,1,0,1.66c-.54,1.12-1.12,0-1.68,0-1.11.57-2.76,2.27-3.9,1.18l-.55.56v.55c2.23-.59,3.38,1.05,5.6-.1.55-.56,1.12,0,1.69.53a2.87,2.87,0,0,1-1.08,2.24c-.55.56-.56,0-.56,0,0-.55.54-1.12-.58-1.1-.56,0-.55.56-1.11.57,0,.55,0,.55.58,1.1,0,.55,1.14,1.09,0,2.22s-.57-.54-1.13-.53l-1.12,0c0,.55-.55.56,0,1.11,1.7,1.08,0,2.77-.48,4.44,0,1.11-2.77,1.71-2.77,1.71-1.65,1.69-2.81-.51-4.47.63-.56,0-.55.56-1.12,0,0-.55,1.1-1.13,0-1.66a2,2,0,0,0-.53,1.67c0,1.11,0,1.66,1.15,1.64a8.39,8.39,0,0,1,3.93.49c.56,0,1.69.53,1.14,1.09-1.1,1.13-1.12,0-1.68,0-2.24,0-3.89,1.73-5,3.41-1.11.57-2.24,0-2.78,1.16l.57.54c1.12,0,1.66-1.14,2.21-1.7l0,1.11c-2.75,2.82-1,5-.43,7.22,0,1.11,0,2.77-1.62,3.35a3.3,3.3,0,0,0,.52-2.23,1.74,1.74,0,0,0-1.11.57c-.55.56.58,1.1.59,1.65a2.07,2.07,0,0,0-1.67.58c-.55.56.57.54.58,1.1.57.54,0,1.66-.51,2.78a3,3,0,0,0-1.63,2.8c-.54,1.12-.52,2.23-2.22,1.15a2,2,0,0,0-1.11.57c2.85,2.72-1.59,5-2.11,7.24L161,244.4c-.57-.54.54-1.12.53-1.67,0-1.66-1.16-2.2-2.3-3.29V240a.76.76,0,0,0,0,1.11c.59,1.65,1.18,3.31.1,5.54l-1.09,1.68c-1.11.57-3.34,1.17-1.63,2.8.57.54-1.1,1.13-1.66,1.14-1.13-.53-1.69-.53-2.22,1.15,0,1.11-.5,3.34-2.75,2.82-.56,0-1.12,0-1.11.57a2,2,0,0,0-.53,1.67c1.71,1.63,2.3,3.29-.46,5.55-.55.56.57.54.57.54,1.11-.57,1.69.53,2.25.52,0,.55,0,1.11-.54,1.12,0,.55-.54,1.12-.55.56-.56,0,0-.55,0-.55a1.87,1.87,0,0,0-3.36.06c-2.75,2.82-4.94,6.18-8.26,8.46-.55.56-1.64,2.25-1.06,3.35.57.54,0,.55,0,1.11-.55.56-1.66,1.14-2.23.59-2.82-1.06-7.83.69-10.66-.37-4-1.59-9.56-2.05-11.88-6.45-2.9-5.49-10.26-9.8-11.49-15.88-1.79-6.07-2.46-12.16-3.12-18.24-.71-8.3-2-16-1.56-24.92.45-6.11-.23-12.75-.89-18.84-.69-7.2.31-14.42.18-21.63-.11-6.1.9-12.77.23-18.86l-.11-6.1c-1.82-7.73-.28-16.08-.43-24.39a102,102,0,0,0-1-22.72A119.25,119.25,0,0,1,93.24,87a31.32,31.32,0,0,0-2.46-12.16c-.58-1.1,3.3-3.38,1.07-2.79-1.67.58-1.68,0-2.25-.52.56,0,1.11-.57,1.67-.58-.57-.54-1.13-.53-1.67.58-.55.56-1.1,1.13-1.66,1.14-1.1,1.13-1.63,2.8-2.76,2.27-1.14-1.09,0-2.77,1.05-3.9,0-.55,1.1-1.13,1.09-1.68-1.1,1.13-2.24,0-2.8,0-1.11.57,0,1.11,0,1.66.61,2.76-1.6,4.46-5,5.08-1.68,0-2.22,1.15-2.19,2.81-1.13-.53-1.69-.53-2.79.6v.55c.56,0,1.11-.57,1.67-.58a.55.55,0,0,1,.57.54c.56,0,.57.54.58,1.1-.56,0-1.67.58-2.23.59-1.13-.53-1.11.57-1.66,1.14a2.07,2.07,0,0,0-1.69-.53v.55l1.68,0a4,4,0,0,1-3.33,1.72c-.57-.54-1.68,0-1.11.57s1.71,1.63,0,2.77L65.79,88c-.56,0-.58-1.1-1.12,0a.55.55,0,0,0,.57.54c1.12,0,1.68,0,2.25.52l-2.21,1.7c-.55.56-2.23.59-1.65,1.69,0,1.11,1.69.52,2.25.52-1.11.57-2.21,1.7-1.06,3.35-.56,0-1.11.57-1.67.58s.55-.56.54-1.12l0-1.11a3.4,3.4,0,0,0-2.23.59c-.56,0-.55.56,0,1.11s-.54,1.12-1.1,1.13c-2.79.6-5,.64-7.25,1.79-1.12,0-.55.56-.54,1.12,0,0,0,.55.56,0,2.22-1.15,2.81.51,3.38,1.05a4.19,4.19,0,0,1-1.08,2.24c-1.11.57-.57-.54-1.14-1.09a.55.55,0,0,0-.57-.54l0,1.11a7,7,0,0,0,.62,3.32.54.54,0,0,1-.55.56c-.55.56-1.12,0-.57-.54,0-.55.53-1.67-.59-1.65-1.11.57-.54,1.12-.53,1.67s-1.65,1.69-1.07,2.79c0,.55-.54,1.12-.55.56,0-1.66-2.79.6-2.26-1.07l0-1.11c0,.55-.55.56-.54,1.12l-.55.56c-.57-.54-.57-.54-1.13-.53l-2.8,0c0-1.11,1.11-.57,1.1-1.13-.56,0-.56,0-.57-.54-.57-.54.53-1.67,1.08-2.24,0-2.22,2.73-3.93,2.13-6.14,0-2.22,2.75-2.82,4.41-4,.55-.56,1.66-1.14,1.65-1.69,0-1.11-.57-.54-1.69-.53-.56,0-.56,0-.57-.54.54-1.12,1.09-1.68,1.66-1.14a2.07,2.07,0,0,0,1.67-.58c.54-1.12,1.09-1.68,0-2.22-.57-.54,0-.55.54-1.12a2,2,0,0,0,1.11-.57c0-1.66.52-2.23,2.21-1.7,1.68,0,1.65-1.69,1.07-2.79,0-.55-2.26-1.07.54-1.12l.55-.56c.55-.56,0-.55,0-.55a24.42,24.42,0,0,1-2.81-.51c-.56,0-2.24,0-1.1,1.13.57.54-.54,1.12-1.09,1.68,0-.55,0-.55-.57-.54,1.1-1.13-1.15-1.64,1.07-2.79,2.23-.59,3.92-.07,5.56-2.31.55-.56,2.23-.59,1.66-1.14s-1.15-1.64-2.26-1.07a2.07,2.07,0,0,0-1.67.58c.55-.56,1.1-1.13,1.09-1.68.51-2.78,3.83-5.06,4.36-6.73.47-5,5.5-6.19,7.12-9.55,2.15-5,7.15-7.89,11-11.28,1.66-1.14,4.43-2.85,3.82-5.61,0-.55,1.06-3.34,3.32-2.27,1.13.53,2.8,0,3.92-.07A7.57,7.57,0,0,1,102,41.92l5.16,6.56c2.85,2.72,5.15,6,5.24,11a.54.54,0,0,1-.55.56c-3.35.61-.51,2.78-2.17,3.92-1.11.57-.59-1.65-1.7-1.08-1.1,1.13,0,2.22.06,3.33,0,2.22,2.31,3.84,1.23,6.08a.55.55,0,0,0,.57.54,2.87,2.87,0,0,0,1.08-2.24c-.57-.54,0-1.11,1.09-1.68.56,0,1.1-1.13,1.68,0,0,.55-1.11.57-1.1,1.13-1.09,1.68,0,1.11.58,1.1,1.11-.57,1.12,0,1.13.53,0,1.11-1.11.57-1.1,1.13-1.11.57-2.78,1.16-3.32,2.28a7,7,0,0,0-.5,3.34s1.14,1.09,1.67-.58a1.2,1.2,0,0,1,1.1-1.13c.56,0,.57.54,1.14,1.09,0,.55-.55.56-1.1,1.13a2,2,0,0,0-1.11.57c0,1.11.56,0,1.13.53.56,0,2.21-1.7,2.8,0,.57.54-2.14,5.58-3.26,5.6-1.11.57-1.1,1.13-1.09,1.68,1.12,0,2.79-.6,2.81.51s-1.09,1.68-2.21,1.7c-.56,0-.55.56-.54,1.12.1,5.54.76,11.08.85,16.62a2.63,2.63,0,0,1-1.63,2.8c-.56,0-.55.56,0,1.11,0,0,0,1.11.57.54s1.1-1.13,1.11-.57c.57.54,1.14,1.09.6,2.21-.56,0-.55.56-1.12,0-1.11.57-1.1,1.13,0,1.11,1.71,1.63,1.23,6.08-.41,8.32l-.55.56c1.15,1.64.08,4.43.67,6.09a3.5,3.5,0,0,1,.06,3.33c-.54,1.12-1.08,2.24-.51,2.78,1.16,2.2-.48,4.44-.44,6.66,0,1.66,2.82,1.06,2.85,2.72h.56c.57.54,2.26,1.07,1.16,2.2-.54,1.12-.58-1.1-1.69-.52a.55.55,0,0,0-.57-.54l0,1.11c.6,2.21-2.73,3.93-2.69,6.15H109c-.56,0-1.14-1.09-1.68,0a2.45,2.45,0,0,0,0,2.77c.58,1.1,1.67-.58,1.67-.58.58,1.1,4.48-.08,1.74,3.3-1.09,1.68,2.27,1.62,1.74,3.3-.54,1.12,0,1.66-1.07,2.79-.56,0-1.11.57-.54,1.12,2.26,1.07.06,3.33-.46,5.55s1.71,1.63,2.84,2.17h.56a.54.54,0,0,0-.55.56c-1.67.58-1.07,2.79-3.31,2.83a2,2,0,0,1,.59,1.65c.57.54,1.67-.58,2.23-.59s1.1-1.13,1.67-.58a2,2,0,0,0-1.11.57c0,1.11-3.34,1.17-1.08,2.24-2.77,1.71.6,2.21.07,3.88-.56,0,0,.55-.55.56-.55.56-2.23.59-1.09,1.68.57.54,2.24,0,3.34-1.17a2.24,2.24,0,0,1,2.22-1.15c.57.54-.53,1.67-.52,2.23,0,1.11-3.31,2.83-.49,3.89l-.55.56c-.56,0-1.12,0-1.11.57-2.21,1.7-2.66,7.81-.94,10,.57.54,0,1.11-.53,1.67-1.08,2.24,1.74,3.3-.46,5.55l.57.54c.56,0,.56,0,1.11-.57l.55-.56s-.55.56.57.54c.57.54.59,1.65,1.71,1.63a3.31,3.31,0,0,0,.52-2.23c.54-1.12,0-1.11-1.14-1.09,1.09-1.68,2.19-2.81,3.33-1.72s0,2.22-.51,2.78l-1.1,1.13c2.85,2.72-1.63,2.8-2.16,4.47l-1.1,1.13a2.07,2.07,0,0,1,1.67-.58c2.2-2.26,2.78-1.16,2.81.51s.62,3.32.65,5a.54.54,0,0,1-.55.56l-1.12,0c-.56,0,.53-1.67-.57-.54l-1.64,2.25c1.11-.57-1.64,2.25.59,1.65.56,0,1.12,0,1.11-.57.55-.56.53-1.67,1.1-1.13,1.12,0,1.13.53,1.14,1.09-.47,5,.73,9.41,1.37,14.39,0,1.66-2.2,2.26-2.18,3.36,2.22-1.15,2.81.51,2.83,1.61-.45,6.11,1.87,10.5,3.65,16,.61,2.76,4.54,3.25,7.28-.13a89.19,89.19,0,0,0,11.47-16.83c4.37-6.17,2-15,5.78-21.72.55-.56,1.1-1.13,1.66-1.14s-.55.56-.54,1.12a.56.56,0,0,0,1.12,0,60.4,60.4,0,0,0,4.34-8.39v-.55l-.55.56c-1.11.57-.51,2.78-2.75,2.82a17.27,17.27,0,0,0,2.7-5.59c.54-1.12,1.07-2.79,2.76-2.27,1.12,0,1.66-1.14,2.21-1.7,1.1-1.13.49-3.89,3.3-3.38.56,0,.55-.56,1.1-1.13a.55.55,0,0,0-.57-.54c-3.39-1.6-3.4-2.16-.1-5.54,2.24,0,2.2-2.26,3.31-2.83l0-1.11c-.56,0-.55.56-1.11.57-.54,1.12-.52,2.23-2.18,3.36.5-3.34,3.81-6.16,4.88-9.51a.54.54,0,0,1,.55-.56c0,.55,0,1.11-.54,1.12,0,1.11-1.08,2.24-.52,2.23,1.12,0,1.1-1.13,1.64-2.25,2.72-4.48,4.33-8.95,7-13.43,7-15.09,12.41-27.38,22.15-47,11.36-23.48,27.39-67.57,30-75.93C232,39.68,234,30.77,236.7,22.4c2.13-6.14,3.15-12.25,7-18.42,1.63-2.8,4.43-2.85,6.09-4,.58,1.1,8.46,3.18,9.59,3.72s1.73,2.74,4.51,1.59C265.59,8,269,9.09,269,13c0,1.11.57.54,1.13.53.57.54,1.69.53.59,1.65C269.11,16.86,269.71,19.06,268.06,20.75ZM47,104.41c-.56,0-1.11.57-1.66,1.14l.57.54a2.07,2.07,0,0,1,1.67-.58C47.59,105,47,105,47,104.41Zm2.7-5.59c-.56,0-.56,0-.55.56L50.89,101c.57.54.56,0,.56,0C51.43,99.9,50.86,99.36,49.73,98.82Zm2.34,5.5c.56,0,.56,0,.55-.56.56,0,0-.55,0-1.66a6.86,6.86,0,0,1-1.09,1.68A.55.55,0,0,0,52.07,104.33Zm.42-7.77c0,.55-.55.56-.54,1.12.57.54,1.12,0,1.11-.57A.54.54,0,0,0,52.49,96.56Zm3.33-1.72c-.56,0-1.12,0-.55.56,0,.55.58,1.1,1.15,1.64,0,.55.56,0,.55-.56C55.85,96.5,58.05,94.24,55.82,94.84Zm2.8,0-.55.56v.55a1.75,1.75,0,0,0,1.11-.57A.55.55,0,0,0,58.62,94.79Zm8.95-32.87-1.65,1.69h.56a1.2,1.2,0,0,0,1.1-1.13ZM82.9,72.74c-1.12,0-1.11.57-1.1,1.13-.56,0-.55.56,0,.55s1.11-.57,1.66-1.14C83.46,72.73,83.46,72.73,82.9,72.74Zm16,80.68a1.74,1.74,0,0,1-1.11.57l1.71,1.63.55-.56Zm.62,3.32c-.56,0-.55.56-1.11.57l.57.54c0-.55.55-.56,1.11-.57A.55.55,0,0,1,99.51,156.74Zm8.19-43.95c.56,0,.56,0,1.67-.58-1.13-.53-1.14-1.09-1.14-1.09l-1.1,1.13C107.14,112.8,107.14,112.8,107.7,112.79Zm1-6.67c1.67-.58,1.65-1.69,1.63-2.8,0-.55-.58-1.1-.59-1.65,0,.55-.54,1.12-.53,1.67,0,1.11-.53,1.67-1.09,1.68-.55.56-.55.56-1.11.57C107.58,105.59,108.15,106.13,108.71,106.12Zm3.15,83.12h-.56l-.55.56a.55.55,0,0,1,.57.54C111.31,189.8,111.87,189.79,111.86,189.24Zm4.71,44.28c.56,0,.56,0,1.11-.57l-1.12,0-.55.56Zm-1.15-1.64c.55-.56,1.1-1.13,1.09-1.68l0-1.11c-.54,1.12-1.09,1.68-1.08,2.24Zm-1.2-4.41,1.12,0c0-.55-.57-.54-1.13-.53h-.56A.55.55,0,0,0,114.21,227.46Zm1.52-8.9,0,1.11c.54-1.12,1.66-1.14,1.65-1.69,0-1.11.51-2.78-.61-2.76-1.13-.53-1.65,1.69-3.33,1.72l0,1.11c0,.55.56,0,1.12,0C115.16,217.46,116.83,216.88,115.74,218.56Zm-1,6.12a2.07,2.07,0,0,1-1.67.58c1.14,1.09,2.81.51,3.94,1,.56,0,1.12,0,1.11-.57C118.07,223.51,115.86,225.77,114.72,224.68Zm26,45A5.58,5.58,0,0,0,138,272v.55l2.77-1.71Zm2.74-3.37a.54.54,0,0,0-.55.56h.56l.55-.56Zm13.57-25.19,1.12,0a1.75,1.75,0,0,0-1.13-.53c0-.55-.56,0-.56,0Zm-2.64,8.92H155c-.56,0-.57-.54-1.13-.53C153.85,250.06,153.85,250.06,154.41,250.05Zm.26-17.19c.55-.56,1.11-.57,1.1-1.13s-1.13-.53-1.7-1.08l-.55.56Zm-7.35-3.75v.55c.55-.56,1.11-.57,1.1-1.13A2,2,0,0,0,147.31,229.11Zm8.28-7.35c-1.11.57-1.14-1.09-2.81-.51.55-.56.54-1.12.52-2.23a.55.55,0,0,0-.55.56c0,.55-.54,1.12,0,1.66-.56,0-2.22,1.15-2.24,0-.56,0-1.11.57-1.67.58a2,2,0,0,0-.53,1.67.55.55,0,0,0,.57.54c1.1-1.13,2.78-1.16,3.87-2.84a2.06,2.06,0,0,0,2.82,1.06h.56A.54.54,0,0,0,155.59,221.76Zm4.82-12.84-.55.56,1.68,0C161,208.91,161,208.91,160.41,208.92Zm-3.59,18.91-.55.56c0,.55,5.68,4.34,6.8,4.32,0,.55.56,0,.55-.56C164.16,231,157.39,228.38,156.82,227.83Zm6.3-24c-.54,1.12-.54,1.12-.53,1.67l.57.54a.55.55,0,0,1,.55-.56C163.7,205,163.7,205,163.12,203.88Zm4.35,24.32c-.57-.54-.56,0-1.11.57s-.53,1.67-1.11.57c0-.55-.57-.54-1.12,0a.55.55,0,0,0,.57.54l0,1.66c0,.55-.53,1.67.58,1.1.56,0,1.68,0,1.66-1.14,0-.55.54-1.12.52-2.23C168,228.75,168,228.19,167.47,228.2Zm1.61-3.91-.55.56c0,.55,0,.55.57.54l.55-.56C169.64,224.28,169.64,224.28,169.08,224.29Zm8.64-18.45a.55.55,0,0,1,.55-.56c0-.55-.57-.54-.58-1.1v.55C177.16,205.3,177.72,205.29,177.73,205.85Zm-.52-29.38a1.93,1.93,0,0,0-.54,1.12.54.54,0,0,0,.57.54c.56,0,.55-.56,1.1-1.13C178.34,177,178.33,176.45,177.21,176.47Zm7.44,8.74v.55c0,1.11.59,1.65,1.72,2.19l1.1-1.13C186.9,185.73,185.24,186.87,184.65,185.21Zm4,1.6c0,.55-.54,1.12.58,1.1q.84,0,1.65-1.69c0-.55,0-1.11-1.14-1.09C189.13,185.13,189.15,186.24,188.6,186.81Zm2.66-7.81a2,2,0,0,0-1.11.57v.55c.56,0,.56,0,1.11-.57Zm.06,3.33v.55c.56,0,.55-.56,1.1-1.13,0-.55,0-.55-.58-1.1C191.86,181.21,191.31,181.77,191.32,182.32Zm1.56-6.68a.55.55,0,0,0-.55.56v.55c.55-.56.55-.56,1.11-.57Zm8.75-12.35-.55.56,0,1.11.55-.56Zm1-9.44-.55.56c0,.55,0,.55.57.54h.56C203.16,154.4,203.16,154.4,202.59,153.85Zm10.24-22.91h.56a.55.55,0,0,0,.55-.56C213.39,130.38,213.39,130.38,212.84,130.94Zm6.59-7.88c-1.12,0-.54,1.12-1.09,1.68-.54,1.12,0,1.66,1.15,1.64a1.2,1.2,0,0,0,1.1-1.13C221.12,124.14,220,123.61,219.42,123.06Zm8.11-16.77c-.56,0-.55.56-.54,1.12l0,1.11,1.09-1.68C228.09,106.28,228.08,105.73,227.53,106.29Zm2.13-6.14-.55.56c0,.55,0,.55.57.54Zm3.22-7.82c0-.55-1.12,0-1.12,0-.54,1.12.57.54,1.14,1.09.56,0,.56,0,0,.55-1.11.57-1.67.58-1.65,1.69a1.74,1.74,0,0,0,1.13.53c.55-.56,2.22-1.15,1.64-2.25C235.68,91.73,233.46,92.88,232.89,92.34Zm4.79-14.5c-.56,0-.55.56-1.11.57l.57.54.55-.56ZM65.88,93c.55-.56,1.1-1.13,1.11-.57a4.69,4.69,0,0,1,.07,3.88c-1.1,1.13-1.68,0-2.24,0C65.92,95.22,67.58,94.08,65.88,93Zm127.71,90.4.57.54c-1.1,1.13-1.11.57-1.68,0C193,184,193,182.85,193.58,183.39ZM78.53,79.47c0,.55-1.11.57-1.67.58a1.93,1.93,0,0,1,.54-1.12C78,78.93,79.07,78.36,78.53,79.47ZM53.27,108.74c0,.55-.55.56-.54,1.12s-.53,1.67-1.12,0v-.55H51l.55-.56Zm58.59-46.48c-1.13-.53-.58-1.1,0-2.22a3.31,3.31,0,0,1,.6,2.21Zm-1.05,3.9-1.68,0c-.57-.54.53-1.67.52-2.23C110.21,64.51,111.34,65,110.8,66.16Zm41.88,150.1h-.56c-.58-1.1,0-1.66.52-2.23C152.66,214.6,153.24,215.7,152.69,216.26Zm19-36.92,1.09-1.68v.55c0,.55-.54,1.12-1.63,2.8Zm-13.57,25.19V204a2,2,0,0,1,1.11-.57l.57.54C159.2,203.95,158.65,204.51,158.09,204.52Zm-41-36.44a.55.55,0,0,1,.55-.56c.56,0,.57.54,1.14,1.09l-1.1,1.13C117.67,169.18,117.1,168.63,117.09,168.08Zm.26-17.19c-.56,0-.56,0-.57-.54l1.12,0,.57.54-.55.56A.55.55,0,0,1,117.34,150.89Zm-.08-36-.57-.54c.56,0,.55-.56,1.11-.57C117.26,114.29,117.26,114.29,117.27,114.85Zm.11,38.26c.56,0,.56,0,.58,1.1-.56,0-.54,1.12-1.1,1.13s0-1.11,0-1.66C116.83,153.67,116.26,153.12,117.38,153.1Zm.12,6.65c0,.55.57.54.58,1.1s-.55.56-1.11.57c-.55.56-.57-.54-.58-1.1C116.39,160.33,116.38,159.77,117.5,159.76Zm-.66,26.07.57.54,0,1.11-1.14-1.09A.55.55,0,0,0,116.84,185.83Zm-.25-14.41c0-.55.55-.56,1.11-.57a.55.55,0,0,1,.57.54h-.56C117.16,172,116.6,172,116.59,171.42Zm1.83,8.29-1.1,1.13,0-1.66,1.1-1.13Zm-4.67-10.45a.55.55,0,0,1,.57.54,1.93,1.93,0,0,0-.54,1.12c-.57-.54-1.13-.53-1.14-1.09A2,2,0,0,1,113.75,169.25ZM113,158.72l.55-.56.57.54a.56.56,0,0,1-1.12,0Zm1.74,3.3c0,.55,0,1.66-1.09,1.68a5.55,5.55,0,0,1-.59-1.65l1.65-1.69C115.27,160.35,114.73,161.47,114.74,162Zm-.3-48.79c.55-.56.56,0,1.12,0l-2.2,2.26c-.55.56-.56,0-.57-.54C113.34,114.36,113.88,113.24,114.44,113.23Zm-.92,11.11c-.57-.54-.59-1.65-.61-2.76h.56c0,.55,2.24,0,.59,1.65C114.06,123.77,114.08,124.88,113.51,124.34Zm-1.7-32.69a.55.55,0,0,0,.55-.56,1.93,1.93,0,0,0,.58,1.1.55.55,0,0,1-.55.56A1.93,1.93,0,0,1,111.81,91.65Zm1.29,9.4a2,2,0,0,1,1.11-.57V101c-.55.56-.55.56-1.11.57Zm2.31,3.84-1.89-.43c1.19,0,3-1.7,3.55-.7C117.09,104.87,116,104.33,115.41,104.9Zm-2.26-1.07v.55l-.57-.54Zm.37.64a.9.9,0,0,1-.36-.08Zm1.56-18.41h.56c0,.55,0,.55-.55.56Zm-.44,6.66.55-.56a.55.55,0,0,1,.57.54Zm.4-8.88,0-1.11a.54.54,0,0,1,.55-.56c.56,0,0,.55,0,.55C115.59,83.27,115.59,83.27,115,83.83Zm-3.09-16c-.56,0-1.12,0-1.13-.53l1.11-.57c.57.54.57.54,1.13.53A1.74,1.74,0,0,1,112,67.81Zm.52-2.23V65a.54.54,0,0,1,.55-.56V65C113,65.57,113,65.57,112.48,65.58ZM108.22,46.8c-.56,0-1.13-.53-.57-.54,0-.55.55-.56.54-1.12,0,.55.57.54.58,1.1A.55.55,0,0,1,108.22,46.8Zm-63,50.44c-.56,0,0-.55,0-1.11a5.54,5.54,0,0,1,2.19-2.81c.56,0,0,.55,0,.55C46.3,95,46.89,96.65,45.22,97.24Zm-.48,4.44c-.56,0-1.13-.53-.58-1.1,0-.55.55-.56.54-1.12.56,0,.58,1.1.58,1.1C45.28,101.12,45.29,101.67,44.73,101.68ZM43.2,110l.55-.56c.57.54,1.13.53,2.25.52-.55.56-1.11.57-1.1,1.13C44.32,110,43.22,111.13,43.2,110ZM45,117.2c-.55.56.61,2.76-2.2,2.26-1.12,0,1.09-1.68-.6-2.21-.56,0-.59-1.65-1.11.57-.49,1.56-1.5,1.68-2.1.81.81,1.43-1.27,1.52-2.32,2.6L35,123.47l0-1.66A4.58,4.58,0,0,1,37.75,119c.56,0,.55-.56,1.11-.57,0-1.66-1.75-3.85,2.15-5,.56,0,0-.55,0-1.11a1.71,1.71,0,0,1,.54-1.12.55.55,0,0,0,.57.54c0,1.11,1.14,1.09,1.71,1.63C45,114.43,47.75,113.83,45,117.2Zm-4.69-11.56-.57-.54a.54.54,0,0,0,.55-.56.54.54,0,0,1,.57.54A.55.55,0,0,0,40.32,105.64Zm-2.72,4.48c0-.55.55-.56.54-1.12a.54.54,0,0,1,.57.54A2,2,0,0,1,37.6,110.12Zm-.91,12.21,1.1-1.13,0,1.11a.56.56,0,0,1-1.12,0Zm3.44,4.38,0,2.77a4.27,4.27,0,0,0-2.23.59h-.56c2.26,1.07-2.21,1.7-1.06,3.35s-.47,5-3.24,6.71c-1.67.58-.51,2.78-1.6,4.46-.54,1.12-.51,2.78-1.62,3.35-.57-.54-.58-1.1-1.13-.53a.54.54,0,0,0-.55.56c.57.54,1.12,0,1.68,0,0,1.11-1.09,1.68-1.64,2.25-.56,0-1.12,0-1.11.57-.55.56-.54,1.12,0,1.11,2.27,1.62-.49,3.89-.46,5.55,0,.55-1.1,1.13-.54,1.12.57.54.6,2.21,1.69.53h.56c1.14,1.09-1.08,2.24-.5,3.34l-.55.56c-1.69-.52-3.91.62-5.05-.47-.56,0-1.68,0-1.67.58a2.5,2.5,0,0,0,0,2.77,2.3,2.3,0,0,1-1.06,3.34c-.55.56-1.67.58-1.11.57,1.71,1.63-2.71,5,.66,5.53,2.81.51,2.27,1.62.63,3.87-.55.56-1.65,1.69-.52,2.23.57.54,1.67-.58,2.22-1.15,2.22-1.15,2.75-2.82,3.84-4.5h.56v.55c-1.09,1.68-1.07,2.79-1.6,4.46-.54,1.12-1.05,3.9-2.77,1.71h-.56c0,.55-.54,1.12,0,1.66.58,1.1,1.71,1.63.62,3.32l.57.54c1.12,0,1.13.53.59,1.65-1.66,1.14,1.73,2.74-1.06,3.35-2.78,1.16-6.13,1.77-9,.15-1.12,0-3.35.61-2.28-2.18l-1.12,0c-3.32,2.28-5.6.1-7.86-1-2.25-.52-.62-3.32-.09-5a9.3,9.3,0,0,0,1.07-2.79c1.63-2.8-1.15-1.64-1.72-2.19,0,0-1.11.57-.57-.54l2.16-4.47c.55-.56,1.13.53,1.13.53l4.48-.08a5.53,5.53,0,0,0,.53-1.67c0-.55-.57-.54-1.12,0-2.79.6-1.69-.53-2.27-1.62,0-2.22,1.63-2.8,1.6-4.46a2.21,2.21,0,0,1,2.75-2.82c1.12,0,1.67-.58,1.66-1.14,0-1.11-1.12,0-1.12,0-.56,0-1.12,0-1.13-.53l-.55.56c-.58-1.1-1.72-2.19-.06-3.33,1.1-1.13,2.75-2.82,5-2.3h.56c-.06-3.33,2.78-1.16,3.88-2.28.55-.56,1.09-1.68.53-1.67-2.26-1.07.49-3.89-1.77-5a1.93,1.93,0,0,0,.54-1.12,5.5,5.5,0,0,0,5-.64c0,1.11,1.13.53,1.68,0,.56,0,.54-1.12.54-1.12-1.13-.53-1.66,1.14-2.22,1.15-.59-1.65-1.18-3.31-3.43-3.82,1.09-1.68,2.19-2.81,4.43-2.85.56,0,2.26,1.07,1.65-1.69,0-1.11,2.18-3.36,2.7-5.59.51-2.78,2.77-1.71,4.44-2.29-.6-2.21,1.07-2.79,2.72-4.48C38.38,122.86,37.91,127.86,40.13,126.71Zm-23.2,50.86c.56,0,1.12,0,1.1-1.13l-.57-.54a1.2,1.2,0,0,0-1.1,1.13C16.37,177.58,16.37,177.58,16.93,177.57Zm-4.5-1a.55.55,0,0,0,.57.54h.56c0-.55-.57-.54-1.14-1.09Zm2.63-10a1.93,1.93,0,0,0-.58-1.1,2.87,2.87,0,0,0-1.08,2.24c-.56,0,0,0,0,.55Zm-4.93,6.74c0,1.11,1.13.53,1.7,1.08.54-1.12,1.13.53,1.11-.57.56,0-.57-.54-1.14-1.09C11.24,172.68,10.69,173.24,10.13,173.25Zm3.75-10c-2.81-.51-1.65,1.69-2.2,2.26s-.53,1.67,0,1.66a14.73,14.73,0,0,1,2.74-3.37C15,163.19,13.87,163.21,13.87,163.21Zm3.28-4.49H16.6c-.57-.54.53-1.67-1.15-1.64-.55.56-.53,1.67-.51,2.78s.58,1.1,1.14,1.09c1.11-.57,1.68,0,2.22-1.15S18.28,158.7,17.16,158.71Zm3.23-7.26a1.2,1.2,0,0,0-1.1,1.13c-.55.56-.54,1.12.58,1.1.56,0,1.13.53,1.11-.57A1.06,1.06,0,0,0,20.39,151.45Zm2.09-8.35a1.2,1.2,0,0,0-1.1,1.13l1.14,1.09c.56,0,.55-.56.54-1.12C23.62,143.63,23,143.09,22.49,143.1Zm.22,12.75h-.56c1.14,1.09.06,3.33,1.2,4.41l.55-.56C22.76,158.62,25,156.36,22.71,155.85Zm2.69-6.15c-.54,1.12-1.65,1.69-2.2,2.26l0,2.22a11.58,11.58,0,0,0,2.18-3.36Zm5.33-15.62a1.2,1.2,0,0,0-1.1,1.13c-.55.56-.54,1.12,0,.55a5.68,5.68,0,0,0,1.67-.58C31.86,134.62,31.29,134.07,30.73,134.08Zm4.38-5.62c-1.68,0-1.65,1.69-2.75,2.82,1.67-.58,2.8,0,3.33-1.72C36.24,128.44,35.68,128.45,35.12,128.46Zm6.17.45,0,1.11c-.57-.54-.57-.54-1.13-.53C40.73,128.92,41.28,128.36,41.29,128.91ZM30.47,150.72c0,1.66-2.23.59-3.34,1.17l1.09-1.68C28.78,150.2,31,149.6,30.47,150.72ZM6.61,164.44v-.55l1.68,0A2.07,2.07,0,0,1,6.61,164.44ZM17,147.07l1.68,0L17,148.18C16.4,147.64,15.84,147.65,17,147.07Zm1.66-1.14c-.56,0-1.12,0-1.13-.53s0-1.66,1.09-1.68C18,144.84,19.16,145.37,18.61,145.94Zm11.44-18.5c-.57-.54-.58-1.1-1.14-1.09.56,0,.55-.56,1.11-.57,0,.55.57.54.58,1.1A.55.55,0,0,1,30.06,127.44ZM23,138.65c-.56,0-1.13-.53-1.7-1.08a24.5,24.5,0,0,0,2.79-.6c1.11-.57.56,0,.57.54C24.08,138.08,24.1,139.19,23,138.65ZM12.61,154.91c-.56,0-1.12,0-.57-.54l2.21-1.7,0,1.11C13.72,154.34,13.17,154.9,12.61,154.91ZM.22,183.4v-.55H.77A.55.55,0,0,1,.22,183.4Zm20.59-8.12c0-1.66-2.27-1.62-1.17-2.75,1.09-1.68,1.05-3.9,3.84-4.5,1.68,0,1.69.53,1.15,1.64s-2.19,2.81-1.6,4.46Zm4.32-9.5c0-.55.55-.56,1.11-.57l.57.54c0,.55-.55.56-1.11.57S24.58,166.35,25.13,165.79Zm3.74-10.6c.54-1.12,1.05-3.9,3.32-2.28,1.12,0,2.79-.6.58,1.1-1.11.57-2.76,2.27-2.18,3.36.57.54-.54,1.12-.55.56A2,2,0,0,1,28.86,155.19Zm3,9.37c-.55.56-1.1,1.13-1.09,1.68l0-1.66.54-1.12C31.81,163.45,31.82,164,31.83,164.56Zm.28-16.08c-.56,0-.56,0-.57-.54.55-.56,1.09-1.68,2.2-2.26.56,0,.58,1.1,1.15,1.64C33.78,147.89,32.66,147.91,32.11,148.48ZM37,139c1.12,0,.57.54.58,1.1-1.11.57-.52,2.23-2.2,2.26a1.71,1.71,0,0,0-.58-1.1C36.46,141.19,35.86,139,37,139Zm2.16-4.47v-.55c1.11-.57.51-2.78,1.08-2.24,1.69.53,0,2.22-.49,3.89-.56,0-1.1,1.13-1.67.58C37.48,135.08,38.59,134.5,39.15,134.49Zm1.72,2.19a.55.55,0,0,1-.55.56c-1.12,0-.58-1.1-.59-1.65C40.85,135.57,41.41,135.56,40.87,136.68Zm2.63-10c.57.54,1.68,0,1.15,1.64,0,.55,0,1.11-1.11.57-1.12,0-1.13-.53-1.14-1.09A1.2,1.2,0,0,1,43.49,126.65Zm1.3,10c0-.55,0-.55.54-1.12,0,.55,0,.55.57.54l-1.1,1.13C44.79,136.61,44.23,136.62,44.79,136.61Zm-1.36-13.28c1.12,0,1.67-.58,2.78-1.16-.55.56-1.09,1.68.59,1.65l-.55.56C45.14,124.41,44,124.43,43.43,123.33Zm-3.91.62,1.1-1.13c1.67-.58,2.24,0,2.81.51-.56,0-1.67.58-2.23.59Zm.49-3.89h.56c.57.54,0,1.66,0,2.22C40,121.72,39.47,121.18,40,120.06Zm1.16,2.2-.55.56v-.55Zm7.08-11.77a1.75,1.75,0,0,1-1.11.57c-.56,0-.57-.54-.58-1.1C47.12,110,47.69,110.5,48.25,110.49Zm2.38,7.72c-.55.56-1.1,1.13-1.66,1.14a.55.55,0,0,1-.57-.54l1.66-1.14A.54.54,0,0,0,50.63,118.21Zm-.44,6.66h.56L49.65,126v-.55A.55.55,0,0,1,50.19,124.88ZM64.85,98l-2.21,1.7-.57-.54C62.61,98,63.74,98.58,64.85,98Zm6.56-9.54c.56,0,0,.55,0,1.11-.55.56-.54,1.12-1.66,1.14l-1.7-1.08A8,8,0,0,0,71.4,88.47Zm1.09-1.68A4.15,4.15,0,0,1,73,84.56l0,1.66c.57.54,0,1.11-.54,1.12S71.93,86.8,72.49,86.79ZM88,75.43v-.55l1.12,0A1.74,1.74,0,0,1,88,75.43Zm51.74,200.38c0,.55-.55.56-.54,1.12h-.56C138.61,275.83,139.17,275.82,139.73,275.81Zm2.22-1.15c-.55.56-1.08,2.24-2.22,1.15C140.83,274.69,140.82,274.13,141.95,274.67Zm.53-1.67,1.12,0c.58,1.1-.54,1.12-1.09,1.68C143.06,274.09,141.93,273.56,142.48,273Zm8.71-14.57a.55.55,0,1,1,0,1.11l-.57-.54C150.63,258.44,150.63,258.44,151.19,258.43Zm2.22-1.15a1.93,1.93,0,0,0-.54,1.12.55.55,0,0,0-.57-.54c0-.55.55-.56,1.09-1.68Zm1.72,2.19V260c0,1.11-.54,1.12-1.65,1.69a.55.55,0,0,0-.57-.54C154,260.6,154.59,260.59,155.13,259.47Zm10.38-15.15L163.3,246v-.55A4.26,4.26,0,0,1,165.51,244.32Zm2.67-7.25h.56c-1.1,1.13.61,2.76-1.63,2.8-1.11.57-.57-.54-.58-1.1C167.09,238.19,167.07,237.08,168.19,237.06Zm21.06-45.28c.56,0,.57.54.58,1.1-.56,0-.54,1.12-1.1,1.13s-.57-.54-.58-1.1S188.7,192.35,189.25,191.79Zm4.37-6.17v.55c-.55.56,0,1.11-1.1,1.13v-.55A1.2,1.2,0,0,1,193.62,185.61Zm3.23-7.26-1.68,0a.55.55,0,0,1-.57-.54h.56C195.73,177.81,195.73,177.81,196.86,178.35Zm1.08-2.24v.55a1.93,1.93,0,0,1-.54,1.12.55.55,0,0,1-.57-.54C197.4,177.23,197.39,176.67,197.94,176.11Zm18.85-43.57c.56,0,.57.54.58,1.1s-.55.56-1.1,1.13c0-.55-.58-1.1-.59-1.65A2,2,0,0,1,216.79,132.54Zm19.55-35.27c.56,0,.56,0,.57.54l-1.65,1.69s-.56,0,0-.55C235.24,98.39,235.22,97.29,236.34,97.27ZM247.63,69.9h.56c-.55.56-.54,1.12-1.1,1.13v-.55A.54.54,0,0,1,247.63,69.9Zm3.72-11.71a.55.55,0,0,1-.57-.54l1.12,0A.54.54,0,0,0,251.35,58.19Zm1.54-7.79c0-.55,0-.55.54-1.12l0,1.11a1.71,1.71,0,0,1-.54,1.12Zm-.5,3.34a.55.55,0,0,0,.57.54.56.56,0,0,1-1.12,0A.55.55,0,0,0,252.39,53.74Zm3.19-10a9.32,9.32,0,0,1,1.17,2.75c0,.55-.55.56-1.11.57s-1.68,0-.59-1.65C255,44.82,255.58,44.26,255.57,43.7Zm-.44,6.66c0-.55,0-.55.54-1.12,1.14,1.09-.52,2.23.06,3.33,0,.55,0,1.11-1.09,1.68A10.71,10.71,0,0,0,255.13,50.37Zm2.55-14.46c.55-.56,1.1-1.13,1.66-1.14s.56,0,.57.54c0,1.11-.54,1.12-1.1,1.13A2,2,0,0,1,257.68,35.9Zm38,176.09a.61.61,0,0,1-.37.25h-.22l-.24,0a5.42,5.42,0,0,0-1.29-.22,2.75,2.75,0,0,1-1.67-.58h2.66C295.08,211.4,295.08,211.4,295.69,212Zm140.77-53.28c-1.12.44-1.12.44-1.66.39l0-.53ZM574.71,239a8,8,0,0,1,3.25-1.39c.51-.6,1-1.2,1.12-.1.61.5-.46,1.15-1,1.2-1.07.65-2.18.74-2.69,1.35-.56,0-.61-.5-1.16-.46A.54.54,0,0,0,574.71,239Z" style="fill:#ccc;fill-rule:evenodd"/></svg>